<svg width="340" height="463" viewBox="0 0 340 463" fill="none" xmlns="http://www.w3.org/2000/svg">
<rect width="340" height="463" rx="10" fill="#051B24"/>
<path d="M97.3606 255H92.9086L85.9086 245.788V255H82.0446V235.4H85.9086V244.052L92.6286 235.4H97.0806L89.8286 244.948L97.3606 255ZM119.767 249.876C119.45 251.481 118.638 252.807 117.331 253.852C116.025 254.879 114.503 255.392 112.767 255.392C110.658 255.392 108.894 254.683 107.475 253.264C106.075 251.845 105.375 250.091 105.375 248C105.375 245.909 106.075 244.155 107.475 242.736C108.894 241.317 110.658 240.608 112.767 240.608C114.503 240.608 116.025 241.121 117.331 242.148C118.638 243.175 119.45 244.491 119.767 246.096H115.959C115.698 245.499 115.278 245.032 114.699 244.696C114.139 244.341 113.495 244.164 112.767 244.164C111.703 244.164 110.807 244.528 110.079 245.256C109.351 245.965 108.987 246.88 108.987 248C108.987 249.101 109.351 250.016 110.079 250.744C110.807 251.453 111.703 251.808 112.767 251.808C113.514 251.808 114.167 251.64 114.727 251.304C115.306 250.949 115.717 250.473 115.959 249.876H119.767ZM133.891 253.264C132.453 254.683 130.699 255.392 128.627 255.392C126.555 255.392 124.8 254.683 123.363 253.264C121.944 251.827 121.235 250.072 121.235 248C121.235 245.928 121.944 244.183 123.363 242.764C124.8 241.327 126.555 240.608 128.627 240.608C130.699 240.608 132.453 241.327 133.891 242.764C135.328 244.183 136.047 245.928 136.047 248C136.047 250.072 135.328 251.827 133.891 253.264ZM125.911 250.772C126.639 251.5 127.544 251.864 128.627 251.864C129.709 251.864 130.615 251.5 131.343 250.772C132.071 250.044 132.435 249.12 132.435 248C132.435 246.88 132.071 245.956 131.343 245.228C130.615 244.5 129.709 244.136 128.627 244.136C127.544 244.136 126.639 244.5 125.911 245.228C125.201 245.956 124.847 246.88 124.847 248C124.847 249.12 125.201 250.044 125.911 250.772ZM156.476 255H152.416L148.132 248.728V255H144.604V248.728L140.32 255H136.288L141.328 247.916L136.568 241H140.6L144.604 247.076V241H148.132V247.076L152.136 241H156.196L151.408 247.916L156.476 255ZM163.301 240.608C164.943 240.608 166.306 241.093 167.389 242.064C168.471 243.016 169.013 244.36 169.013 246.096V255H165.485V253.796C164.607 254.86 163.338 255.392 161.677 255.392C160.351 255.392 159.231 255.009 158.317 254.244C157.421 253.46 156.973 252.368 156.973 250.968C156.973 249.568 157.421 248.485 158.317 247.72C159.231 246.955 160.351 246.572 161.677 246.572C163.263 246.572 164.533 246.983 165.485 247.804V246.32C165.485 244.752 164.757 243.968 163.301 243.968C162.647 243.968 162.125 244.136 161.733 244.472C161.341 244.789 161.145 245.219 161.145 245.76H157.617C157.617 244.173 158.158 242.923 159.241 242.008C160.342 241.075 161.695 240.608 163.301 240.608ZM162.909 252.704C163.693 252.704 164.318 252.545 164.785 252.228C165.251 251.892 165.485 251.472 165.485 250.968C165.485 250.427 165.251 250.007 164.785 249.708C164.337 249.391 163.711 249.232 162.909 249.232C162.143 249.232 161.565 249.391 161.173 249.708C160.781 250.025 160.585 250.445 160.585 250.968C160.585 251.491 160.781 251.911 161.173 252.228C161.565 252.545 162.143 252.704 162.909 252.704ZM183.175 241V255H179.563V244.472H176.483V249.148C176.483 253.423 174.514 255.429 170.575 255.168V251.78C172.106 251.985 172.871 251.043 172.871 248.952V241H176.483H183.175ZM189.49 249.484C189.714 250.436 190.162 251.164 190.834 251.668C191.525 252.153 192.337 252.396 193.27 252.396C193.905 252.396 194.484 252.265 195.006 252.004C195.529 251.743 195.912 251.407 196.154 250.996L199.71 250.968C199.281 252.368 198.488 253.46 197.33 254.244C196.192 255.009 194.829 255.392 193.242 255.392C191.002 255.392 189.192 254.692 187.81 253.292C186.429 251.892 185.738 250.128 185.738 248C185.738 245.891 186.429 244.136 187.81 242.736C189.192 241.317 190.974 240.608 193.158 240.608C195.193 240.608 196.864 241.317 198.17 242.736C199.477 244.155 200.13 245.909 200.13 248C200.13 248.597 200.084 249.092 199.99 249.484H189.49ZM189.462 246.656H196.518C196.313 245.704 195.902 245.004 195.286 244.556C194.67 244.089 193.952 243.856 193.13 243.856C192.178 243.856 191.385 244.099 190.75 244.584C190.116 245.069 189.686 245.76 189.462 246.656ZM210.943 241H214.555V255H210.943V249.68H206.211V255H202.599V241H206.211V246.292H210.943V241ZM227.125 241H229.813V255H226.285V246.88L220.545 255H217.857V241H221.385V249.12L227.125 241ZM245.855 240.608C247.927 240.608 249.682 241.327 251.119 242.764C252.556 244.183 253.275 245.928 253.275 248C253.275 250.072 252.556 251.827 251.119 253.264C249.682 254.683 247.927 255.392 245.855 255.392C244.1 255.392 242.57 254.86 241.263 253.796C239.956 252.732 239.116 251.36 238.743 249.68H236.727V255H233.115V241H236.727V246.292H238.743C239.116 244.631 239.956 243.268 241.263 242.204C242.57 241.14 244.1 240.608 245.855 240.608ZM243.139 250.772C243.867 251.5 244.772 251.864 245.855 251.864C246.938 251.864 247.843 251.5 248.571 250.772C249.299 250.044 249.663 249.12 249.663 248C249.663 246.88 249.299 245.956 248.571 245.228C247.843 244.5 246.938 244.136 245.855 244.136C244.772 244.136 243.867 244.5 243.139 245.228C242.43 245.956 242.075 246.88 242.075 248C242.075 249.12 242.43 250.044 243.139 250.772ZM255.047 250.996H259.023V255C259.023 256.176 258.669 257.109 257.959 257.8C257.269 258.509 256.298 258.873 255.047 258.892V257.268C255.701 257.231 256.167 257.044 256.447 256.708C256.746 256.372 256.895 255.803 256.895 255H255.047V250.996ZM60.5577 270.4V290H56.6937V274.096H50.1977V290H46.3337V270.4H50.1977H60.5577ZM75.9491 288.264C74.5118 289.683 72.7571 290.392 70.6851 290.392C68.6131 290.392 66.8585 289.683 65.4211 288.264C64.0025 286.827 63.2931 285.072 63.2931 283C63.2931 280.928 64.0025 279.183 65.4211 277.764C66.8585 276.327 68.6131 275.608 70.6851 275.608C72.7571 275.608 74.5118 276.327 75.9491 277.764C77.3865 279.183 78.1051 280.928 78.1051 283C78.1051 285.072 77.3865 286.827 75.9491 288.264ZM67.9691 285.772C68.6971 286.5 69.6025 286.864 70.6851 286.864C71.7678 286.864 72.6731 286.5 73.4011 285.772C74.1291 285.044 74.4931 284.12 74.4931 283C74.4931 281.88 74.1291 280.956 73.4011 280.228C72.6731 279.5 71.7678 279.136 70.6851 279.136C69.6025 279.136 68.6971 279.5 67.9691 280.228C67.2598 280.956 66.9051 281.88 66.9051 283C66.9051 284.12 67.2598 285.044 67.9691 285.772ZM94.3101 284.876C93.9928 286.481 93.1808 287.807 91.8741 288.852C90.5675 289.879 89.0461 290.392 87.3101 290.392C85.2008 290.392 83.4368 289.683 82.0181 288.264C80.6181 286.845 79.9181 285.091 79.9181 283C79.9181 280.909 80.6181 279.155 82.0181 277.736C83.4368 276.317 85.2008 275.608 87.3101 275.608C89.0461 275.608 90.5675 276.121 91.8741 277.148C93.1808 278.175 93.9928 279.491 94.3101 281.096H90.5021C90.2408 280.499 89.8208 280.032 89.2421 279.696C88.6821 279.341 88.0381 279.164 87.3101 279.164C86.2461 279.164 85.3501 279.528 84.6221 280.256C83.8941 280.965 83.5301 281.88 83.5301 283C83.5301 284.101 83.8941 285.016 84.6221 285.744C85.3501 286.453 86.2461 286.808 87.3101 286.808C88.0568 286.808 88.7101 286.64 89.2701 286.304C89.8488 285.949 90.2595 285.473 90.5021 284.876H94.3101ZM106.117 276V279.388H102.309V290H98.6967V279.388H94.8327V276H102.309H106.117ZM110.631 284.484C110.855 285.436 111.303 286.164 111.975 286.668C112.666 287.153 113.478 287.396 114.411 287.396C115.046 287.396 115.624 287.265 116.147 287.004C116.67 286.743 117.052 286.407 117.295 285.996L120.851 285.968C120.422 287.368 119.628 288.46 118.471 289.244C117.332 290.009 115.97 290.392 114.383 290.392C112.143 290.392 110.332 289.692 108.951 288.292C107.57 286.892 106.879 285.128 106.879 283C106.879 280.891 107.57 279.136 108.951 277.736C110.332 276.317 112.115 275.608 114.299 275.608C116.334 275.608 118.004 276.317 119.311 277.736C120.618 279.155 121.271 280.909 121.271 283C121.271 283.597 121.224 284.092 121.131 284.484H110.631ZM110.603 281.656H117.659C117.454 280.704 117.043 280.004 116.427 279.556C115.811 279.089 115.092 278.856 114.271 278.856C113.319 278.856 112.526 279.099 111.891 279.584C111.256 280.069 110.827 280.76 110.603 281.656ZM131.888 275.608C133.773 275.608 135.379 276.327 136.704 277.764C138.048 279.183 138.72 280.928 138.72 283C138.72 285.072 138.048 286.827 136.704 288.264C135.379 289.683 133.773 290.392 131.888 290.392C129.947 290.392 128.435 289.72 127.352 288.376V295.6H123.74V276H127.352V277.624C128.435 276.28 129.947 275.608 131.888 275.608ZM131.216 286.948C132.336 286.948 133.26 286.584 133.988 285.856C134.735 285.109 135.108 284.157 135.108 283C135.108 281.843 134.735 280.9 133.988 280.172C133.26 279.425 132.336 279.052 131.216 279.052C130.152 279.052 129.256 279.397 128.528 280.088C127.8 280.76 127.408 281.647 127.352 282.748V283.252C127.408 284.353 127.8 285.249 128.528 285.94C129.256 286.612 130.152 286.948 131.216 286.948ZM160.195 288.264C158.758 289.683 157.003 290.392 154.931 290.392C152.859 290.392 151.105 289.683 149.667 288.264C148.249 286.827 147.539 285.072 147.539 283C147.539 280.928 148.249 279.183 149.667 277.764C151.105 276.327 152.859 275.608 154.931 275.608C157.003 275.608 158.758 276.327 160.195 277.764C161.633 279.183 162.351 280.928 162.351 283C162.351 285.072 161.633 286.827 160.195 288.264ZM152.215 285.772C152.943 286.5 153.849 286.864 154.931 286.864C156.014 286.864 156.919 286.5 157.647 285.772C158.375 285.044 158.739 284.12 158.739 283C158.739 281.88 158.375 280.956 157.647 280.228C156.919 279.5 156.014 279.136 154.931 279.136C153.849 279.136 152.943 279.5 152.215 280.228C151.506 280.956 151.151 281.88 151.151 283C151.151 284.12 151.506 285.044 152.215 285.772ZM174.257 276V279.388H170.449V290H166.837V279.388H162.973V276H170.449H174.257ZM189.412 284.876C189.094 286.481 188.282 287.807 186.976 288.852C185.669 289.879 184.148 290.392 182.412 290.392C180.302 290.392 178.538 289.683 177.12 288.264C175.72 286.845 175.02 285.091 175.02 283C175.02 280.909 175.72 279.155 177.12 277.736C178.538 276.317 180.302 275.608 182.412 275.608C184.148 275.608 185.669 276.121 186.976 277.148C188.282 278.175 189.094 279.491 189.412 281.096H185.604C185.342 280.499 184.922 280.032 184.344 279.696C183.784 279.341 183.14 279.164 182.412 279.164C181.348 279.164 180.452 279.528 179.724 280.256C178.996 280.965 178.632 281.88 178.632 283C178.632 284.101 178.996 285.016 179.724 285.744C180.452 286.453 181.348 286.808 182.412 286.808C183.158 286.808 183.812 286.64 184.372 286.304C184.95 285.949 185.361 285.473 185.604 284.876H189.412ZM199.102 276H202.966L198.206 290C197.553 291.979 196.591 293.425 195.322 294.34C194.053 295.273 192.55 295.693 190.814 295.6V292.24C191.785 292.259 192.55 292.072 193.11 291.68C193.67 291.307 194.109 290.672 194.426 289.776L189.078 276H192.942L196.33 285.212L199.102 276ZM214.589 276V279.388H210.781V290H207.169V279.388H203.305V276H210.781H214.589ZM229.744 284.876C229.426 286.481 228.614 287.807 227.308 288.852C226.001 289.879 224.48 290.392 222.744 290.392C220.634 290.392 218.87 289.683 217.452 288.264C216.052 286.845 215.352 285.091 215.352 283C215.352 280.909 216.052 279.155 217.452 277.736C218.87 276.317 220.634 275.608 222.744 275.608C224.48 275.608 226.001 276.121 227.308 277.148C228.614 278.175 229.426 279.491 229.744 281.096H225.936C225.674 280.499 225.254 280.032 224.676 279.696C224.116 279.341 223.472 279.164 222.744 279.164C221.68 279.164 220.784 279.528 220.056 280.256C219.328 280.965 218.964 281.88 218.964 283C218.964 284.101 219.328 285.016 220.056 285.744C220.784 286.453 221.68 286.808 222.744 286.808C223.49 286.808 224.144 286.64 224.704 286.304C225.282 285.949 225.693 285.473 225.936 284.876H229.744ZM241.55 276V279.388H237.742V290H234.13V279.388H230.266V276H237.742H241.55ZM253.726 281.712C254.492 282.067 255.08 282.58 255.49 283.252C255.92 283.924 256.134 284.689 256.134 285.548C256.134 286.855 255.696 287.928 254.818 288.768C253.96 289.589 252.718 290 251.094 290H243.478V283.924V276H246.866H249.918C251.262 276 252.345 276.364 253.166 277.092C253.988 277.82 254.398 278.716 254.398 279.78C254.398 280.433 254.174 281.077 253.726 281.712ZM246.866 278.912V281.18H250.758C250.908 280.919 250.982 280.639 250.982 280.34C250.982 279.911 250.833 279.565 250.534 279.304C250.254 279.024 249.872 278.893 249.386 278.912H246.866ZM250.786 287.004C252 287.004 252.606 286.481 252.606 285.436C252.606 284.428 252 283.924 250.786 283.924H246.866V287.004H250.786ZM265.356 276H269.22L264.46 290C263.807 291.979 262.845 293.425 261.576 294.34C260.307 295.273 258.804 295.693 257.068 295.6V292.24C258.039 292.259 258.804 292.072 259.364 291.68C259.924 291.307 260.363 290.672 260.68 289.776L255.332 276H259.196L262.584 285.212L265.356 276ZM273.627 284.484C273.851 285.436 274.299 286.164 274.971 286.668C275.662 287.153 276.474 287.396 277.407 287.396C278.042 287.396 278.621 287.265 279.143 287.004C279.666 286.743 280.049 286.407 280.291 285.996L283.847 285.968C283.418 287.368 282.625 288.46 281.467 289.244C280.329 290.009 278.966 290.392 277.379 290.392C275.139 290.392 273.329 289.692 271.947 288.292C270.566 286.892 269.875 285.128 269.875 283C269.875 280.891 270.566 279.136 271.947 277.736C273.329 276.317 275.111 275.608 277.295 275.608C279.33 275.608 281.001 276.317 282.307 277.736C283.614 279.155 284.267 280.909 284.267 283C284.267 283.597 284.221 284.092 284.127 284.484H273.627ZM273.599 281.656H280.655C280.45 280.704 280.039 280.004 279.423 279.556C278.807 279.089 278.089 278.856 277.267 278.856C276.315 278.856 275.522 279.099 274.887 279.584C274.253 280.069 273.823 280.76 273.599 281.656ZM296.21 276V279.388H292.402V290H288.79V279.388H284.926V276H292.402H296.21Z" fill="#273940"/>
<g clip-path="url(#clip0_1_18464)">
<path d="M183.653 170.431C183.653 169.538 182.928 168.814 182.033 168.814H149.464C148.569 168.814 147.844 169.538 147.844 170.431C147.844 171.324 148.569 172.048 149.464 172.048H182.033C182.928 172.048 183.653 171.324 183.653 170.431Z" fill="#273940"/>
<path d="M203.025 184.248H196.033V158.208C196.033 157.316 195.308 156.591 194.413 156.591C193.519 156.591 192.793 157.316 192.793 158.208V184.248H159.677C158.782 184.248 158.056 184.972 158.056 185.864C158.056 191.027 153.848 195.228 148.675 195.23C143.502 195.228 139.293 191.027 139.293 185.864V133.278H141.123V135.519C141.123 136.412 141.849 137.136 142.744 137.136H151.814C152.708 137.136 153.434 136.412 153.434 135.519V133.278H178.652V135.519C178.652 136.412 179.378 137.136 180.273 137.136H189.342C190.237 137.136 190.963 136.412 190.963 135.519V133.278H192.793V145.273C192.793 146.166 193.519 146.89 194.413 146.89C195.308 146.89 196.033 146.166 196.033 145.273V131.661C196.033 130.768 195.308 130.044 194.413 130.044H190.963V127.802C190.963 126.909 190.237 126.185 189.342 126.185H186.428V117.617C186.428 116.724 185.702 116 184.808 116C183.913 116 183.188 116.724 183.188 117.617V126.185H180.273C179.378 126.185 178.653 126.909 178.653 127.802V130.044H153.434V127.802C153.434 126.909 152.708 126.185 151.814 126.185H148.899V117.617C148.899 116.724 148.174 116 147.279 116C146.384 116 145.658 116.724 145.658 117.617V126.185H142.744C141.849 126.185 141.123 126.909 141.123 127.802V130.044H137.673C136.778 130.044 136.053 130.768 136.053 131.661V185.864C136.053 192.805 141.707 198.456 148.662 198.463C148.665 198.463 148.668 198.464 148.672 198.464H192.019C198.981 198.464 204.645 192.812 204.645 185.864C204.645 184.972 203.919 184.248 203.025 184.248V184.248ZM181.893 129.419H187.722V133.902H181.893V129.419ZM144.364 129.419H150.193V133.902H144.364V129.419ZM192.019 195.23H157.114C159.305 193.263 160.805 190.542 161.2 187.481H201.264C200.494 191.878 196.642 195.23 192.019 195.23Z" fill="#273940"/>
<path d="M149.464 164.755H182.033C182.618 164.755 183.157 164.441 183.444 163.932C183.732 163.424 183.722 162.801 183.42 162.302L169.621 139.507C169.327 139.022 168.802 138.726 168.234 138.726C167.667 138.726 167.14 139.022 166.847 139.507L161.348 148.591L160.249 146.777C159.956 146.292 159.43 145.996 158.862 145.996C158.295 145.996 157.769 146.292 157.475 146.777L148.077 162.302C147.775 162.801 147.766 163.424 148.053 163.932C148.34 164.441 148.88 164.755 149.464 164.755V164.755ZM168.234 143.47L179.161 161.521H169.175L163.241 151.719L168.234 143.47ZM158.863 150.74L165.389 161.521H152.336L158.863 150.74Z" fill="#273940"/>
<path d="M154.794 174.631C153.899 174.631 153.174 175.355 153.174 176.248C153.174 177.141 153.899 177.865 154.794 177.865H170.21C171.104 177.865 171.83 177.141 171.83 176.248C171.83 175.355 171.104 174.631 170.21 174.631H154.794Z" fill="#273940"/>
<path d="M178.05 175.351C177.665 174.776 176.925 174.498 176.257 174.694C175.615 174.883 175.146 175.448 175.088 176.116C175.03 176.787 175.419 177.445 176.034 177.72C176.644 177.993 177.372 177.864 177.847 177.391C178.388 176.853 178.474 175.983 178.05 175.351Z" fill="#273940"/>
<path d="M195.917 151.122C195.658 150.496 195.012 150.09 194.334 150.126C193.66 150.163 193.068 150.627 192.871 151.271C192.677 151.907 192.905 152.619 193.435 153.023C193.98 153.439 194.749 153.465 195.321 153.085C195.955 152.664 196.208 151.825 195.917 151.122Z" fill="#273940"/>
</g>
<path d="M97.112 432.814C96.9413 433.433 96.6747 433.913 96.312 434.254C95.9493 434.574 95.5547 434.819 95.128 434.99C94.7013 435.139 94.264 435.235 93.816 435.278C93.3893 435.299 93.0373 435.31 92.76 435.31H87.16C86.4133 435.31 85.848 435.235 85.464 435.086C85.08 434.937 84.8133 434.734 84.664 434.478C84.536 434.201 84.4933 433.891 84.536 433.55C84.6 433.187 84.7067 432.803 84.856 432.398L87.448 425.646L79.704 434.158C79.1493 434.755 78.616 435.15 78.104 435.342C77.6133 435.534 77.0373 435.587 76.376 435.502C75.8853 435.438 75.5013 435.31 75.224 435.118C74.968 434.926 74.7867 434.691 74.68 434.414C74.5947 434.115 74.5733 433.795 74.616 433.454C74.6587 433.091 74.744 432.739 74.872 432.398L78.712 422.478L69.08 434.126C69.0587 434.147 68.9627 434.254 68.792 434.446C68.6213 434.617 68.312 434.809 67.864 435.022C67.416 435.214 66.872 435.31 66.232 435.31H63.064L69.368 417.262H60.696L63.064 413.326H73.496C73.88 413.326 74.232 413.369 74.552 413.454C74.872 413.518 75.128 413.667 75.32 413.902C75.512 414.115 75.6187 414.425 75.64 414.83C75.6613 415.214 75.5653 415.726 75.352 416.366L71.992 426.062L78.712 418.446C79.0533 418.062 79.3733 417.71 79.672 417.39C79.992 417.049 80.3333 416.771 80.696 416.558C81.0587 416.323 81.464 416.142 81.912 416.014C82.3813 415.886 82.9573 415.822 83.64 415.822C83.7253 415.822 83.9067 415.865 84.184 415.95C84.4827 416.014 84.76 416.174 85.016 416.43C85.272 416.686 85.4427 417.049 85.528 417.518C85.6347 417.987 85.5387 418.617 85.24 419.406L82.2 427.278L88.216 421.23C88.5787 420.867 88.888 420.558 89.144 420.302C89.4 420.046 89.656 419.843 89.912 419.694C90.1893 419.545 90.488 419.438 90.808 419.374C91.128 419.31 91.5333 419.278 92.024 419.278C92.1093 419.278 92.3013 419.321 92.6 419.406C92.92 419.491 93.2187 419.673 93.496 419.95C93.7733 420.206 93.9653 420.579 94.072 421.07C94.2 421.539 94.1147 422.169 93.816 422.958L90.072 432.814H97.112ZM123.74 424.686C123.74 424.686 123.697 424.814 123.612 425.07C123.548 425.326 123.388 425.614 123.132 425.934C122.876 426.254 122.492 426.542 121.98 426.798C121.489 427.054 120.828 427.182 119.996 427.182H110.204C110.396 427.31 110.567 427.491 110.716 427.726C110.865 427.961 110.983 428.217 111.068 428.494C111.175 428.75 111.249 429.017 111.292 429.294C111.335 429.571 111.345 429.817 111.324 430.03C111.26 430.926 111.025 431.715 110.62 432.398C110.215 433.081 109.681 433.657 109.02 434.126C108.38 434.595 107.612 434.958 106.716 435.214C105.841 435.449 104.892 435.566 103.868 435.566C102.417 435.566 101.191 435.406 100.188 435.086C99.2067 434.766 98.4173 434.339 97.82 433.806C97.244 433.273 96.8493 432.665 96.636 431.982C96.4227 431.278 96.38 430.553 96.508 429.806C96.764 428.27 97.532 427.033 98.812 426.094C100.113 425.155 101.959 424.686 104.348 424.686H123.74ZM106.716 427.182H103.132L101.724 431.182C101.532 431.758 101.575 432.185 101.852 432.462C102.129 432.718 102.471 432.899 102.876 433.006C103.303 433.091 103.697 433.134 104.06 433.134C104.444 433.113 104.636 433.102 104.636 433.102L106.716 427.182ZM148.429 424.686C148.279 425.198 148.034 425.625 147.693 425.966C147.373 426.286 147.021 426.542 146.637 426.734C146.253 426.905 145.869 427.022 145.485 427.086C145.101 427.15 144.781 427.182 144.525 427.182H137.965L131.341 435.31H125.101L124.428 424.686H130.093L130.189 432.366L136.045 424.686H148.429ZM157.024 418.286C157.024 418.798 156.918 419.289 156.704 419.758C156.491 420.206 156.192 420.601 155.808 420.942C155.446 421.283 155.008 421.55 154.496 421.742C154.006 421.934 153.472 422.03 152.896 422.03C152.32 422.03 151.776 421.934 151.264 421.742C150.774 421.55 150.336 421.283 149.952 420.942C149.568 420.601 149.27 420.206 149.056 419.758C148.843 419.289 148.736 418.798 148.736 418.286C148.736 417.774 148.843 417.294 149.056 416.846C149.27 416.377 149.568 415.971 149.952 415.63C150.336 415.289 150.774 415.022 151.264 414.83C151.776 414.638 152.32 414.542 152.896 414.542C153.472 414.542 154.006 414.638 154.496 414.83C155.008 415.022 155.446 415.289 155.808 415.63C156.192 415.971 156.491 416.377 156.704 416.846C156.918 417.294 157.024 417.774 157.024 418.286ZM158.144 432.814C157.995 433.326 157.76 433.753 157.44 434.094C157.142 434.414 156.811 434.67 156.448 434.862C156.107 435.033 155.755 435.15 155.392 435.214C155.03 435.278 154.72 435.31 154.464 435.31H148.288C147.435 435.31 146.806 435.054 146.4 434.542C145.974 434.009 145.931 433.262 146.272 432.302L148.992 424.686H154.656L151.776 432.814H158.144ZM177.539 432.814C177.411 433.241 177.209 433.614 176.931 433.934C176.675 434.233 176.366 434.489 176.003 434.702C175.662 434.915 175.278 435.075 174.851 435.182C174.446 435.267 174.041 435.31 173.635 435.31H164.931C164.163 435.31 163.331 435.257 162.435 435.15C161.561 435.043 160.739 434.83 159.971 434.51C159.225 434.19 158.606 433.731 158.115 433.134C157.603 432.537 157.347 431.737 157.347 430.734C157.347 429.689 157.593 428.782 158.083 428.014C158.553 427.246 159.171 426.617 159.939 426.126C160.707 425.635 161.561 425.273 162.499 425.038C163.438 424.803 164.355 424.686 165.251 424.686H167.523C168.014 424.686 168.569 424.729 169.187 424.814C169.827 424.899 170.425 425.059 170.979 425.294C171.555 425.529 172.035 425.849 172.419 426.254C172.825 426.638 173.049 427.139 173.091 427.758C173.134 428.398 172.995 428.953 172.675 429.422C172.355 429.87 171.961 430.243 171.491 430.542H166.307L168.003 427.182H164.707L163.427 430.958C163.299 431.342 163.278 431.662 163.363 431.918C163.47 432.153 163.63 432.345 163.843 432.494C164.057 432.622 164.302 432.707 164.579 432.75C164.857 432.793 165.113 432.814 165.347 432.814H177.539ZM214.82 424.686C214.585 425.433 214.255 426.041 213.828 426.51C213.401 426.958 212.761 427.182 211.908 427.182H202.276C202.297 427.246 202.308 427.363 202.308 427.534V427.854C202.308 429.433 201.871 430.926 200.996 432.334C200.143 433.742 199.044 434.979 197.7 436.046C196.356 437.113 194.884 437.955 193.284 438.574C191.684 439.214 190.148 439.534 188.676 439.534C187.951 439.534 187.289 439.427 186.692 439.214C186.095 439.001 185.593 438.691 185.188 438.286C184.761 437.902 184.441 437.422 184.228 436.846C184.015 436.291 183.929 435.651 183.972 434.926C184.057 433.433 184.463 432.099 185.188 430.926C185.913 429.731 186.809 428.718 187.876 427.886C188.964 427.033 190.159 426.35 191.46 425.838C192.783 425.326 194.084 424.985 195.364 424.814C195.065 424.195 194.681 423.641 194.212 423.15C193.764 422.659 193.263 422.201 192.708 421.774L201.348 417.262H189.604L191.972 413.326H208.228C208.249 414.478 208.1 415.449 207.78 416.238C207.46 417.027 206.777 417.699 205.732 418.254C203.641 419.406 201.54 420.537 199.428 421.646C199.94 422.051 200.388 422.51 200.772 423.022C201.177 423.513 201.487 424.067 201.7 424.686H214.82ZM196.708 427.726C196.687 427.662 196.665 427.587 196.644 427.502C196.623 427.395 196.559 427.289 196.452 427.182C195.983 427.246 195.481 427.395 194.948 427.63C194.415 427.843 193.892 428.121 193.38 428.462C192.868 428.782 192.388 429.134 191.94 429.518C191.492 429.902 191.129 430.286 190.852 430.67C190.617 430.99 190.351 431.353 190.052 431.758C189.775 432.163 189.519 432.59 189.284 433.038C189.049 433.486 188.847 433.945 188.676 434.414C188.527 434.862 188.452 435.289 188.452 435.694C188.452 436.099 188.548 436.43 188.74 436.686C188.932 436.942 189.241 437.07 189.668 437.07C190.201 437.07 190.756 436.931 191.332 436.654C191.908 436.377 192.473 435.993 193.028 435.502C193.604 435.033 194.137 434.489 194.628 433.87C195.119 433.251 195.535 432.601 195.876 431.918C196.217 431.214 196.463 430.51 196.612 429.806C196.783 429.081 196.815 428.387 196.708 427.726ZM239.303 424.686C239.303 424.686 239.26 424.814 239.175 425.07C239.111 425.326 238.951 425.614 238.695 425.934C238.439 426.254 238.055 426.542 237.543 426.798C237.052 427.054 236.391 427.182 235.559 427.182H225.767C225.959 427.31 226.129 427.491 226.279 427.726C226.428 427.961 226.545 428.217 226.631 428.494C226.737 428.75 226.812 429.017 226.855 429.294C226.897 429.571 226.908 429.817 226.887 430.03C226.823 430.926 226.588 431.715 226.183 432.398C225.777 433.081 225.244 433.657 224.583 434.126C223.943 434.595 223.175 434.958 222.279 435.214C221.404 435.449 220.455 435.566 219.431 435.566C217.98 435.566 216.753 435.406 215.751 435.086C214.769 434.766 213.98 434.339 213.383 433.806C212.806 433.273 212.412 432.665 212.198 431.982C211.985 431.278 211.942 430.553 212.07 429.806C212.326 428.27 213.094 427.033 214.375 426.094C215.676 425.155 217.521 424.686 219.911 424.686H239.303ZM222.279 427.182H218.695L217.286 431.182C217.095 431.758 217.137 432.185 217.415 432.462C217.692 432.718 218.033 432.899 218.439 433.006C218.865 433.091 219.26 433.134 219.623 433.134C220.007 433.113 220.199 433.102 220.199 433.102L222.279 427.182ZM258.491 432.814C258.342 433.326 258.097 433.753 257.755 434.094C257.435 434.414 257.083 434.67 256.699 434.862C256.315 435.033 255.931 435.15 255.547 435.214C255.163 435.278 254.843 435.31 254.587 435.31H248.347C247.366 435.31 246.726 435.107 246.427 434.702C246.129 434.275 246.129 433.646 246.427 432.814L247.611 429.454L242.235 433.998C242.235 433.998 242.129 434.073 241.915 434.222C241.723 434.35 241.478 434.499 241.179 434.67C240.881 434.819 240.539 434.969 240.155 435.118C239.793 435.246 239.451 435.31 239.131 435.31H236.251L239.995 424.686H245.627L243.867 429.678L248.635 425.774C249.19 425.326 249.787 424.953 250.427 424.654C251.067 424.355 251.867 424.227 252.827 424.27C253.083 424.27 253.329 424.334 253.563 424.462C253.798 424.569 253.99 424.739 254.139 424.974C254.289 425.209 254.363 425.507 254.363 425.87C254.385 426.233 254.299 426.67 254.107 427.182L252.091 432.814H258.491ZM278.133 432.814C278.005 433.241 277.802 433.614 277.525 433.934C277.269 434.233 276.96 434.489 276.597 434.702C276.256 434.915 275.872 435.075 275.445 435.182C275.04 435.267 274.634 435.31 274.229 435.31H265.525C264.757 435.31 263.925 435.257 263.029 435.15C262.154 435.043 261.333 434.83 260.565 434.51C259.818 434.19 259.2 433.731 258.709 433.134C258.197 432.537 257.941 431.737 257.941 430.734C257.941 429.689 258.186 428.782 258.677 428.014C259.146 427.246 259.765 426.617 260.533 426.126C261.301 425.635 262.154 425.273 263.093 425.038C264.032 424.803 264.949 424.686 265.845 424.686H268.117C268.608 424.686 269.162 424.729 269.781 424.814C270.421 424.899 271.018 425.059 271.573 425.294C272.149 425.529 272.629 425.849 273.013 426.254C273.418 426.638 273.642 427.139 273.685 427.758C273.728 428.398 273.589 428.953 273.269 429.422C272.949 429.87 272.554 430.243 272.085 430.542H266.901L268.597 427.182H265.301L264.021 430.958C263.893 431.342 263.872 431.662 263.957 431.918C264.064 432.153 264.224 432.345 264.437 432.494C264.65 432.622 264.896 432.707 265.173 432.75C265.45 432.793 265.706 432.814 265.941 432.814H278.133Z" fill="#273940"/>
<path d="M116.619 391.286C116.619 388.806 114.597 386.789 112.112 386.789C109.627 386.789 107.605 388.806 107.605 391.286C107.605 393.766 109.627 395.784 112.112 395.784C114.597 395.784 116.619 393.766 116.619 391.286ZM109.275 391.286C109.275 389.725 110.548 388.454 112.112 388.454C113.677 388.454 114.95 389.725 114.95 391.286C114.95 392.848 113.677 394.118 112.112 394.118C110.548 394.118 109.275 392.848 109.275 391.286Z" fill="#273940"/>
<path d="M104.829 402.055C105.901 401.51 106.697 400.58 107.069 399.438C107.44 398.296 107.344 397.077 106.798 396.007C106.252 394.937 105.32 394.143 104.176 393.772C103.031 393.401 101.81 393.497 100.738 394.042C99.6655 394.587 98.8701 395.517 98.4982 396.659C98.1263 397.801 98.2223 399.02 98.7687 400.09C99.3151 401.16 100.246 401.954 101.391 402.325C101.849 402.474 102.32 402.547 102.788 402.547C103.489 402.547 104.186 402.382 104.829 402.055V402.055ZM101.907 400.741C101.186 400.507 100.6 400.007 100.256 399.334C99.9119 398.66 99.8514 397.893 100.086 397.174C100.32 396.455 100.82 395.87 101.495 395.526C101.9 395.32 102.339 395.216 102.78 395.216C103.075 395.216 103.371 395.263 103.66 395.356C104.38 395.59 104.967 396.09 105.311 396.763C105.655 397.437 105.715 398.204 105.481 398.923C105.247 399.642 104.746 400.228 104.071 400.571C103.396 400.914 102.627 400.974 101.907 400.741Z" fill="#273940"/>
<path d="M103.7 412.63C104.498 413.208 105.424 413.487 106.343 413.487C107.737 413.487 109.114 412.845 109.994 411.635C110.702 410.663 110.988 409.474 110.8 408.288C110.611 407.101 109.971 406.059 108.997 405.353C108.023 404.647 106.833 404.362 105.644 404.55C104.455 404.737 103.41 405.376 102.703 406.348C101.242 408.354 101.69 411.172 103.7 412.63V412.63ZM104.053 407.327C104.499 406.715 105.156 406.313 105.905 406.195C106.055 406.171 106.205 406.159 106.355 406.159C106.949 406.159 107.526 406.345 108.016 406.701C109.282 407.618 109.564 409.393 108.644 410.656C107.724 411.919 105.947 412.2 104.681 411.282C103.415 410.364 103.134 408.59 104.053 407.327Z" fill="#273940"/>
<path d="M117.883 413.487C118.801 413.487 119.728 413.208 120.526 412.63C122.536 411.172 122.983 408.354 121.523 406.348C120.815 405.376 119.771 404.737 118.582 404.55C117.393 404.362 116.202 404.647 115.228 405.353C114.254 406.059 113.614 407.101 113.426 408.288C113.237 409.474 113.523 410.663 114.231 411.635C115.112 412.845 116.488 413.487 117.883 413.487V413.487ZM116.209 406.701C116.822 406.256 117.572 406.076 118.32 406.195C119.069 406.313 119.727 406.715 120.172 407.327C121.092 408.59 120.81 410.364 119.544 411.282C118.279 412.2 116.501 411.919 115.581 410.656C114.662 409.393 114.943 407.618 116.209 406.701V406.701Z" fill="#273940"/>
<path d="M120.047 393.772C118.903 394.143 117.971 394.937 117.425 396.007C116.879 397.077 116.783 398.296 117.154 399.438C117.526 400.58 118.322 401.51 119.394 402.055C120.037 402.382 120.734 402.547 121.435 402.547C121.903 402.547 122.374 402.473 122.832 402.325C123.977 401.954 124.908 401.16 125.454 400.09C126.001 399.02 126.097 397.801 125.725 396.659C125.353 395.517 124.558 394.587 123.485 394.042C122.413 393.497 121.192 393.401 120.047 393.772V393.772ZM122.727 395.526C123.403 395.87 123.903 396.455 124.137 397.174C124.372 397.893 124.311 398.66 123.967 399.334C123.623 400.007 123.037 400.507 122.316 400.741C121.595 400.974 120.827 400.914 120.152 400.571C119.477 400.227 118.976 399.642 118.742 398.923C118.508 398.204 118.568 397.437 118.912 396.763C119.256 396.09 119.842 395.59 120.563 395.356C120.852 395.263 121.148 395.216 121.443 395.216C121.884 395.216 122.323 395.32 122.727 395.526Z" fill="#273940"/>
<path d="M114.976 401.073C114.976 399.499 113.692 398.217 112.114 398.217C110.536 398.217 109.252 399.499 109.252 401.073C109.252 402.648 110.536 403.929 112.114 403.929C113.692 403.929 114.976 402.648 114.976 401.073ZM110.921 401.073C110.921 400.417 111.456 399.883 112.114 399.883C112.772 399.883 113.307 400.417 113.307 401.073C113.307 401.73 112.772 402.264 112.114 402.264C111.456 402.264 110.921 401.73 110.921 401.073V401.073Z" fill="#273940"/>
<path d="M135.486 416.544C134.542 415.602 133.288 415.083 131.953 415.083C130.618 415.083 129.364 415.602 128.42 416.544C127.169 417.792 125.506 418.48 123.736 418.48H119.946C122.035 417.542 123.958 416.224 125.626 414.559C129.236 410.957 131.224 406.167 131.224 401.073C131.224 397.347 130.147 393.736 128.109 390.633C127.856 390.248 127.339 390.141 126.953 390.393C126.568 390.645 126.46 391.161 126.713 391.546C128.572 394.377 129.555 397.672 129.555 401.073C129.555 410.671 121.73 418.48 112.112 418.48C102.494 418.48 94.6692 410.671 94.6692 401.073C94.6692 391.475 102.494 383.666 112.112 383.666C115.526 383.666 118.832 384.65 121.672 386.511C122.057 386.763 122.575 386.656 122.828 386.272C123.081 385.887 122.974 385.371 122.588 385.118C119.475 383.078 115.852 382 112.112 382C107.007 382 102.208 383.984 98.5978 387.586C94.9881 391.189 93 395.978 93 401.073C93 406.167 94.988 410.957 98.5978 414.559C102.208 418.162 107.007 420.146 112.112 420.146H123.736C125.952 420.146 128.034 419.285 129.6 417.722C130.229 417.095 131.064 416.749 131.953 416.749C132.842 416.749 133.677 417.094 134.306 417.722C134.632 418.047 135.16 418.047 135.486 417.722C135.812 417.396 135.812 416.869 135.486 416.544Z" fill="#273940"/>
<path d="M125.042 389.014C125.261 389.014 125.476 388.925 125.632 388.77C125.787 388.615 125.876 388.401 125.876 388.182C125.876 387.962 125.787 387.748 125.632 387.592C125.476 387.437 125.261 387.349 125.042 387.349C124.822 387.349 124.607 387.437 124.452 387.592C124.296 387.748 124.207 387.962 124.207 388.182C124.207 388.401 124.296 388.615 124.452 388.77C124.607 388.925 124.822 389.014 125.042 389.014Z" fill="#273940"/>
<defs>
<clipPath id="clip0_1_18464">
<rect width="82.6329" height="82.4638" fill="white" transform="translate(129.113 116)"/>
</clipPath>
</defs>
</svg>
