<svg width="17" height="17" viewBox="0 0 17 17" fill="none" xmlns="http://www.w3.org/2000/svg">
<path d="M3.56818 13.0533C3.3196 13.0533 3.09446 12.9893 2.89276 12.8615C2.69247 12.7322 2.53338 12.5426 2.41548 12.2926C2.29901 12.0412 2.24077 11.733 2.24077 11.3679C2.24077 10.9929 2.30114 10.6811 2.42188 10.4325C2.54261 10.1825 2.70313 9.99574 2.90341 9.87216C3.10511 9.74716 3.32599 9.68466 3.56605 9.68466C3.74929 9.68466 3.90199 9.71591 4.02415 9.77841C4.14773 9.83949 4.24716 9.91619 4.32244 10.0085C4.39915 10.0994 4.45739 10.1889 4.49716 10.277H4.52486V8.63636H5.4304V13H4.53551V12.4759H4.49716C4.45455 12.5668 4.39418 12.657 4.31605 12.7464C4.23935 12.8345 4.1392 12.9077 4.01562 12.9659C3.89347 13.0241 3.74432 13.0533 3.56818 13.0533ZM3.85582 12.331C4.00213 12.331 4.12571 12.2912 4.22656 12.2116C4.32884 12.1307 4.40696 12.0178 4.46094 11.8729C4.51634 11.728 4.54403 11.5582 4.54403 11.3636C4.54403 11.169 4.51705 11 4.46307 10.8565C4.40909 10.7131 4.33097 10.6023 4.22869 10.5241C4.12642 10.446 4.00213 10.407 3.85582 10.407C3.70668 10.407 3.58097 10.4474 3.47869 10.5284C3.37642 10.6094 3.29901 10.7216 3.24645 10.8651C3.19389 11.0085 3.16761 11.1747 3.16761 11.3636C3.16761 11.554 3.19389 11.7223 3.24645 11.8686C3.30043 12.0135 3.37784 12.1271 3.47869 12.2095C3.58097 12.2905 3.70668 12.331 3.85582 12.331ZM7.10991 13.0618C6.9011 13.0618 6.71502 13.0256 6.55167 12.9531C6.38832 12.8793 6.25906 12.7706 6.16388 12.6271C6.07013 12.4822 6.02326 12.3018 6.02326 12.0859C6.02326 11.9041 6.05664 11.7514 6.1234 11.6278C6.19016 11.5043 6.28107 11.4048 6.39613 11.3295C6.51119 11.2543 6.64187 11.1974 6.78817 11.1591C6.9359 11.1207 7.09073 11.0938 7.25266 11.0781C7.443 11.0582 7.59641 11.0398 7.71289 11.0227C7.82937 11.0043 7.91389 10.9773 7.96644 10.9418C8.019 10.9062 8.04528 10.8537 8.04528 10.7841V10.7713C8.04528 10.6364 8.00266 10.532 7.91744 10.4581C7.83363 10.3842 7.71431 10.3473 7.55948 10.3473C7.39613 10.3473 7.26616 10.3835 7.16957 10.456C7.07298 10.527 7.00906 10.6165 6.97781 10.7244L6.13832 10.6562C6.18093 10.4574 6.26474 10.2855 6.38974 10.1406C6.51474 9.99432 6.67596 9.8821 6.8734 9.80398C7.07227 9.72443 7.30238 9.68466 7.56374 9.68466C7.74556 9.68466 7.91957 9.70597 8.08576 9.74858C8.25337 9.79119 8.40181 9.85724 8.53107 9.94673C8.66175 10.0362 8.76474 10.1513 8.84002 10.2919C8.91531 10.4311 8.95295 10.598 8.95295 10.7926V13H8.09215V12.5462H8.06658C8.01403 12.6484 7.94371 12.7386 7.85565 12.8168C7.76758 12.8935 7.66175 12.9538 7.53817 12.9979C7.4146 13.0405 7.27184 13.0618 7.10991 13.0618ZM7.36985 12.4354C7.50337 12.4354 7.62127 12.4091 7.72354 12.3565C7.82582 12.3026 7.90607 12.2301 7.96431 12.1392C8.02255 12.0483 8.05167 11.9453 8.05167 11.8303V11.483C8.02326 11.5014 7.9842 11.5185 7.93448 11.5341C7.88619 11.5483 7.8315 11.5618 7.77042 11.5746C7.70934 11.5859 7.64826 11.5966 7.58718 11.6065C7.5261 11.6151 7.4707 11.6229 7.42099 11.63C7.31445 11.6456 7.22141 11.6705 7.14187 11.7045C7.06232 11.7386 7.00053 11.7848 6.9565 11.843C6.91246 11.8999 6.89045 11.9709 6.89045 12.0561C6.89045 12.1797 6.93519 12.2741 7.02468 12.3395C7.11559 12.4034 7.23065 12.4354 7.36985 12.4354ZM11.3979 9.72727V10.4091H9.42702V9.72727H11.3979ZM9.87447 8.94318H10.7821V11.9943C10.7821 12.0781 10.7949 12.1435 10.8205 12.1903C10.8461 12.2358 10.8816 12.2678 10.927 12.2862C10.9739 12.3047 11.0279 12.3139 11.089 12.3139C11.1316 12.3139 11.1742 12.3104 11.2168 12.3033C11.2594 12.2947 11.2921 12.2884 11.3148 12.2841L11.4576 12.9595C11.4121 12.9737 11.3482 12.9901 11.2658 13.0085C11.1834 13.0284 11.0833 13.0405 10.9654 13.0447C10.7466 13.0533 10.5549 13.0241 10.3901 12.9574C10.2267 12.8906 10.0996 12.7869 10.0087 12.6463C9.91779 12.5057 9.87305 12.3281 9.87447 12.1136V8.94318ZM13.4455 13.0639C13.1088 13.0639 12.8191 12.9957 12.5762 12.8594C12.3347 12.7216 12.1486 12.527 12.0179 12.2756C11.8873 12.0227 11.8219 11.7237 11.8219 11.3786C11.8219 11.0419 11.8873 10.7464 12.0179 10.4922C12.1486 10.2379 12.3326 10.0398 12.5698 9.89773C12.8084 9.75568 13.0882 9.68466 13.4093 9.68466C13.6252 9.68466 13.8262 9.71946 14.0123 9.78906C14.1998 9.85724 14.3631 9.96023 14.5023 10.098C14.6429 10.2358 14.7523 10.4091 14.8304 10.6179C14.9086 10.8253 14.9476 11.0682 14.9476 11.3466V11.5959H12.1841V11.0334H14.0932C14.0932 10.9027 14.0648 10.7869 14.008 10.6861C13.9512 10.5852 13.8723 10.5064 13.7715 10.4496C13.6721 10.3913 13.5563 10.3622 13.4242 10.3622C13.2864 10.3622 13.1642 10.3942 13.0577 10.4581C12.9526 10.5206 12.8702 10.6051 12.8105 10.7116C12.7509 10.8168 12.7203 10.9339 12.7189 11.0632V11.598C12.7189 11.7599 12.7488 11.8999 12.8084 12.0178C12.8695 12.1357 12.9554 12.2266 13.0662 12.2905C13.177 12.3544 13.3084 12.3864 13.4604 12.3864C13.5613 12.3864 13.6536 12.3722 13.7374 12.3438C13.8212 12.3153 13.8929 12.2727 13.9526 12.2159C14.0123 12.1591 14.0577 12.0895 14.089 12.0071L14.9284 12.0625C14.8858 12.2642 14.7985 12.4403 14.6664 12.5909C14.5357 12.7401 14.3667 12.8565 14.1593 12.9403C13.9533 13.0227 13.7154 13.0639 13.4455 13.0639Z" fill="white"/>
<rect y="16" width="17" height="1" rx="0.5" fill="white"/>
<rect y="3" width="17" height="2" fill="white"/>
<rect x="17" y="3" width="14" height="0.999999" rx="0.5" transform="rotate(90 17 3)" fill="white"/>
<rect x="1" y="3" width="14" height="0.999999" rx="0.5" transform="rotate(90 1 3)" fill="white"/>
<rect x="5" width="4" height="2" rx="1" transform="rotate(90 5 0)" fill="white"/>
<rect x="14" width="4" height="2" rx="1" transform="rotate(90 14 0)" fill="white"/>
</svg>
