<svg width="19" height="19" viewBox="0 0 19 19" fill="none" xmlns="http://www.w3.org/2000/svg">
<g clip-path="url(#clip0_1_13913)">
<path d="M18.002 7.1806L16.604 6.8767C16.4825 6.50452 16.3319 6.1415 16.1541 5.7918L16.928 4.58798C17.0663 4.37289 17.0359 4.09049 16.8552 3.90982L14.6773 1.73198C14.4967 1.5513 14.2143 1.52091 13.9992 1.65912L12.7954 2.43304C12.4457 2.25527 12.0826 2.10471 11.7105 1.98315L11.4066 0.58519C11.3523 0.335406 11.1311 0.157227 10.8755 0.157227H7.79566C7.54004 0.157227 7.31885 0.335406 7.26459 0.58519L6.96068 1.98315C6.5885 2.10471 6.22548 2.25527 5.87579 2.43304L4.67197 1.65912C4.45687 1.52091 4.17448 1.5513 3.9938 1.73198L1.81596 3.90982C1.63528 4.09049 1.60489 4.37289 1.74311 4.58798L2.51702 5.7918C2.33926 6.1415 2.18869 6.50452 2.06713 6.8767L0.669174 7.1806C0.41939 7.235 0.241211 7.45606 0.241211 7.71167V10.7915C0.241211 11.0471 0.41939 11.2682 0.669174 11.3226L2.06713 11.6265C2.18869 11.9987 2.33926 12.3617 2.51702 12.7114L1.74311 13.9152C1.60489 14.1303 1.63528 14.4127 1.81596 14.5934L3.9938 16.7712C4.17448 16.9519 4.45687 16.9823 4.67197 16.8441L5.87579 16.0701C6.22548 16.2479 6.5885 16.3985 6.96068 16.52L7.26459 17.918C7.31885 18.1678 7.54004 18.346 7.79566 18.346H10.8755C11.1311 18.346 11.3523 18.1678 11.4066 17.918L11.7105 16.52C12.0826 16.3985 12.4457 16.2479 12.7954 16.0701L13.9992 16.8441C14.2143 16.9823 14.4967 16.952 14.6773 16.7712L16.8552 14.5934C17.0359 14.4127 17.0663 14.1303 16.928 13.9152L16.1541 12.7114C16.3319 12.3617 16.4825 11.9987 16.604 11.6265L18.002 11.3226C18.2518 11.2682 18.4299 11.0471 18.4299 10.7915V7.71167C18.4299 7.45606 18.2518 7.235 18.002 7.1806ZM12.5965 9.25159C12.5965 11.0496 11.1336 12.5125 9.33558 12.5125C7.53755 12.5125 6.07464 11.0496 6.07464 9.25159C6.07464 7.45356 7.53755 5.99066 9.33558 5.99066C11.1336 5.99066 12.5965 7.45356 12.5965 9.25159Z" fill="white"/>
</g>
<defs>
<clipPath id="clip0_1_13913">
<rect width="18.1887" height="18.1887" fill="white" transform="translate(0.241211 0.157227)"/>
</clipPath>
</defs>
</svg>
