<svg width="54" height="32" viewBox="0 0 54 32" fill="none" xmlns="http://www.w3.org/2000/svg">
<g clip-path="url(#clip0_1_15597)">
<path d="M40.8779 26.0801C40.8779 25.7421 40.604 25.4683 40.2661 25.4683L12.612 25.4683C12.2741 25.4683 12.0002 25.7421 12.0002 26.0801C12.0002 26.418 12.2741 26.6919 12.612 26.6919L40.2661 26.6919C40.604 26.6919 40.8779 26.418 40.8779 26.0801Z" fill="white"/>
<path d="M40.8779 7.08008C40.8779 6.74215 40.604 6.46826 40.2661 6.46826L12.612 6.46826C12.2741 6.46826 12.0002 6.74214 12.0002 7.08008C12.0002 7.41801 12.2741 7.6919 12.612 7.6919L40.2661 7.6919C40.604 7.6919 40.8779 7.41801 40.8779 7.08008Z" fill="white"/>
<path d="M40.0277 6.47261C39.9591 7.09194 40.0198 7.71877 40.2061 8.3134C40.3923 8.90802 40.7 9.45749 41.1097 9.92699C41.5194 10.3965 42.0221 10.7758 42.5861 11.0409C43.15 11.3059 43.7628 11.451 44.3857 11.4669L44.4073 10.62C43.9017 10.6071 43.4042 10.4894 42.9464 10.2742C42.4887 10.059 42.0806 9.75112 41.748 9.37001C41.4155 8.98889 41.1657 8.54287 41.0145 8.06018C40.8633 7.57749 40.814 7.06867 40.8697 6.56593L40.0277 6.47261Z" fill="white"/>
<path d="M44.5371 21.4868C43.914 21.4842 43.2972 21.6111 42.7257 21.8594C42.1541 22.1076 41.6404 22.4719 41.217 22.9291C40.7936 23.3862 40.4698 23.9264 40.266 24.5152C40.0622 25.1041 39.983 25.7288 40.0333 26.3499L40.8776 26.2815C40.8368 25.7774 40.9012 25.2702 41.0666 24.7922C41.232 24.3142 41.4949 23.8758 41.8385 23.5047C42.1822 23.1336 42.5993 22.8379 43.0632 22.6364C43.5271 22.4348 44.0278 22.3319 44.5337 22.3339L44.5371 21.4868Z" fill="white"/>
<path d="M13 25.9683C13 25.3773 12.8836 24.7922 12.6575 24.2462C12.4313 23.7002 12.0998 23.2041 11.682 22.7863C11.2641 22.3684 10.768 22.0369 10.2221 21.8108C9.67611 21.5847 9.09095 21.4683 8.5 21.4683L8.5 22.3154C8.9797 22.3154 9.4547 22.4099 9.89789 22.5935C10.3411 22.777 10.7438 23.0461 11.083 23.3853C11.4222 23.7245 11.6912 24.1272 11.8748 24.5704C12.0584 25.0136 12.1529 25.4886 12.1529 25.9683L13 25.9683Z" fill="white"/>
<path d="M8.5 11.4683C9.12312 11.4683 9.73944 11.3389 10.3099 11.0882C10.8804 10.8376 11.3927 10.4712 11.8142 10.0123C12.2357 9.55341 12.5573 9.01196 12.7586 8.42227C12.96 7.83257 13.0366 7.20749 12.9838 6.58662L12.1397 6.65847C12.1826 7.16246 12.1203 7.66986 11.9569 8.14854C11.7935 8.62722 11.5324 9.06674 11.1903 9.43926C10.8481 9.81178 10.4323 10.1092 9.9692 10.3126C9.50611 10.5161 9.00581 10.6211 8.5 10.6211L8.5 11.4683Z" fill="white"/>
<path d="M8.5 10.4683C8.22383 10.4683 8 10.6162 8 10.7987V22.1379C8 22.3204 8.22383 22.4683 8.5 22.4683C8.77617 22.4683 9 22.3204 9 22.1379V10.7987C9 10.6162 8.77617 10.4683 8.5 10.4683Z" fill="white"/>
<path d="M44.5 10.4683C44.2238 10.4683 44 10.6162 44 10.7987V22.1379C44 22.3204 44.2238 22.4683 44.5 22.4683C44.7762 22.4683 45 22.3204 45 22.1379V10.7987C45 10.6162 44.7762 10.4683 44.5 10.4683Z" fill="white"/>
<path d="M17 10.8815L17 22.0552C17 22.8345 17.7807 23.4683 18.7406 23.4683L29.3045 23.4683C29.6433 23.4683 29.9178 23.2454 29.9178 22.9704C29.9178 22.6956 29.6433 22.4726 29.3045 22.4726L18.7406 22.4726C18.4572 22.4726 18.2265 22.2855 18.2265 22.0552L18.2265 10.8815C18.2265 10.6512 18.4572 10.464 18.7406 10.464L34.2594 10.464C34.5428 10.464 34.7735 10.6512 34.7735 10.8815L34.7735 22.0552C34.7735 22.2855 34.5428 22.4726 34.2594 22.4726L34.1987 22.4726C33.86 22.4726 33.5855 22.6956 33.5855 22.9704C33.5855 23.2454 33.86 23.4683 34.1987 23.4683L34.2594 23.4683C35.2193 23.4683 36 22.8345 36 22.0552L36 10.8815C36 10.1022 35.2193 9.46826 34.2594 9.46826L18.7406 9.46826C17.7807 9.46826 17 10.1022 17 10.8815V10.8815Z" fill="white"/>
<path d="M31.778 23.3853C31.9568 23.266 32.0404 23.0384 31.9811 22.8316C31.9242 22.6326 31.7467 22.4876 31.5407 22.47C31.3263 22.4516 31.1191 22.5794 31.0373 22.7778C30.9589 22.9674 31.0066 23.1936 31.1569 23.3341C31.3263 23.4926 31.5849 23.5119 31.778 23.3853Z" fill="white"/>
<path d="M78.8779 26.0801C78.8779 25.7421 78.604 25.4683 78.2661 25.4683L50.612 25.4683C50.2741 25.4683 50.0002 25.7421 50.0002 26.0801C50.0002 26.418 50.2741 26.6919 50.612 26.6919L78.2661 26.6919C78.604 26.6919 78.8779 26.418 78.8779 26.0801Z" fill="white"/>
<path d="M78.8779 7.08008C78.8779 6.74215 78.604 6.46826 78.2661 6.46826L50.612 6.46826C50.2741 6.46826 50.0002 6.74214 50.0002 7.08008C50.0002 7.41801 50.2741 7.6919 50.612 7.6919L78.2661 7.6919C78.604 7.6919 78.8779 7.41801 78.8779 7.08008Z" fill="white"/>
<path d="M51 25.9683C51 25.3773 50.8836 24.7922 50.6575 24.2462C50.4313 23.7002 50.0998 23.2041 49.682 22.7863C49.2641 22.3684 48.768 22.0369 48.2221 21.8108C47.6761 21.5847 47.0909 21.4683 46.5 21.4683L46.5 22.3154C46.9797 22.3154 47.4547 22.4099 47.8979 22.5935C48.3411 22.777 48.7438 23.0461 49.083 23.3853C49.4222 23.7245 49.6912 24.1272 49.8748 24.5704C50.0584 25.0136 50.1529 25.4886 50.1529 25.9683L51 25.9683Z" fill="white"/>
<path d="M46.5 11.4683C47.1231 11.4683 47.7394 11.3389 48.3099 11.0882C48.8804 10.8376 49.3927 10.4712 49.8142 10.0123C50.2357 9.55341 50.5573 9.01196 50.7586 8.42227C50.96 7.83257 51.0366 7.20749 50.9838 6.58662L50.1397 6.65847C50.1826 7.16246 50.1203 7.66986 49.9569 8.14854C49.7935 8.62722 49.5324 9.06674 49.1903 9.43926C48.8481 9.81178 48.4323 10.1092 47.9692 10.3126C47.5061 10.5161 47.0058 10.6211 46.5 10.6211L46.5 11.4683Z" fill="white"/>
<path d="M46.5 10.4683C46.2238 10.4683 46 10.6162 46 10.7987V22.1379C46 22.3204 46.2238 22.4683 46.5 22.4683C46.7762 22.4683 47 22.3204 47 22.1379V10.7987C47 10.6162 46.7762 10.4683 46.5 10.4683Z" fill="white"/>
<path d="M2.87793 26.0801C2.87793 25.7421 2.60405 25.4683 2.26611 25.4683L-25.388 25.4683C-25.7259 25.4683 -25.9998 25.7421 -25.9998 26.0801C-25.9998 26.418 -25.7259 26.6919 -25.388 26.6919L2.26611 26.6919C2.60405 26.6919 2.87793 26.418 2.87793 26.0801Z" fill="white"/>
<path d="M2.87793 7.08008C2.87793 6.74215 2.60405 6.46826 2.26611 6.46826L-25.388 6.46826C-25.7259 6.46826 -25.9998 6.74214 -25.9998 7.08008C-25.9998 7.41801 -25.7259 7.6919 -25.388 7.6919L2.26611 7.6919C2.60405 7.6919 2.87793 7.41801 2.87793 7.08008Z" fill="white"/>
<path d="M2.02773 6.47261C1.95909 7.09194 2.01982 7.71877 2.20607 8.3134C2.39232 8.90802 2.70004 9.45749 3.10973 9.92699C3.51941 10.3965 4.02214 10.7758 4.58607 11.0409C5.14999 11.3059 5.76282 11.451 6.38574 11.4669L6.40731 10.62C5.90166 10.6071 5.4042 10.4894 4.94644 10.2742C4.48868 10.059 4.08059 9.75112 3.74803 9.37001C3.41547 8.98889 3.16568 8.54287 3.01449 8.06018C2.8633 7.57749 2.814 7.06867 2.86972 6.56593L2.02773 6.47261Z" fill="white"/>
<path d="M6.53715 21.4868C5.91404 21.4842 5.29718 21.6111 4.72566 21.8594C4.15414 22.1076 3.64041 22.4719 3.21701 22.9291C2.7936 23.3862 2.46976 23.9264 2.266 24.5152C2.06223 25.1041 1.98298 25.7288 2.03326 26.3499L2.87765 26.2815C2.83683 25.7774 2.90116 25.2702 3.06657 24.7922C3.23197 24.3142 3.49485 23.8758 3.83854 23.5047C4.18224 23.1336 4.59926 22.8379 5.06319 22.6364C5.52712 22.4348 6.02785 22.3319 6.53365 22.3339L6.53715 21.4868Z" fill="white"/>
<path d="M6.5 10.4683C6.22383 10.4683 6 10.6162 6 10.7987V22.1379C6 22.3204 6.22383 22.4683 6.5 22.4683C6.77617 22.4683 7 22.3204 7 22.1379V10.7987C7 10.6162 6.77617 10.4683 6.5 10.4683Z" fill="white"/>
<path d="M30.1171 17.5556L32.5613 15.7166C32.9388 15.4325 33.0901 14.951 32.9466 14.4899C32.8031 14.0288 32.4093 13.7308 31.9434 13.7308H28.9265L28.0033 10.7595C27.8599 10.2981 27.4661 10 27 10C26.5339 10 26.1401 10.2981 25.9967 10.7595L25.0735 13.7308H22.0566C21.5907 13.7308 21.1969 14.0288 21.0534 14.4899C20.9099 14.951 21.0612 15.4325 21.4387 15.7165L23.8829 17.5556L22.9474 20.5288C22.7741 21.0798 23.0315 21.5635 23.3949 21.8021V22.7461C23.3949 22.8863 23.5042 23 23.639 23H25.9018C26.0365 23 26.1458 22.8863 26.1458 22.7461C26.1458 22.6059 26.0365 22.4922 25.9018 22.4922H23.883V21.7008C23.883 20.9343 24.4825 20.3106 25.2193 20.3106H26.1445L26.7779 21.7578C26.8175 21.8484 26.9044 21.9065 27 21.9065C27.0957 21.9065 27.1825 21.8484 27.2221 21.7578L27.8555 20.3106H28.7807C29.5175 20.3106 30.117 20.9343 30.117 21.7008V22.4922H28.0983C27.9635 22.4922 27.8542 22.6059 27.8542 22.7461C27.8542 22.8863 27.9635 23 28.0983 23H30.3611C30.4959 23 30.6051 22.8863 30.6051 22.7461V21.8021C30.9685 21.5635 31.226 21.0798 31.0526 20.5288L30.1171 17.5556ZM25.8472 17.4588H27.5378C27.7596 17.4588 27.9687 17.4018 28.1528 17.3017V17.8714C28.1528 18.6468 27.668 19.2095 27 19.2095C26.3644 19.2095 25.8472 18.6715 25.8472 18.0102V17.4588H25.8472ZM28.3824 16.0723C28.3824 16.5568 28.0035 16.951 27.5378 16.951H25.8472V16.5726C25.8472 16.0881 26.2261 15.6939 26.6917 15.6939H28.3824V16.0723ZM27 21.0399L26.5456 20.0017V19.6503C26.69 19.6936 26.8424 19.7174 27 19.7174C27.159 19.7174 27.3111 19.694 27.4544 19.6507V20.0017L27 21.0399ZM30.5347 21.1798C30.3164 20.3858 29.613 19.8028 28.7807 19.8028H27.9425V19.4011C28.3704 19.0749 28.6409 18.5228 28.6409 17.8714V16.8493C28.7857 16.6275 28.8704 16.36 28.8704 16.0723V15.44C28.8704 15.2998 28.7612 15.1861 28.6264 15.1861H26.6917C25.9569 15.1861 25.3591 15.8081 25.3591 16.5725V18.0102C25.3591 18.5868 25.6355 19.0971 26.0575 19.4063V19.8028H25.2193C24.387 19.8028 23.6836 20.3858 23.4653 21.1797C23.3839 21.0464 23.352 20.8752 23.4113 20.6867L24.4022 17.5374C24.4352 17.4325 24.3993 17.3173 24.3133 17.2527L21.7247 15.3051C21.4787 15.1199 21.4565 14.8434 21.5178 14.6463C21.5791 14.4492 21.7529 14.2386 22.0566 14.2386H25.2511C25.357 14.2386 25.4508 14.1676 25.4834 14.0628L26.4612 10.9158C26.5547 10.615 26.8008 10.5078 27 10.5078C27.1992 10.5078 27.4454 10.615 27.5388 10.9157L28.5166 14.0628C28.5492 14.1676 28.643 14.2386 28.7489 14.2386H31.9435C32.2471 14.2386 32.4209 14.4492 32.4822 14.6463C32.5435 14.8434 32.5214 15.1199 32.2753 15.3051L29.6867 17.2527C29.6007 17.3174 29.5648 17.4325 29.5978 17.5374L30.5887 20.6867C30.648 20.8752 30.6161 21.0464 30.5347 21.1798Z" fill="white"/>
</g>
<defs>
<clipPath id="clip0_1_15597">
<rect width="32" height="54" fill="white" transform="translate(54) rotate(90)"/>
</clipPath>
</defs>
</svg>
