<svg width="172" height="50" viewBox="0 0 172 50" fill="none" xmlns="http://www.w3.org/2000/svg">
<path d="M42.793 9.19629C42.793 7.21897 41.1843 5.61035 39.207 5.61035C37.2297 5.61035 35.6211 7.21897 35.6211 9.19629C35.6211 11.1736 37.2297 12.7822 39.207 12.7822C41.1843 12.7822 42.793 11.1736 42.793 9.19629ZM36.9492 9.19629C36.9492 7.9513 37.962 6.93848 39.207 6.93848C40.452 6.93848 41.4648 7.9513 41.4648 9.19629C41.4648 10.4413 40.452 11.4541 39.207 11.4541C37.962 11.4541 36.9492 10.4413 36.9492 9.19629Z" fill="white"/>
<path d="M33.4137 17.7828C34.267 17.348 34.8998 16.607 35.1958 15.6963C35.4917 14.7855 35.4153 13.814 34.9805 12.9608C34.5458 12.1076 33.8047 11.4747 32.894 11.1788C31.9832 10.8828 31.0117 10.9593 30.1586 11.394C29.3053 11.8288 28.6725 12.5698 28.3765 13.4805C28.0806 14.3913 28.157 15.3628 28.5918 16.216C29.0265 17.0692 29.7676 17.7021 30.6783 17.9981C31.043 18.1165 31.4173 18.1753 31.7899 18.1753C32.3479 18.1754 32.9021 18.0435 33.4137 17.7828ZM31.0886 16.735C30.5153 16.5487 30.0488 16.1502 29.7751 15.6131C29.5013 15.0759 29.4532 14.4643 29.6395 13.891C29.8258 13.3176 30.2242 12.8511 30.7614 12.5774C31.0835 12.4132 31.4324 12.3302 31.7837 12.3302C32.0183 12.3302 32.254 12.3673 32.4836 12.4419C33.0569 12.6281 33.5234 13.0266 33.7972 13.5637C34.0709 14.1009 34.119 14.7125 33.9327 15.2858C33.7464 15.8592 33.348 16.3257 32.8108 16.5994C32.2736 16.8731 31.662 16.9212 31.0886 16.735Z" fill="white"/>
<path d="M32.512 26.214C33.1471 26.6754 33.8842 26.8976 34.6148 26.8976C35.7246 26.8976 36.8198 26.3852 37.5205 25.4207C38.0835 24.6458 38.311 23.6982 38.1611 22.7521C38.0113 21.8061 37.5021 20.9751 36.7272 20.4122C35.9523 19.8493 35.0047 19.6216 34.0586 19.7716C33.1125 19.9214 32.2815 20.4306 31.7186 21.2055C30.5566 22.805 30.9124 25.0519 32.512 26.214ZM32.7932 21.9861C33.1476 21.4983 33.6708 21.1776 34.2664 21.0833C34.386 21.0644 34.5056 21.055 34.6244 21.055C35.0972 21.055 35.5567 21.2034 35.9466 21.4867C36.9537 22.2184 37.1778 23.633 36.4461 24.6401C35.7143 25.6472 34.2997 25.8713 33.2926 25.1396C32.2855 24.4078 32.0615 22.9932 32.7932 21.9861Z" fill="white"/>
<path d="M43.7983 26.8975C44.529 26.8975 45.2663 26.6753 45.9012 26.214C47.5008 25.0518 47.8566 22.8049 46.6945 21.2054C46.1315 20.4306 45.3005 19.9213 44.3546 19.7715C43.4086 19.6217 42.4609 19.8492 41.686 20.4121C40.9111 20.9751 40.4019 21.8061 40.252 22.7521C40.1021 23.698 40.3297 24.6458 40.8926 25.4207C41.5935 26.3853 42.6884 26.8975 43.7983 26.8975ZM42.4666 21.4866C42.9544 21.1322 43.5509 20.9888 44.1467 21.0832C44.7423 21.1776 45.2655 21.4982 45.62 21.9861C46.3517 22.9932 46.1276 24.4078 45.1205 25.1395C44.1134 25.8713 42.6987 25.6472 41.9671 24.6401C41.2354 23.633 41.4595 22.2183 42.4666 21.4866Z" fill="white"/>
<path d="M45.522 11.1786C44.6112 11.4746 43.8702 12.1075 43.4355 12.9607C43.0008 13.814 42.9243 14.7854 43.2202 15.6962C43.5162 16.607 44.1491 17.348 45.0023 17.7827C45.514 18.0434 46.0681 18.1753 46.6261 18.1753C46.9988 18.1753 47.3732 18.1164 47.7378 17.998C48.6486 17.7021 49.3896 17.0692 49.8243 16.216C50.259 15.3627 50.3355 14.3913 50.0396 13.4805C49.7436 12.5697 49.1107 11.8287 48.2575 11.394C47.4043 10.9592 46.4328 10.8829 45.522 11.1786ZM47.6546 12.5774C48.1917 12.8511 48.5902 13.3175 48.7764 13.8909C48.9628 14.4643 48.9146 15.0759 48.6409 15.6131C48.3672 16.1502 47.9007 16.5487 47.3273 16.7349C46.7539 16.9212 46.1424 16.8731 45.6052 16.5994C45.0681 16.3257 44.6696 15.8592 44.4833 15.2858C44.297 14.7125 44.3452 14.1009 44.6189 13.5637C44.8926 13.0265 45.359 12.6281 45.9325 12.4418C46.162 12.3672 46.3977 12.3302 46.6323 12.3302C46.9836 12.3302 47.3324 12.4132 47.6546 12.5774Z" fill="white"/>
<path d="M41.4841 16.9999C41.4841 15.7442 40.4626 14.7227 39.2069 14.7227C37.9512 14.7227 36.9297 15.7442 36.9297 16.9999C36.9297 18.2555 37.9512 19.2771 39.2069 19.2771C40.4626 19.2771 41.4841 18.2555 41.4841 16.9999ZM38.2578 16.9999C38.2578 16.4765 38.6835 16.0508 39.2069 16.0508C39.7302 16.0508 40.156 16.4765 40.156 16.9999C40.156 17.5232 39.7302 17.9489 39.2069 17.9489C38.6835 17.9489 38.2578 17.5232 38.2578 16.9999Z" fill="white"/>
<path d="M57.8055 29.3353C57.0546 28.5844 56.0562 28.1709 54.9943 28.1709C53.9324 28.1709 52.934 28.5844 52.1831 29.3353C51.1876 30.3307 49.8642 30.8789 48.4565 30.8789H45.4404C47.1027 30.1315 48.6326 29.0804 49.96 27.753C52.8323 24.8808 54.4141 21.0619 54.4141 17C54.4141 14.029 53.557 11.1506 51.9356 8.67604C51.7346 8.36925 51.3229 8.28352 51.0162 8.48453C50.7094 8.68554 50.6237 9.09719 50.8247 9.40392C52.304 11.6616 53.0859 14.2883 53.0859 17C53.0859 24.6529 46.8599 30.8789 39.207 30.8789C31.5542 30.8789 25.3281 24.6529 25.3281 17C25.3281 9.34714 31.5542 3.12109 39.207 3.12109C41.9233 3.12109 44.5538 3.90548 46.814 5.38953C47.1205 5.59088 47.5322 5.50554 47.7336 5.19888C47.9349 4.89228 47.8495 4.48063 47.5429 4.27929C45.0656 2.65273 42.183 1.79297 39.207 1.79297C35.1451 1.79297 31.3263 3.37477 28.4541 6.24704C25.5819 9.1193 24 12.9381 24 17C24 21.0619 25.5818 24.8808 28.4541 27.753C31.3263 30.6252 35.1451 32.207 39.207 32.207H48.4565C50.219 32.207 51.8759 31.5207 53.1222 30.2744C53.6222 29.7744 54.2871 29.4989 54.9943 29.4989C55.7014 29.4989 56.3663 29.7743 56.8663 30.2744C57.1256 30.5337 57.5461 30.5337 57.8055 30.2744C58.0648 30.0151 58.0648 29.5946 57.8055 29.3353Z" fill="white"/>
<path d="M49.4961 7.38508C49.6707 7.38508 49.8421 7.31469 49.9656 7.19117C50.0891 7.06699 50.1602 6.89633 50.1602 6.72168C50.1602 6.54637 50.0891 6.3757 49.9656 6.25152C49.8421 6.12801 49.6707 6.05762 49.4961 6.05762C49.3214 6.05762 49.1501 6.12801 49.0266 6.25152C48.9031 6.3757 48.832 6.54637 48.832 6.72168C48.832 6.89633 48.9031 7.06766 49.0266 7.19117C49.1501 7.31469 49.3214 7.38508 49.4961 7.38508Z" fill="white"/>
<path d="M29.775 40.05C29.6417 40.5333 29.4333 40.9083 29.15 41.175C28.8667 41.425 28.5583 41.6167 28.225 41.75C27.8917 41.8667 27.55 41.9417 27.2 41.975C26.8667 41.9917 26.5917 42 26.375 42H22C21.4167 42 20.975 41.9417 20.675 41.825C20.375 41.7083 20.1667 41.55 20.05 41.35C19.95 41.1333 19.9167 40.8917 19.95 40.625C20 40.3417 20.0833 40.0417 20.2 39.725L22.225 34.45L16.175 41.1C15.7417 41.5667 15.325 41.875 14.925 42.025C14.5417 42.175 14.0917 42.2167 13.575 42.15C13.1917 42.1 12.8917 42 12.675 41.85C12.475 41.7 12.3333 41.5167 12.25 41.3C12.1833 41.0667 12.1667 40.8167 12.2 40.55C12.2333 40.2667 12.3 39.9917 12.4 39.725L15.4 31.975L7.875 41.075C7.85833 41.0917 7.78333 41.175 7.65 41.325C7.51667 41.4583 7.275 41.6083 6.925 41.775C6.575 41.925 6.15 42 5.65 42H3.175L8.1 27.9H1.325L3.175 24.825H11.325C11.625 24.825 11.9 24.8583 12.15 24.925C12.4 24.975 12.6 25.0917 12.75 25.275C12.9 25.4417 12.9833 25.6833 13 26C13.0167 26.3 12.9417 26.7 12.775 27.2L10.15 34.775L15.4 28.825C15.6667 28.525 15.9167 28.25 16.15 28C16.4 27.7333 16.6667 27.5167 16.95 27.35C17.2333 27.1667 17.55 27.025 17.9 26.925C18.2667 26.825 18.7167 26.775 19.25 26.775C19.3167 26.775 19.4583 26.8083 19.675 26.875C19.9083 26.925 20.125 27.05 20.325 27.25C20.525 27.45 20.6583 27.7333 20.725 28.1C20.8083 28.4667 20.7333 28.9583 20.5 29.575L18.125 35.725L22.825 31C23.1083 30.7167 23.35 30.475 23.55 30.275C23.75 30.075 23.95 29.9167 24.15 29.8C24.3667 29.6833 24.6 29.6 24.85 29.55C25.1 29.5 25.4167 29.475 25.8 29.475C25.8667 29.475 26.0167 29.5083 26.25 29.575C26.5 29.6417 26.7333 29.7833 26.95 30C27.1667 30.2 27.3167 30.4917 27.4 30.875C27.5 31.2417 27.4333 31.7333 27.2 32.35L24.275 40.05H29.775ZM50.5781 33.7C50.5781 33.7 50.5448 33.8 50.4781 34C50.4281 34.2 50.3031 34.425 50.1031 34.675C49.9031 34.925 49.6031 35.15 49.2031 35.35C48.8198 35.55 48.3031 35.65 47.6531 35.65H40.0031C40.1531 35.75 40.2865 35.8917 40.4031 36.075C40.5198 36.2583 40.6115 36.4583 40.6781 36.675C40.7615 36.875 40.8198 37.0833 40.8531 37.3C40.8865 37.5167 40.8948 37.7083 40.8781 37.875C40.8281 38.575 40.6448 39.1917 40.3281 39.725C40.0115 40.2583 39.5948 40.7083 39.0781 41.075C38.5781 41.4417 37.9781 41.725 37.2781 41.925C36.5948 42.1083 35.8531 42.2 35.0531 42.2C33.9198 42.2 32.9615 42.075 32.1781 41.825C31.4115 41.575 30.7948 41.2417 30.3281 40.825C29.8781 40.4083 29.5698 39.9333 29.4031 39.4C29.2365 38.85 29.2031 38.2833 29.3031 37.7C29.5031 36.5 30.1031 35.5333 31.1031 34.8C32.1198 34.0667 33.5615 33.7 35.4281 33.7H50.5781ZM37.2781 35.65H34.4781L33.3781 38.775C33.2281 39.225 33.2615 39.5583 33.4781 39.775C33.6948 39.975 33.9615 40.1167 34.2781 40.2C34.6115 40.2667 34.9198 40.3 35.2031 40.3C35.5031 40.2833 35.6531 40.275 35.6531 40.275L37.2781 35.65ZM69.866 33.7C69.7493 34.1 69.5577 34.4333 69.291 34.7C69.041 34.95 68.766 35.15 68.466 35.3C68.166 35.4333 67.866 35.525 67.566 35.575C67.266 35.625 67.016 35.65 66.816 35.65H61.691L56.516 42H51.641L51.116 33.7H55.541L55.616 39.7L60.191 33.7H69.866ZM76.5814 28.7C76.5814 29.1 76.4981 29.4833 76.3314 29.85C76.1648 30.2 75.9314 30.5083 75.6314 30.775C75.3481 31.0417 75.0064 31.25 74.6064 31.4C74.2231 31.55 73.8064 31.625 73.3564 31.625C72.9064 31.625 72.4814 31.55 72.0814 31.4C71.6981 31.25 71.3564 31.0417 71.0564 30.775C70.7564 30.5083 70.5231 30.2 70.3564 29.85C70.1898 29.4833 70.1064 29.1 70.1064 28.7C70.1064 28.3 70.1898 27.925 70.3564 27.575C70.5231 27.2083 70.7564 26.8917 71.0564 26.625C71.3564 26.3583 71.6981 26.15 72.0814 26C72.4814 25.85 72.9064 25.775 73.3564 25.775C73.8064 25.775 74.2231 25.85 74.6064 26C75.0064 26.15 75.3481 26.3583 75.6314 26.625C75.9314 26.8917 76.1648 27.2083 76.3314 27.575C76.4981 27.925 76.5814 28.3 76.5814 28.7ZM77.4564 40.05C77.3398 40.45 77.1564 40.7833 76.9064 41.05C76.6731 41.3 76.4148 41.5 76.1314 41.65C75.8648 41.7833 75.5898 41.875 75.3064 41.925C75.0231 41.975 74.7814 42 74.5814 42H69.7564C69.0898 42 68.5981 41.8 68.2814 41.4C67.9481 40.9833 67.9148 40.4 68.1814 39.65L70.3064 33.7H74.7314L72.4814 40.05H77.4564ZM92.6088 40.05C92.5088 40.3833 92.3505 40.675 92.1338 40.925C91.9338 41.1583 91.6921 41.3583 91.4088 41.525C91.1421 41.6917 90.8421 41.8167 90.5088 41.9C90.1921 41.9667 89.8755 42 89.5588 42H82.7588C82.1588 42 81.5088 41.9583 80.8088 41.875C80.1255 41.7917 79.4838 41.625 78.8838 41.375C78.3005 41.125 77.8171 40.7667 77.4338 40.3C77.0338 39.8333 76.8338 39.2083 76.8338 38.425C76.8338 37.6083 77.0255 36.9 77.4088 36.3C77.7755 35.7 78.2588 35.2083 78.8588 34.825C79.4588 34.4417 80.1255 34.1583 80.8588 33.975C81.5921 33.7917 82.3088 33.7 83.0088 33.7H84.7838C85.1671 33.7 85.6005 33.7333 86.0838 33.8C86.5838 33.8667 87.0505 33.9917 87.4838 34.175C87.9338 34.3583 88.3088 34.6083 88.6088 34.925C88.9255 35.225 89.1005 35.6167 89.1338 36.1C89.1671 36.6 89.0588 37.0333 88.8088 37.4C88.5588 37.75 88.2505 38.0417 87.8838 38.275H83.8338L85.1588 35.65H82.5838L81.5838 38.6C81.4838 38.9 81.4671 39.15 81.5338 39.35C81.6171 39.5333 81.7421 39.6833 81.9088 39.8C82.0755 39.9 82.2671 39.9667 82.4838 40C82.7005 40.0333 82.9005 40.05 83.0838 40.05H92.6088Z" fill="#F3BF0B"/>
<path d="M121.734 33.7C121.551 34.2833 121.293 34.7583 120.959 35.125C120.626 35.475 120.126 35.65 119.459 35.65H111.934C111.951 35.7 111.959 35.7917 111.959 35.925V36.175C111.959 37.4083 111.618 38.575 110.934 39.675C110.268 40.775 109.409 41.7417 108.359 42.575C107.309 43.4083 106.159 44.0667 104.909 44.55C103.659 45.05 102.459 45.3 101.309 45.3C100.743 45.3 100.226 45.2167 99.7594 45.05C99.2927 44.8833 98.901 44.6417 98.5844 44.325C98.251 44.025 98.001 43.65 97.8344 43.2C97.6677 42.7667 97.601 42.2667 97.6344 41.7C97.701 40.5333 98.0177 39.4917 98.5844 38.575C99.151 37.6417 99.851 36.85 100.684 36.2C101.534 35.5333 102.468 35 103.484 34.6C104.518 34.2 105.534 33.9333 106.534 33.8C106.301 33.3167 106.001 32.8833 105.634 32.5C105.284 32.1167 104.893 31.7583 104.459 31.425L111.209 27.9H102.034L103.884 24.825H116.584C116.601 25.725 116.484 26.4833 116.234 27.1C115.984 27.7167 115.451 28.2417 114.634 28.675C113.001 29.575 111.359 30.4583 109.709 31.325C110.109 31.6417 110.459 32 110.759 32.4C111.076 32.7833 111.318 33.2167 111.484 33.7H121.734ZM107.584 36.075C107.568 36.025 107.551 35.9667 107.534 35.9C107.518 35.8167 107.468 35.7333 107.384 35.65C107.018 35.7 106.626 35.8167 106.209 36C105.793 36.1667 105.384 36.3833 104.984 36.65C104.584 36.9 104.209 37.175 103.859 37.475C103.509 37.775 103.226 38.075 103.009 38.375C102.826 38.625 102.618 38.9083 102.384 39.225C102.168 39.5417 101.968 39.875 101.784 40.225C101.601 40.575 101.443 40.9333 101.309 41.3C101.193 41.65 101.134 41.9833 101.134 42.3C101.134 42.6167 101.209 42.875 101.359 43.075C101.509 43.275 101.751 43.375 102.084 43.375C102.501 43.375 102.934 43.2667 103.384 43.05C103.834 42.8333 104.276 42.5333 104.709 42.15C105.159 41.7833 105.576 41.3583 105.959 40.875C106.343 40.3917 106.668 39.8833 106.934 39.35C107.201 38.8 107.393 38.25 107.509 37.7C107.643 37.1333 107.668 36.5917 107.584 36.075ZM140.861 33.7C140.861 33.7 140.828 33.8 140.761 34C140.711 34.2 140.586 34.425 140.386 34.675C140.186 34.925 139.886 35.15 139.486 35.35C139.103 35.55 138.586 35.65 137.936 35.65H130.286C130.436 35.75 130.57 35.8917 130.686 36.075C130.803 36.2583 130.895 36.4583 130.961 36.675C131.045 36.875 131.103 37.0833 131.136 37.3C131.17 37.5167 131.178 37.7083 131.161 37.875C131.111 38.575 130.928 39.1917 130.611 39.725C130.295 40.2583 129.878 40.7083 129.361 41.075C128.861 41.4417 128.261 41.725 127.561 41.925C126.878 42.1083 126.136 42.2 125.336 42.2C124.203 42.2 123.245 42.075 122.461 41.825C121.695 41.575 121.078 41.2417 120.611 40.825C120.161 40.4083 119.853 39.9333 119.686 39.4C119.52 38.85 119.486 38.2833 119.586 37.7C119.786 36.5 120.386 35.5333 121.386 34.8C122.403 34.0667 123.845 33.7 125.711 33.7H140.861ZM127.561 35.65H124.761L123.661 38.775C123.511 39.225 123.545 39.5583 123.761 39.775C123.978 39.975 124.245 40.1167 124.561 40.2C124.895 40.2667 125.203 40.3 125.486 40.3C125.786 40.2833 125.936 40.275 125.936 40.275L127.561 35.65ZM155.853 40.05C155.736 40.45 155.544 40.7833 155.278 41.05C155.028 41.3 154.753 41.5 154.453 41.65C154.153 41.7833 153.853 41.875 153.553 41.925C153.253 41.975 153.003 42 152.803 42H147.928C147.161 42 146.661 41.8417 146.428 41.525C146.194 41.1917 146.194 40.7 146.428 40.05L147.353 37.425L143.153 40.975C143.153 40.975 143.069 41.0333 142.903 41.15C142.753 41.25 142.561 41.3667 142.328 41.5C142.094 41.6167 141.828 41.7333 141.528 41.85C141.244 41.95 140.978 42 140.728 42H138.478L141.403 33.7H145.803L144.428 37.6L148.153 34.55C148.586 34.2 149.053 33.9083 149.553 33.675C150.053 33.4417 150.678 33.3417 151.428 33.375C151.628 33.375 151.819 33.425 152.003 33.525C152.186 33.6083 152.336 33.7417 152.453 33.925C152.569 34.1083 152.628 34.3417 152.628 34.625C152.644 34.9083 152.578 35.25 152.428 35.65L150.853 40.05H155.853ZM171.198 40.05C171.098 40.3833 170.939 40.675 170.723 40.925C170.523 41.1583 170.281 41.3583 169.998 41.525C169.731 41.6917 169.431 41.8167 169.098 41.9C168.781 41.9667 168.464 42 168.148 42H161.348C160.748 42 160.098 41.9583 159.398 41.875C158.714 41.7917 158.073 41.625 157.473 41.375C156.889 41.125 156.406 40.7667 156.023 40.3C155.623 39.8333 155.423 39.2083 155.423 38.425C155.423 37.6083 155.614 36.9 155.998 36.3C156.364 35.7 156.848 35.2083 157.448 34.825C158.048 34.4417 158.714 34.1583 159.448 33.975C160.181 33.7917 160.898 33.7 161.598 33.7H163.373C163.756 33.7 164.189 33.7333 164.673 33.8C165.173 33.8667 165.639 33.9917 166.073 34.175C166.523 34.3583 166.898 34.6083 167.198 34.925C167.514 35.225 167.689 35.6167 167.723 36.1C167.756 36.6 167.648 37.0333 167.398 37.4C167.148 37.75 166.839 38.0417 166.473 38.275H162.423L163.748 35.65H161.173L160.173 38.6C160.073 38.9 160.056 39.15 160.123 39.35C160.206 39.5333 160.331 39.6833 160.498 39.8C160.664 39.9 160.856 39.9667 161.073 40C161.289 40.0333 161.489 40.05 161.673 40.05H171.198Z" fill="white"/>
</svg>
