<svg width="162" height="162" viewBox="0 0 162 162" fill="none" xmlns="http://www.w3.org/2000/svg">
<path d="M65 81C65 89.8226 72.1774 97 81 97C89.8226 97 97 89.8226 97 81C97 72.1774 89.8226 65 81 65C72.1774 65 65 72.1774 65 81ZM87.6684 81C87.6684 84.6771 84.6771 87.6684 81 87.6684C77.3229 87.6684 74.3316 84.6771 74.3316 81C74.3316 77.3229 77.3229 74.3316 81 74.3316C84.6771 74.3316 87.6684 77.3229 87.6684 81V81Z" fill="white"/>
<path d="M88.4128 47.8145C94.5067 45.8341 99.4649 41.5997 102.373 35.8906C105.282 30.1815 105.794 23.6814 103.814 17.5875C101.834 11.4936 97.5992 6.53539 91.8901 3.62684C88.4666 1.88242 84.7592 0.999997 81.0251 0.999997C78.532 0.999997 76.0265 1.39366 73.5871 2.18589C67.4933 4.16624 62.5351 8.40066 59.6265 14.1098C56.7176 19.8189 56.2062 26.3189 58.1861 32.4128C60.1664 38.5068 64.4008 43.465 70.1099 46.3735C75.8185 49.2825 82.319 49.7935 88.4128 47.8145V47.8145ZM74.1439 38.4557C70.5498 36.6242 67.8838 33.5032 66.6375 29.6665C65.3907 25.8302 65.7129 21.738 67.5444 18.1438C69.3759 14.5497 72.4968 11.8837 76.3335 10.6374C80.1702 9.39106 84.262 9.71275 87.8561 11.5443C91.4502 13.3758 94.1162 16.4967 95.3625 20.3334C96.6093 24.1697 96.2871 28.262 94.4556 31.8561C92.6241 35.4503 89.5032 38.1162 85.6665 39.3625C84.1305 39.862 82.5536 40.1094 80.9838 40.1094C78.6333 40.1094 76.2993 39.554 74.1439 38.4557Z" fill="white"/>
<path d="M55.4128 148.814C61.5067 146.834 66.4649 142.6 69.3735 136.891C72.2824 131.181 72.7939 124.681 70.814 118.588C68.8336 112.494 64.5992 107.535 58.8901 104.627C55.4666 102.882 51.7592 102 48.0251 102C45.532 102 43.0265 102.394 40.5871 103.186C34.4933 105.166 29.5351 109.401 26.6265 115.11C23.7176 120.819 23.2062 127.319 25.1861 133.413C27.1664 139.507 31.4008 144.465 37.1099 147.374C42.8185 150.283 49.319 150.794 55.4128 148.814V148.814ZM41.1439 139.456C37.5498 137.624 34.8838 134.503 33.6375 130.666C32.3907 126.83 32.7129 122.738 34.5444 119.144C36.3759 115.55 39.4968 112.884 43.3335 111.637C47.1702 110.391 51.262 110.713 54.8561 112.544C58.4502 114.376 61.1162 117.497 62.3625 121.333C63.6093 125.17 63.2871 129.262 61.4556 132.856C59.6241 136.45 56.5032 139.116 52.6665 140.363C51.1305 140.862 49.5536 141.109 47.9838 141.109C45.6333 141.109 43.2993 140.554 41.1439 139.456Z" fill="white"/>
<path d="M121.413 148.814C127.507 146.834 132.465 142.6 135.373 136.891C138.282 131.181 138.794 124.681 136.814 118.588C134.834 112.494 130.599 107.535 124.89 104.627C121.467 102.882 117.759 102 114.025 102C111.532 102 109.026 102.394 106.587 103.186C100.493 105.166 95.5351 109.401 92.6265 115.11C89.7176 120.819 89.2062 127.319 91.1861 133.413C93.1664 139.507 97.4008 144.465 103.11 147.374C108.819 150.283 115.319 150.794 121.413 148.814V148.814ZM107.144 139.456C103.55 137.624 100.884 134.503 99.6375 130.666C98.3907 126.83 98.7129 122.738 100.544 119.144C102.376 115.55 105.497 112.884 109.334 111.637C113.17 110.391 117.262 110.713 120.856 112.544C124.45 114.376 127.116 117.497 128.363 121.333C129.609 125.17 129.287 129.262 127.456 132.856C125.624 136.45 122.503 139.116 118.666 140.363C117.13 140.862 115.554 141.109 113.984 141.109C111.633 141.109 109.299 140.554 107.144 139.456Z" fill="white"/>
<path d="M141.413 86.8145C147.507 84.8341 152.465 80.5997 155.373 74.8906C158.282 69.1815 158.794 62.6814 156.814 56.5875C154.834 50.4936 150.599 45.5354 144.89 42.6268C141.467 40.8824 137.759 40 134.025 40C131.532 40 129.026 40.3937 126.587 41.1859C120.493 43.1662 115.535 47.4007 112.627 53.1098C109.718 58.8189 109.206 65.3189 111.186 71.4128C113.166 77.5068 117.401 82.465 123.11 85.3735C128.819 88.2825 135.319 88.7935 141.413 86.8145V86.8145ZM127.144 77.4557C123.55 75.6242 120.884 72.5032 119.638 68.6665C118.391 64.8302 118.713 60.738 120.544 57.1438C122.376 53.5497 125.497 50.8837 129.334 49.6374C133.17 48.3911 137.262 48.7128 140.856 50.5443C144.45 52.3758 147.116 55.4967 148.363 59.3334C149.609 63.1697 149.287 67.262 147.456 70.8561C145.624 74.4503 142.503 77.1162 138.666 78.3625C137.13 78.862 135.554 79.1094 133.984 79.1094C131.633 79.1094 129.299 78.554 127.144 77.4557Z" fill="white"/>
<path d="M35.4128 86.8145C41.5067 84.8341 46.4649 80.5997 49.3735 74.8906C52.2824 69.1815 52.7939 62.6814 50.814 56.5875C48.8336 50.4936 44.5992 45.5354 38.8901 42.6268C35.4666 40.8824 31.7592 40 28.0251 40C25.532 40 23.0265 40.3937 20.5871 41.1859C14.4933 43.1662 9.53508 47.4007 6.62655 53.1098C3.71757 58.8189 3.20615 65.3189 5.18605 71.4128C7.1664 77.5068 11.4008 82.465 17.1099 85.3735C22.8185 88.2825 29.319 88.7935 35.4128 86.8145V86.8145ZM21.1439 77.4557C17.5498 75.6242 14.8838 72.5032 13.6375 68.6665C12.3907 64.8302 12.7129 60.738 14.5444 57.1438C16.3759 53.5497 19.4968 50.8837 23.3335 49.6374C27.1702 48.3911 31.262 48.7128 34.8561 50.5443C38.4502 52.3758 41.1162 55.4967 42.3625 59.3334C43.6093 63.1697 43.2871 67.262 41.4556 70.8561C39.6241 74.4503 36.5032 77.1162 32.6665 78.3625C31.1305 78.862 29.5536 79.1094 27.9838 79.1094C25.6333 79.1094 23.2993 78.554 21.1439 77.4557Z" fill="white"/>
</svg>
