<svg width="394" height="326" viewBox="0 0 394 326" fill="none" xmlns="http://www.w3.org/2000/svg">
<path d="M314.753 191.588C309.938 186.773 303.537 184.122 296.728 184.122C289.919 184.122 283.518 186.774 278.703 191.588C272.321 197.97 263.835 201.485 254.809 201.485H235.471C246.129 196.693 255.939 189.953 264.449 181.443C282.866 163.028 293.008 138.543 293.008 112.5C293.008 93.4513 287.513 74.9966 277.116 59.1309C275.828 57.1639 273.188 56.6142 271.222 57.903C269.254 59.1918 268.705 61.8311 269.994 63.7977C279.479 78.2728 284.492 95.1139 284.492 112.5C284.492 161.566 244.572 201.485 195.504 201.485C146.436 201.485 106.516 161.566 106.516 112.5C106.516 63.4337 146.436 23.5153 195.504 23.5153C212.92 23.5153 229.786 28.5444 244.278 38.0594C246.243 39.3503 248.883 38.8032 250.174 36.837C251.465 34.8713 250.918 32.232 248.952 30.941C233.068 20.5124 214.585 15 195.504 15C169.46 15 144.974 25.1417 126.558 43.5573C108.143 61.9729 98 86.4569 98 112.5C98 138.543 108.142 163.028 126.558 181.443C144.974 199.858 169.46 210 195.504 210H254.809C266.11 210 276.734 205.6 284.725 197.609C287.931 194.403 292.194 192.637 296.728 192.637C301.262 192.637 305.525 194.403 308.731 197.609C310.394 199.272 313.09 199.272 314.753 197.609C316.416 195.946 316.416 193.25 314.753 191.588Z" fill="white"/>
<path d="M264.376 48.1929C265.516 48.1929 266.634 47.7336 267.44 46.9276C268.246 46.1172 268.71 45.0035 268.71 43.8638C268.71 42.7197 268.246 41.606 267.44 40.7957C266.634 39.9896 265.516 39.5303 264.376 39.5303C263.237 39.5303 262.119 39.9896 261.313 40.7957C260.507 41.606 260.043 42.7197 260.043 43.8638C260.043 45.0035 260.507 46.1215 261.313 46.9276C262.119 47.7336 263.237 48.1929 264.376 48.1929Z" fill="white"/>
<path d="M62.6 299H44.4L22 266.6V299H6V229H22V259.4L43.4 229H61.6L38 263.1L62.6 299ZM68.0977 243V229H83.0977V243H68.0977ZM68.0977 299V249H83.0977V299H68.0977ZM122.074 247.6C126.808 247.6 130.641 249.367 133.574 252.9C136.574 256.367 138.074 261.167 138.074 267.3V299H123.074V268.6C123.074 266.2 122.441 264.4 121.174 263.2C119.974 262 118.374 261.4 116.374 261.4C111.508 261.4 109.074 264.2 109.074 269.8V299H94.0742V249H109.074V253.6C111.674 249.6 116.008 247.6 122.074 247.6ZM190.585 292.8C185.452 297.867 179.185 300.4 171.785 300.4C164.385 300.4 158.118 297.867 152.985 292.8C147.852 287.667 145.285 281.4 145.285 274C145.285 266.6 147.852 260.367 152.985 255.3C158.118 250.167 164.385 247.6 171.785 247.6C179.185 247.6 185.452 250.167 190.585 255.3C195.718 260.367 198.285 266.6 198.285 274C198.285 281.4 195.718 287.667 190.585 292.8ZM163.585 282.5C165.785 284.7 168.518 285.8 171.785 285.8C175.052 285.8 177.785 284.7 179.985 282.5C182.185 280.3 183.285 277.467 183.285 274C183.285 270.533 182.185 267.7 179.985 265.5C177.785 263.3 175.052 262.2 171.785 262.2C168.518 262.2 165.785 263.3 163.585 265.5C161.385 267.7 160.285 270.533 160.285 274C160.285 277.467 161.385 280.3 163.585 282.5Z" fill="#3657CB"/>
<path d="M211.693 252.6C215.693 249.267 220.626 247.6 226.493 247.6C232.36 247.6 237.293 249.333 241.293 252.8C245.293 256.2 247.293 261.1 247.293 267.5V299H232.693V295.1C229.626 298.633 225.326 300.4 219.793 300.4C215.126 300.4 211.193 299.033 207.993 296.3C204.86 293.567 203.293 289.733 203.293 284.8C203.293 279.867 204.86 276.033 207.993 273.3C211.193 270.567 215.126 269.2 219.793 269.2C224.993 269.2 229.293 270.467 232.693 273V268.5C232.693 263.767 230.626 261.4 226.493 261.4C224.493 261.4 222.96 261.867 221.893 262.8C220.826 263.733 220.293 264.967 220.293 266.5H205.693C205.693 260.567 207.693 255.933 211.693 252.6ZM225.093 289.8C227.493 289.8 229.36 289.333 230.693 288.4C232.026 287.467 232.693 286.267 232.693 284.8C232.693 283.267 232.026 282.067 230.693 281.2C229.36 280.267 227.493 279.8 225.093 279.8C222.893 279.8 221.193 280.267 219.993 281.2C218.86 282.067 218.293 283.267 218.293 284.8C218.293 286.333 218.86 287.567 219.993 288.5C221.193 289.367 222.893 289.8 225.093 289.8ZM271.965 256.9C272.765 254.033 274.332 251.833 276.665 250.3C278.998 248.767 281.765 248 284.965 248V265C281.498 264.467 278.465 265.033 275.865 266.7C273.265 268.367 271.965 271.267 271.965 275.4V299H256.965V249H271.965V256.9ZM303.661 280C305.328 285.533 309.228 288.3 315.361 288.3C317.161 288.3 318.861 287.967 320.461 287.3C322.061 286.567 323.228 285.633 323.961 284.5L338.561 284.4C336.961 289.6 334.094 293.567 329.961 296.3C325.828 299.033 320.894 300.4 315.161 300.4C307.028 300.4 300.461 297.9 295.461 292.9C290.461 287.9 287.961 281.6 287.961 274C287.961 266.467 290.461 260.2 295.461 255.2C300.528 250.133 306.961 247.6 314.761 247.6C322.028 247.6 328.028 250.1 332.761 255.1C337.561 260.1 339.961 266.4 339.961 274C339.961 276.133 339.761 278.133 339.361 280H303.661ZM303.561 268.6H325.061C323.594 263.467 320.128 260.9 314.661 260.9C308.928 260.9 305.228 263.467 303.561 268.6ZM354.173 252.6C358.173 249.267 363.107 247.6 368.973 247.6C374.84 247.6 379.773 249.333 383.773 252.8C387.773 256.2 389.773 261.1 389.773 267.5V299H375.173V295.1C372.107 298.633 367.807 300.4 362.273 300.4C357.607 300.4 353.673 299.033 350.473 296.3C347.34 293.567 345.773 289.733 345.773 284.8C345.773 279.867 347.34 276.033 350.473 273.3C353.673 270.567 357.607 269.2 362.273 269.2C367.473 269.2 371.773 270.467 375.173 273V268.5C375.173 263.767 373.107 261.4 368.973 261.4C366.973 261.4 365.44 261.867 364.373 262.8C363.307 263.733 362.773 264.967 362.773 266.5H348.173C348.173 260.567 350.173 255.933 354.173 252.6ZM367.573 289.8C369.973 289.8 371.84 289.333 373.173 288.4C374.507 287.467 375.173 286.267 375.173 284.8C375.173 283.267 374.507 282.067 373.173 281.2C371.84 280.267 369.973 279.8 367.573 279.8C365.373 279.8 363.673 280.267 362.473 281.2C361.34 282.067 360.773 283.267 360.773 284.8C360.773 286.333 361.34 287.567 362.473 288.5C363.673 289.367 365.373 289.8 367.573 289.8Z" fill="white"/>
</svg>
