<svg width="290" height="290" viewBox="0 0 290 290" fill="none" xmlns="http://www.w3.org/2000/svg">
<path d="M264.753 224.588C259.938 219.773 253.537 217.122 246.728 217.122C239.919 217.122 233.518 219.774 228.703 224.588C222.321 230.97 213.835 234.485 204.809 234.485H185.471C196.129 229.693 205.939 222.953 214.449 214.443C232.866 196.028 243.008 171.543 243.008 145.5C243.008 126.451 237.513 107.997 227.116 92.1309C225.828 90.1639 223.188 89.6142 221.222 90.903C219.254 92.1918 218.705 94.8311 219.994 96.7977C229.479 111.273 234.492 128.114 234.492 145.5C234.492 194.566 194.572 234.485 145.504 234.485C96.436 234.485 56.516 194.566 56.516 145.5C56.516 96.4337 96.436 56.5153 145.504 56.5153C162.92 56.5153 179.786 61.5444 194.278 71.0594C196.243 72.3503 198.883 71.8032 200.174 69.837C201.465 67.8713 200.918 65.232 198.952 63.941C183.068 53.5124 164.585 48 145.504 48C119.46 48 94.974 58.1417 76.558 76.5573C58.143 94.9729 48 119.457 48 145.5C48 171.543 58.142 196.028 76.558 214.443C94.974 232.858 119.46 243 145.504 243H204.809C216.11 243 226.734 238.6 234.725 230.609C237.931 227.403 242.194 225.637 246.728 225.637C251.262 225.637 255.525 227.403 258.731 230.609C260.394 232.272 263.09 232.272 264.753 230.609C266.416 228.946 266.416 226.25 264.753 224.588Z" fill="white"/>
<path d="M214.376 81.1929C215.516 81.1929 216.634 80.7336 217.44 79.9276C218.246 79.1172 218.71 78.0035 218.71 76.8638C218.71 75.7197 218.246 74.606 217.44 73.7957C216.634 72.9896 215.516 72.5303 214.376 72.5303C213.237 72.5303 212.119 72.9896 211.313 73.7957C210.507 74.606 210.043 75.7197 210.043 76.8638C210.043 78.0035 210.507 79.1215 211.313 79.9276C212.119 80.7336 213.237 81.1929 214.376 81.1929Z" fill="white"/>
</svg>
