<svg width="394" height="326" viewBox="0 0 394 326" fill="none" xmlns="http://www.w3.org/2000/svg">
<g clip-path="url(#clip0_4094_130)">
<path d="M314.753 191.588C309.938 186.773 303.537 184.122 296.728 184.122C289.919 184.122 283.518 186.774 278.703 191.588C272.321 197.97 263.835 201.485 254.809 201.485H235.471C246.129 196.693 255.939 189.953 264.449 181.443C282.866 163.028 293.008 138.543 293.008 112.5C293.008 93.4513 287.513 74.9966 277.116 59.1309C275.828 57.1639 273.188 56.6142 271.222 57.903C269.254 59.1918 268.705 61.8311 269.994 63.7977C279.479 78.2728 284.492 95.1139 284.492 112.5C284.492 161.566 244.572 201.485 195.504 201.485C146.436 201.485 106.516 161.566 106.516 112.5C106.516 63.4337 146.436 23.5153 195.504 23.5153C212.92 23.5153 229.786 28.5444 244.278 38.0594C246.243 39.3503 248.883 38.8032 250.174 36.837C251.465 34.8713 250.918 32.232 248.952 30.941C233.068 20.5124 214.585 15 195.504 15C169.46 15 144.974 25.1417 126.558 43.5573C108.143 61.9729 98 86.4569 98 112.5C98 138.543 108.142 163.028 126.558 181.443C144.974 199.858 169.46 210 195.504 210H254.809C266.11 210 276.734 205.6 284.725 197.609C287.931 194.403 292.194 192.637 296.728 192.637C301.262 192.637 305.525 194.403 308.731 197.609C310.394 199.272 313.09 199.272 314.753 197.609C316.416 195.946 316.416 193.25 314.753 191.588Z" fill="white"/>
<path d="M264.376 48.1929C265.516 48.1929 266.634 47.7336 267.44 46.9276C268.246 46.1172 268.71 45.0035 268.71 43.8638C268.71 42.7197 268.246 41.606 267.44 40.7957C266.634 39.9896 265.516 39.5303 264.376 39.5303C263.237 39.5303 262.119 39.9896 261.313 40.7957C260.507 41.606 260.043 42.7197 260.043 43.8638C260.043 45.0035 260.507 46.1215 261.313 46.9276C262.119 47.7336 263.237 48.1929 264.376 48.1929Z" fill="white"/>
<path d="M74.1305 259.71C73.8372 260.773 73.3788 261.598 72.7555 262.185C72.1322 262.735 71.4538 263.157 70.7205 263.45C69.9872 263.707 69.2355 263.872 68.4655 263.945C67.7322 263.982 67.1272 264 66.6505 264H57.0255C55.7422 264 54.7705 263.872 54.1105 263.615C53.4505 263.358 52.9922 263.01 52.7355 262.57C52.5155 262.093 52.4422 261.562 52.5155 260.975C52.6255 260.352 52.8088 259.692 53.0655 258.995L57.5205 247.39L44.2105 262.02C43.2572 263.047 42.3405 263.725 41.4605 264.055C40.6172 264.385 39.6272 264.477 38.4905 264.33C37.6472 264.22 36.9872 264 36.5105 263.67C36.0705 263.34 35.7588 262.937 35.5755 262.46C35.4288 261.947 35.3922 261.397 35.4655 260.81C35.5388 260.187 35.6855 259.582 35.9055 258.995L42.5055 241.945L25.9505 261.965C25.9138 262.002 25.7488 262.185 25.4555 262.515C25.1622 262.808 24.6305 263.138 23.8605 263.505C23.0905 263.835 22.1555 264 21.0555 264H15.6105L26.4455 232.98H11.5405L15.6105 226.215H33.5405C34.2005 226.215 34.8055 226.288 35.3555 226.435C35.9055 226.545 36.3455 226.802 36.6755 227.205C37.0055 227.572 37.1888 228.103 37.2255 228.8C37.2622 229.46 37.0972 230.34 36.7305 231.44L30.9555 248.105L42.5055 235.015C43.0922 234.355 43.6422 233.75 44.1555 233.2C44.7055 232.613 45.2922 232.137 45.9155 231.77C46.5388 231.367 47.2355 231.055 48.0055 230.835C48.8122 230.615 49.8022 230.505 50.9755 230.505C51.1222 230.505 51.4338 230.578 51.9105 230.725C52.4238 230.835 52.9005 231.11 53.3405 231.55C53.7805 231.99 54.0738 232.613 54.2205 233.42C54.4038 234.227 54.2388 235.308 53.7255 236.665L48.5005 250.195L58.8405 239.8C59.4638 239.177 59.9955 238.645 60.4355 238.205C60.8755 237.765 61.3155 237.417 61.7555 237.16C62.2322 236.903 62.7455 236.72 63.2955 236.61C63.8455 236.5 64.5422 236.445 65.3855 236.445C65.5322 236.445 65.8622 236.518 66.3755 236.665C66.9255 236.812 67.4388 237.123 67.9155 237.6C68.3922 238.04 68.7222 238.682 68.9055 239.525C69.1255 240.332 68.9788 241.413 68.4655 242.77L62.0305 259.71H74.1305ZM119.897 245.74C119.897 245.74 119.824 245.96 119.677 246.4C119.567 246.84 119.292 247.335 118.852 247.885C118.412 248.435 117.752 248.93 116.872 249.37C116.029 249.81 114.892 250.03 113.462 250.03H96.6324C96.9624 250.25 97.2557 250.562 97.5124 250.965C97.769 251.368 97.9707 251.808 98.1174 252.285C98.3007 252.725 98.429 253.183 98.5024 253.66C98.5757 254.137 98.594 254.558 98.5574 254.925C98.4474 256.465 98.044 257.822 97.3474 258.995C96.6507 260.168 95.734 261.158 94.5974 261.965C93.4974 262.772 92.1774 263.395 90.6374 263.835C89.134 264.238 87.5024 264.44 85.7424 264.44C83.249 264.44 81.1407 264.165 79.4174 263.615C77.7307 263.065 76.374 262.332 75.3474 261.415C74.3574 260.498 73.679 259.453 73.3124 258.28C72.9457 257.07 72.8724 255.823 73.0924 254.54C73.5324 251.9 74.8524 249.773 77.0524 248.16C79.289 246.547 82.4607 245.74 86.5674 245.74H119.897ZM90.6374 250.03H84.4774L82.0574 256.905C81.7274 257.895 81.8007 258.628 82.2774 259.105C82.754 259.545 83.3407 259.857 84.0374 260.04C84.7707 260.187 85.449 260.26 86.0724 260.26C86.7324 260.223 87.0624 260.205 87.0624 260.205L90.6374 250.03ZM162.331 245.74C162.074 246.62 161.652 247.353 161.066 247.94C160.516 248.49 159.911 248.93 159.251 249.26C158.591 249.553 157.931 249.755 157.271 249.865C156.611 249.975 156.061 250.03 155.621 250.03H144.346L132.961 264H122.236L121.081 245.74H130.816L130.981 258.94L141.046 245.74H162.331ZM177.105 234.74C177.105 235.62 176.921 236.463 176.555 237.27C176.188 238.04 175.675 238.718 175.015 239.305C174.391 239.892 173.64 240.35 172.76 240.68C171.916 241.01 171 241.175 170.01 241.175C169.02 241.175 168.085 241.01 167.205 240.68C166.361 240.35 165.61 239.892 164.95 239.305C164.29 238.718 163.776 238.04 163.41 237.27C163.043 236.463 162.86 235.62 162.86 234.74C162.86 233.86 163.043 233.035 163.41 232.265C163.776 231.458 164.29 230.762 164.95 230.175C165.61 229.588 166.361 229.13 167.205 228.8C168.085 228.47 169.02 228.305 170.01 228.305C171 228.305 171.916 228.47 172.76 228.8C173.64 229.13 174.391 229.588 175.015 230.175C175.675 230.762 176.188 231.458 176.555 232.265C176.921 233.035 177.105 233.86 177.105 234.74ZM179.03 259.71C178.773 260.59 178.37 261.323 177.82 261.91C177.306 262.46 176.738 262.9 176.115 263.23C175.528 263.523 174.923 263.725 174.3 263.835C173.676 263.945 173.145 264 172.705 264H162.09C160.623 264 159.541 263.56 158.845 262.68C158.111 261.763 158.038 260.48 158.625 258.83L163.3 245.74H173.035L168.085 259.71H179.03ZM212.365 259.71C212.145 260.443 211.796 261.085 211.32 261.635C210.88 262.148 210.348 262.588 209.725 262.955C209.138 263.322 208.478 263.597 207.745 263.78C207.048 263.927 206.351 264 205.655 264H190.695C189.375 264 187.945 263.908 186.405 263.725C184.901 263.542 183.49 263.175 182.17 262.625C180.886 262.075 179.823 261.287 178.98 260.26C178.1 259.233 177.66 257.858 177.66 256.135C177.66 254.338 178.081 252.78 178.925 251.46C179.731 250.14 180.795 249.058 182.115 248.215C183.435 247.372 184.901 246.748 186.515 246.345C188.128 245.942 189.705 245.74 191.245 245.74H195.15C195.993 245.74 196.946 245.813 198.01 245.96C199.11 246.107 200.136 246.382 201.09 246.785C202.08 247.188 202.905 247.738 203.565 248.435C204.261 249.095 204.646 249.957 204.72 251.02C204.793 252.12 204.555 253.073 204.005 253.88C203.455 254.65 202.776 255.292 201.97 255.805H193.06L195.975 250.03H190.31L188.11 256.52C187.89 257.18 187.853 257.73 188 258.17C188.183 258.573 188.458 258.903 188.825 259.16C189.191 259.38 189.613 259.527 190.09 259.6C190.566 259.673 191.006 259.71 191.41 259.71H212.365Z" fill="#F3BF0B"/>
<path d="M276.441 245.74C276.038 247.023 275.469 248.068 274.736 248.875C274.003 249.645 272.903 250.03 271.436 250.03H254.881C254.918 250.14 254.936 250.342 254.936 250.635V251.185C254.936 253.898 254.184 256.465 252.681 258.885C251.214 261.305 249.326 263.432 247.016 265.265C244.706 267.098 242.176 268.547 239.426 269.61C236.676 270.71 234.036 271.26 231.506 271.26C230.259 271.26 229.123 271.077 228.096 270.71C227.069 270.343 226.208 269.812 225.511 269.115C224.778 268.455 224.228 267.63 223.861 266.64C223.494 265.687 223.348 264.587 223.421 263.34C223.568 260.773 224.264 258.482 225.511 256.465C226.758 254.412 228.298 252.67 230.131 251.24C232.001 249.773 234.054 248.6 236.291 247.72C238.564 246.84 240.801 246.253 243.001 245.96C242.488 244.897 241.828 243.943 241.021 243.1C240.251 242.257 239.389 241.468 238.436 240.735L253.286 232.98H233.101L237.171 226.215H265.111C265.148 228.195 264.891 229.863 264.341 231.22C263.791 232.577 262.618 233.732 260.821 234.685C257.228 236.665 253.616 238.608 249.986 240.515C250.866 241.212 251.636 242 252.296 242.88C252.993 243.723 253.524 244.677 253.891 245.74H276.441ZM245.311 250.965C245.274 250.855 245.238 250.727 245.201 250.58C245.164 250.397 245.054 250.213 244.871 250.03C244.064 250.14 243.203 250.397 242.286 250.8C241.369 251.167 240.471 251.643 239.591 252.23C238.711 252.78 237.886 253.385 237.116 254.045C236.346 254.705 235.723 255.365 235.246 256.025C234.843 256.575 234.384 257.198 233.871 257.895C233.394 258.592 232.954 259.325 232.551 260.095C232.148 260.865 231.799 261.653 231.506 262.46C231.249 263.23 231.121 263.963 231.121 264.66C231.121 265.357 231.286 265.925 231.616 266.365C231.946 266.805 232.478 267.025 233.211 267.025C234.128 267.025 235.081 266.787 236.071 266.31C237.061 265.833 238.033 265.173 238.986 264.33C239.976 263.523 240.893 262.588 241.736 261.525C242.579 260.462 243.294 259.343 243.881 258.17C244.468 256.96 244.889 255.75 245.146 254.54C245.439 253.293 245.494 252.102 245.311 250.965ZM318.52 245.74C318.52 245.74 318.447 245.96 318.3 246.4C318.19 246.84 317.915 247.335 317.475 247.885C317.035 248.435 316.375 248.93 315.495 249.37C314.652 249.81 313.515 250.03 312.085 250.03H295.255C295.585 250.25 295.879 250.562 296.135 250.965C296.392 251.368 296.594 251.808 296.74 252.285C296.924 252.725 297.052 253.183 297.125 253.66C297.199 254.137 297.217 254.558 297.18 254.925C297.07 256.465 296.667 257.822 295.97 258.995C295.274 260.168 294.357 261.158 293.22 261.965C292.12 262.772 290.8 263.395 289.26 263.835C287.757 264.238 286.125 264.44 284.365 264.44C281.872 264.44 279.764 264.165 278.04 263.615C276.354 263.065 274.997 262.332 273.97 261.415C272.98 260.498 272.302 259.453 271.935 258.28C271.569 257.07 271.495 255.823 271.715 254.54C272.155 251.9 273.475 249.773 275.675 248.16C277.912 246.547 281.084 245.74 285.19 245.74H318.52ZM289.26 250.03H283.1L280.68 256.905C280.35 257.895 280.424 258.628 280.9 259.105C281.377 259.545 281.964 259.857 282.66 260.04C283.394 260.187 284.072 260.26 284.695 260.26C285.355 260.223 285.685 260.205 285.685 260.205L289.26 250.03ZM351.501 259.71C351.244 260.59 350.823 261.323 350.236 261.91C349.686 262.46 349.081 262.9 348.421 263.23C347.761 263.523 347.101 263.725 346.441 263.835C345.781 263.945 345.231 264 344.791 264H334.066C332.379 264 331.279 263.652 330.766 262.955C330.253 262.222 330.253 261.14 330.766 259.71L332.801 253.935L323.561 261.745C323.561 261.745 323.378 261.873 323.011 262.13C322.681 262.35 322.259 262.607 321.746 262.9C321.233 263.157 320.646 263.413 319.986 263.67C319.363 263.89 318.776 264 318.226 264H313.276L319.711 245.74H329.391L326.366 254.32L334.561 247.61C335.514 246.84 336.541 246.198 337.641 245.685C338.741 245.172 340.116 244.952 341.766 245.025C342.206 245.025 342.628 245.135 343.031 245.355C343.434 245.538 343.764 245.832 344.021 246.235C344.278 246.638 344.406 247.152 344.406 247.775C344.443 248.398 344.296 249.15 343.966 250.03L340.501 259.71H351.501ZM385.26 259.71C385.04 260.443 384.692 261.085 384.215 261.635C383.775 262.148 383.244 262.588 382.62 262.955C382.034 263.322 381.374 263.597 380.64 263.78C379.944 263.927 379.247 264 378.55 264H363.59C362.27 264 360.84 263.908 359.3 263.725C357.797 263.542 356.385 263.175 355.065 262.625C353.782 262.075 352.719 261.287 351.875 260.26C350.995 259.233 350.555 257.858 350.555 256.135C350.555 254.338 350.977 252.78 351.82 251.46C352.627 250.14 353.69 249.058 355.01 248.215C356.33 247.372 357.797 246.748 359.41 246.345C361.024 245.942 362.6 245.74 364.14 245.74H368.045C368.889 245.74 369.842 245.813 370.905 245.96C372.005 246.107 373.032 246.382 373.985 246.785C374.975 247.188 375.8 247.738 376.46 248.435C377.157 249.095 377.542 249.957 377.615 251.02C377.689 252.12 377.45 253.073 376.9 253.88C376.35 254.65 375.672 255.292 374.865 255.805H365.955L368.87 250.03H363.205L361.005 256.52C360.785 257.18 360.749 257.73 360.895 258.17C361.079 258.573 361.354 258.903 361.72 259.16C362.087 259.38 362.509 259.527 362.985 259.6C363.462 259.673 363.902 259.71 364.305 259.71H385.26Z" fill="white"/>
</g>
<defs>
<clipPath id="clip0_4094_130">
<rect width="394" height="326" fill="white"/>
</clipPath>
</defs>
</svg>
