<svg width="248" height="250" viewBox="0 0 248 250" fill="none" xmlns="http://www.w3.org/2000/svg">
<rect width="248" height="250" rx="10" fill="#051B24"/>
<path d="M77.82 48.44C77.7133 48.8267 77.5467 49.1267 77.32 49.34C77.0933 49.54 76.8467 49.6933 76.58 49.8C76.3133 49.8933 76.04 49.9533 75.76 49.98C75.4933 49.9933 75.2733 50 75.1 50H71.6C71.1333 50 70.78 49.9533 70.54 49.86C70.3 49.7667 70.1333 49.64 70.04 49.48C69.96 49.3067 69.9333 49.1133 69.96 48.9C70 48.6733 70.0667 48.4333 70.16 48.18L71.78 43.96L66.94 49.28C66.5933 49.6533 66.26 49.9 65.94 50.02C65.6333 50.14 65.2733 50.1733 64.86 50.12C64.5533 50.08 64.3133 50 64.14 49.88C63.98 49.76 63.8667 49.6133 63.8 49.44C63.7467 49.2533 63.7333 49.0533 63.76 48.84C63.7867 48.6133 63.84 48.3933 63.92 48.18L66.32 41.98L60.3 49.26C60.2867 49.2733 60.2267 49.34 60.12 49.46C60.0133 49.5667 59.82 49.6867 59.54 49.82C59.26 49.94 58.92 50 58.52 50H56.54L60.48 38.72H55.06L56.54 36.26H63.06C63.3 36.26 63.52 36.2867 63.72 36.34C63.92 36.38 64.08 36.4733 64.2 36.62C64.32 36.7533 64.3867 36.9467 64.4 37.2C64.4133 37.44 64.3533 37.76 64.22 38.16L62.12 44.22L66.32 39.46C66.5333 39.22 66.7333 39 66.92 38.8C67.12 38.5867 67.3333 38.4133 67.56 38.28C67.7867 38.1333 68.04 38.02 68.32 37.94C68.6133 37.86 68.9733 37.82 69.4 37.82C69.4533 37.82 69.5667 37.8467 69.74 37.9C69.9267 37.94 70.1 38.04 70.26 38.2C70.42 38.36 70.5267 38.5867 70.58 38.88C70.6467 39.1733 70.5867 39.5667 70.4 40.06L68.5 44.98L72.26 41.2C72.4867 40.9733 72.68 40.78 72.84 40.62C73 40.46 73.16 40.3333 73.32 40.24C73.4933 40.1467 73.68 40.08 73.88 40.04C74.08 40 74.3333 39.98 74.64 39.98C74.6933 39.98 74.8133 40.0067 75 40.06C75.2 40.1133 75.3867 40.2267 75.56 40.4C75.7333 40.56 75.8533 40.7933 75.92 41.1C76 41.3933 75.9467 41.7867 75.76 42.28L73.42 48.44H77.82ZM94.4625 43.36C94.4625 43.36 94.4358 43.44 94.3825 43.6C94.3425 43.76 94.2425 43.94 94.0825 44.14C93.9225 44.34 93.6825 44.52 93.3625 44.68C93.0558 44.84 92.6425 44.92 92.1225 44.92H86.0025C86.1225 45 86.2292 45.1133 86.3225 45.26C86.4158 45.4067 86.4892 45.5667 86.5425 45.74C86.6092 45.9 86.6558 46.0667 86.6825 46.24C86.7092 46.4133 86.7158 46.5667 86.7025 46.7C86.6625 47.26 86.5158 47.7533 86.2625 48.18C86.0092 48.6067 85.6758 48.9667 85.2625 49.26C84.8625 49.5533 84.3825 49.78 83.8225 49.94C83.2758 50.0867 82.6825 50.16 82.0425 50.16C81.1358 50.16 80.3692 50.06 79.7425 49.86C79.1292 49.66 78.6358 49.3933 78.2625 49.06C77.9025 48.7267 77.6558 48.3467 77.5225 47.92C77.3892 47.48 77.3625 47.0267 77.4425 46.56C77.6025 45.6 78.0825 44.8267 78.8825 44.24C79.6958 43.6533 80.8492 43.36 82.3425 43.36H94.4625ZM83.8225 44.92H81.5825L80.7025 47.42C80.5825 47.78 80.6092 48.0467 80.7825 48.22C80.9558 48.38 81.1692 48.4933 81.4225 48.56C81.6892 48.6133 81.9358 48.64 82.1625 48.64C82.4025 48.6267 82.5225 48.62 82.5225 48.62L83.8225 44.92ZM109.893 43.36C109.799 43.68 109.646 43.9467 109.433 44.16C109.233 44.36 109.013 44.52 108.773 44.64C108.533 44.7467 108.293 44.82 108.053 44.86C107.813 44.9 107.613 44.92 107.453 44.92H103.353L99.2128 50H95.3128L94.8928 43.36H98.4328L98.4928 48.16L102.153 43.36H109.893ZM115.265 39.36C115.265 39.68 115.198 39.9867 115.065 40.28C114.932 40.56 114.745 40.8067 114.505 41.02C114.278 41.2333 114.005 41.4 113.685 41.52C113.378 41.64 113.045 41.7 112.685 41.7C112.325 41.7 111.985 41.64 111.665 41.52C111.358 41.4 111.085 41.2333 110.845 41.02C110.605 40.8067 110.418 40.56 110.285 40.28C110.152 39.9867 110.085 39.68 110.085 39.36C110.085 39.04 110.152 38.74 110.285 38.46C110.418 38.1667 110.605 37.9133 110.845 37.7C111.085 37.4867 111.358 37.32 111.665 37.2C111.985 37.08 112.325 37.02 112.685 37.02C113.045 37.02 113.378 37.08 113.685 37.2C114.005 37.32 114.278 37.4867 114.505 37.7C114.745 37.9133 114.932 38.1667 115.065 38.46C115.198 38.74 115.265 39.04 115.265 39.36ZM115.965 48.44C115.872 48.76 115.725 49.0267 115.525 49.24C115.338 49.44 115.132 49.6 114.905 49.72C114.692 49.8267 114.472 49.9 114.245 49.94C114.018 49.98 113.825 50 113.665 50H109.805C109.272 50 108.878 49.84 108.625 49.52C108.358 49.1867 108.332 48.72 108.545 48.12L110.245 43.36H113.785L111.985 48.44H115.965ZM128.087 48.44C128.007 48.7067 127.88 48.94 127.707 49.14C127.547 49.3267 127.354 49.4867 127.127 49.62C126.914 49.7533 126.674 49.8533 126.407 49.92C126.154 49.9733 125.9 50 125.647 50H120.207C119.727 50 119.207 49.9667 118.647 49.9C118.1 49.8333 117.587 49.7 117.107 49.5C116.64 49.3 116.254 49.0133 115.947 48.64C115.627 48.2667 115.467 47.7667 115.467 47.14C115.467 46.4867 115.62 45.92 115.927 45.44C116.22 44.96 116.607 44.5667 117.087 44.26C117.567 43.9533 118.1 43.7267 118.687 43.58C119.274 43.4333 119.847 43.36 120.407 43.36H121.827C122.134 43.36 122.48 43.3867 122.867 43.44C123.267 43.4933 123.64 43.5933 123.987 43.74C124.347 43.8867 124.647 44.0867 124.887 44.34C125.14 44.58 125.28 44.8933 125.307 45.28C125.334 45.68 125.247 46.0267 125.047 46.32C124.847 46.6 124.6 46.8333 124.307 47.02H121.067L122.127 44.92H120.067L119.267 47.28C119.187 47.52 119.174 47.72 119.227 47.88C119.294 48.0267 119.394 48.1467 119.527 48.24C119.66 48.32 119.814 48.3733 119.987 48.4C120.16 48.4267 120.32 48.44 120.467 48.44H128.087ZM151.388 43.36C151.241 43.8267 151.034 44.2067 150.768 44.5C150.501 44.78 150.101 44.92 149.568 44.92H143.548C143.561 44.96 143.568 45.0333 143.568 45.14V45.34C143.568 46.3267 143.294 47.26 142.748 48.14C142.214 49.02 141.528 49.7933 140.688 50.46C139.848 51.1267 138.928 51.6533 137.928 52.04C136.928 52.44 135.968 52.64 135.048 52.64C134.594 52.64 134.181 52.5733 133.808 52.44C133.434 52.3067 133.121 52.1133 132.867 51.86C132.601 51.62 132.401 51.32 132.267 50.96C132.134 50.6133 132.081 50.2133 132.107 49.76C132.161 48.8267 132.414 47.9933 132.867 47.26C133.321 46.5133 133.881 45.88 134.548 45.36C135.228 44.8267 135.974 44.4 136.788 44.08C137.614 43.76 138.428 43.5467 139.228 43.44C139.041 43.0533 138.801 42.7067 138.508 42.4C138.228 42.0933 137.914 41.8067 137.568 41.54L142.968 38.72H135.628L137.108 36.26H147.268C147.281 36.98 147.188 37.5867 146.988 38.08C146.788 38.5733 146.361 38.9933 145.708 39.34C144.401 40.06 143.088 40.7667 141.768 41.46C142.088 41.7133 142.368 42 142.608 42.32C142.861 42.6267 143.054 42.9733 143.188 43.36H151.388ZM140.068 45.26C140.054 45.22 140.041 45.1733 140.028 45.12C140.014 45.0533 139.974 44.9867 139.908 44.92C139.614 44.96 139.301 45.0533 138.967 45.2C138.634 45.3333 138.308 45.5067 137.988 45.72C137.668 45.92 137.368 46.14 137.088 46.38C136.808 46.62 136.581 46.86 136.408 47.1C136.261 47.3 136.094 47.5267 135.908 47.78C135.734 48.0333 135.574 48.3 135.428 48.58C135.281 48.86 135.154 49.1467 135.048 49.44C134.954 49.72 134.908 49.9867 134.908 50.24C134.908 50.4933 134.968 50.7 135.088 50.86C135.208 51.02 135.401 51.1 135.668 51.1C136.001 51.1 136.348 51.0133 136.708 50.84C137.068 50.6667 137.421 50.4267 137.768 50.12C138.128 49.8267 138.461 49.4867 138.768 49.1C139.074 48.7133 139.334 48.3067 139.548 47.88C139.761 47.44 139.914 47 140.008 46.56C140.114 46.1067 140.134 45.6733 140.068 45.26ZM166.689 43.36C166.689 43.36 166.662 43.44 166.609 43.6C166.569 43.76 166.469 43.94 166.309 44.14C166.149 44.34 165.909 44.52 165.589 44.68C165.282 44.84 164.869 44.92 164.349 44.92H158.229C158.349 45 158.456 45.1133 158.549 45.26C158.642 45.4067 158.716 45.5667 158.769 45.74C158.836 45.9 158.882 46.0667 158.909 46.24C158.936 46.4133 158.942 46.5667 158.929 46.7C158.889 47.26 158.742 47.7533 158.489 48.18C158.236 48.6067 157.902 48.9667 157.489 49.26C157.089 49.5533 156.609 49.78 156.049 49.94C155.502 50.0867 154.909 50.16 154.269 50.16C153.362 50.16 152.596 50.06 151.969 49.86C151.356 49.66 150.862 49.3933 150.489 49.06C150.129 48.7267 149.882 48.3467 149.749 47.92C149.616 47.48 149.589 47.0267 149.669 46.56C149.829 45.6 150.309 44.8267 151.109 44.24C151.922 43.6533 153.076 43.36 154.569 43.36H166.689ZM156.049 44.92H153.809L152.929 47.42C152.809 47.78 152.836 48.0467 153.009 48.22C153.182 48.38 153.396 48.4933 153.649 48.56C153.916 48.6133 154.162 48.64 154.389 48.64C154.629 48.6267 154.749 48.62 154.749 48.62L156.049 44.92ZM178.682 48.44C178.589 48.76 178.435 49.0267 178.222 49.24C178.022 49.44 177.802 49.6 177.562 49.72C177.322 49.8267 177.082 49.9 176.842 49.94C176.602 49.98 176.402 50 176.242 50H172.342C171.729 50 171.329 49.8733 171.142 49.62C170.955 49.3533 170.955 48.96 171.142 48.44L171.882 46.34L168.522 49.18C168.522 49.18 168.455 49.2267 168.322 49.32C168.202 49.4 168.049 49.4933 167.862 49.6C167.675 49.6933 167.462 49.7867 167.222 49.88C166.995 49.96 166.782 50 166.582 50H164.782L167.122 43.36H170.642L169.542 46.48L172.522 44.04C172.869 43.76 173.242 43.5267 173.642 43.34C174.042 43.1533 174.542 43.0733 175.142 43.1C175.302 43.1 175.455 43.14 175.602 43.22C175.749 43.2867 175.869 43.3933 175.962 43.54C176.055 43.6867 176.102 43.8733 176.102 44.1C176.115 44.3267 176.062 44.6 175.942 44.92L174.682 48.44H178.682ZM190.958 48.44C190.878 48.7067 190.751 48.94 190.578 49.14C190.418 49.3267 190.225 49.4867 189.998 49.62C189.785 49.7533 189.545 49.8533 189.278 49.92C189.025 49.9733 188.771 50 188.518 50H183.078C182.598 50 182.078 49.9667 181.518 49.9C180.971 49.8333 180.458 49.7 179.978 49.5C179.511 49.3 179.125 49.0133 178.818 48.64C178.498 48.2667 178.338 47.7667 178.338 47.14C178.338 46.4867 178.491 45.92 178.798 45.44C179.091 44.96 179.478 44.5667 179.958 44.26C180.438 43.9533 180.971 43.7267 181.558 43.58C182.145 43.4333 182.718 43.36 183.278 43.36H184.698C185.005 43.36 185.351 43.3867 185.738 43.44C186.138 43.4933 186.511 43.5933 186.858 43.74C187.218 43.8867 187.518 44.0867 187.758 44.34C188.011 44.58 188.151 44.8933 188.178 45.28C188.205 45.68 188.118 46.0267 187.918 46.32C187.718 46.6 187.471 46.8333 187.178 47.02H183.938L184.998 44.92H182.938L182.138 47.28C182.058 47.52 182.045 47.72 182.098 47.88C182.165 48.0267 182.265 48.1467 182.398 48.24C182.531 48.32 182.685 48.3733 182.858 48.4C183.031 48.4267 183.191 48.44 183.338 48.44H190.958Z" fill="#273940"/>
<path d="M52.1952 189.01C53.4712 190.11 54.1092 191.54 54.1092 193.3C54.1092 195.06 53.4712 196.49 52.1952 197.59C50.9192 198.69 49.2105 199.343 47.0692 199.548V201.33H44.0992V199.548C41.9579 199.343 40.2492 198.69 38.9732 197.59C37.7119 196.49 37.0812 195.06 37.0812 193.3C37.0812 191.54 37.7119 190.11 38.9732 189.01C40.2492 187.91 41.9579 187.257 44.0992 187.052V185.27H47.0692V187.052C49.2105 187.257 50.9192 187.91 52.1952 189.01ZM44.0992 189.824C41.4299 190.117 40.0952 191.276 40.0952 193.3C40.0952 195.324 41.4299 196.483 44.0992 196.776V189.824ZM47.0692 196.776C49.7385 196.483 51.0732 195.324 51.0732 193.3C51.0732 191.276 49.7385 190.117 47.0692 189.824V196.776ZM65.1846 199.636C64.0553 200.751 62.6766 201.308 61.0486 201.308C59.4206 201.308 58.042 200.751 56.9126 199.636C55.798 198.507 55.2406 197.128 55.2406 195.5C55.2406 193.872 55.798 192.501 56.9126 191.386C58.042 190.257 59.4206 189.692 61.0486 189.692C62.6766 189.692 64.0553 190.257 65.1846 191.386C66.314 192.501 66.8786 193.872 66.8786 195.5C66.8786 197.128 66.314 198.507 65.1846 199.636ZM58.9146 197.678C59.4866 198.25 60.198 198.536 61.0486 198.536C61.8993 198.536 62.6106 198.25 63.1826 197.678C63.7546 197.106 64.0406 196.38 64.0406 195.5C64.0406 194.62 63.7546 193.894 63.1826 193.322C62.6106 192.75 61.8993 192.464 61.0486 192.464C60.198 192.464 59.4866 192.75 58.9146 193.322C58.3573 193.894 58.0786 194.62 58.0786 195.5C58.0786 196.38 58.3573 197.106 58.9146 197.678ZM76.2335 190V192.662H73.2415V201H70.4035V192.662H67.3675V190H73.2415H76.2335ZM86.7764 199.636C85.6471 200.751 84.2684 201.308 82.6404 201.308C81.0124 201.308 79.6338 200.751 78.5044 199.636C77.3898 198.507 76.8324 197.128 76.8324 195.5C76.8324 193.872 77.3898 192.501 78.5044 191.386C79.6338 190.257 81.0124 189.692 82.6404 189.692C84.2684 189.692 85.6471 190.257 86.7764 191.386C87.9058 192.501 88.4704 193.872 88.4704 195.5C88.4704 197.128 87.9058 198.507 86.7764 199.636ZM80.5064 197.678C81.0784 198.25 81.7898 198.536 82.6404 198.536C83.4911 198.536 84.2024 198.25 84.7744 197.678C85.3464 197.106 85.6324 196.38 85.6324 195.5C85.6324 194.62 85.3464 193.894 84.7744 193.322C84.2024 192.75 83.4911 192.464 82.6404 192.464C81.7898 192.464 81.0784 192.75 80.5064 193.322C79.9491 193.894 79.6704 194.62 79.6704 195.5C79.6704 196.38 79.9491 197.106 80.5064 197.678ZM105.339 199.636C104.21 200.751 102.831 201.308 101.203 201.308C99.5749 201.308 98.1963 200.751 97.0669 199.636C95.9523 198.507 95.3949 197.128 95.3949 195.5C95.3949 193.872 95.9523 192.501 97.0669 191.386C98.1963 190.257 99.5749 189.692 101.203 189.692C102.831 189.692 104.21 190.257 105.339 191.386C106.468 192.501 107.033 193.872 107.033 195.5C107.033 197.128 106.468 198.507 105.339 199.636ZM99.0689 197.678C99.6409 198.25 100.352 198.536 101.203 198.536C102.054 198.536 102.765 198.25 103.337 197.678C103.909 197.106 104.195 196.38 104.195 195.5C104.195 194.62 103.909 193.894 103.337 193.322C102.765 192.75 102.054 192.464 101.203 192.464C100.352 192.464 99.6409 192.75 99.0689 193.322C98.5116 193.894 98.2329 194.62 98.2329 195.5C98.2329 196.38 98.5116 197.106 99.0689 197.678ZM116.388 190V192.662H113.396V201H110.558V192.662H107.522V190H113.396H116.388ZM128.295 196.974C128.045 198.235 127.407 199.277 126.381 200.098C125.354 200.905 124.159 201.308 122.795 201.308C121.137 201.308 119.751 200.751 118.637 199.636C117.537 198.521 116.987 197.143 116.987 195.5C116.987 193.857 117.537 192.479 118.637 191.364C119.751 190.249 121.137 189.692 122.795 189.692C124.159 189.692 125.354 190.095 126.381 190.902C127.407 191.709 128.045 192.743 128.295 194.004H125.303C125.097 193.535 124.767 193.168 124.313 192.904C123.873 192.625 123.367 192.486 122.795 192.486C121.959 192.486 121.255 192.772 120.683 193.344C120.111 193.901 119.825 194.62 119.825 195.5C119.825 196.365 120.111 197.084 120.683 197.656C121.255 198.213 121.959 198.492 122.795 198.492C123.381 198.492 123.895 198.36 124.335 198.096C124.789 197.817 125.112 197.443 125.303 196.974H128.295ZM135.909 190H138.945L135.205 201C134.691 202.555 133.936 203.691 132.939 204.41C131.941 205.143 130.761 205.473 129.397 205.4V202.76C130.159 202.775 130.761 202.628 131.201 202.32C131.641 202.027 131.985 201.528 132.235 200.824L128.033 190H131.069L133.731 197.238L135.909 190ZM148.077 190V192.662H145.085V201H142.247V192.662H139.211V190H145.085H148.077ZM159.984 196.974C159.735 198.235 159.097 199.277 158.07 200.098C157.044 200.905 155.848 201.308 154.484 201.308C152.827 201.308 151.441 200.751 150.326 199.636C149.226 198.521 148.676 197.143 148.676 195.5C148.676 193.857 149.226 192.479 150.326 191.364C151.441 190.249 152.827 189.692 154.484 189.692C155.848 189.692 157.044 190.095 158.07 190.902C159.097 191.709 159.735 192.743 159.984 194.004H156.992C156.787 193.535 156.457 193.168 156.002 192.904C155.562 192.625 155.056 192.486 154.484 192.486C153.648 192.486 152.944 192.772 152.372 193.344C151.8 193.901 151.514 194.62 151.514 195.5C151.514 196.365 151.8 197.084 152.372 197.656C152.944 198.213 153.648 198.492 154.484 198.492C155.071 198.492 155.584 198.36 156.024 198.096C156.479 197.817 156.802 197.443 156.992 196.974H159.984ZM169.261 190V192.662H166.269V201H163.431V192.662H160.395V190H166.269H169.261ZM178.828 194.488C179.429 194.767 179.891 195.17 180.214 195.698C180.551 196.226 180.72 196.827 180.72 197.502C180.72 198.529 180.375 199.372 179.686 200.032C179.011 200.677 178.036 201 176.76 201H170.776V196.226V190H173.438H175.836C176.892 190 177.742 190.286 178.388 190.858C179.033 191.43 179.356 192.134 179.356 192.97C179.356 193.483 179.18 193.989 178.828 194.488ZM173.438 192.288V194.07H176.496C176.613 193.865 176.672 193.645 176.672 193.41C176.672 193.073 176.554 192.801 176.32 192.596C176.1 192.376 175.799 192.273 175.418 192.288H173.438ZM176.518 198.646C177.471 198.646 177.948 198.235 177.948 197.414C177.948 196.622 177.471 196.226 176.518 196.226H173.438V198.646H176.518ZM187.965 190H191.001L187.261 201C186.748 202.555 185.993 203.691 184.995 204.41C183.998 205.143 182.817 205.473 181.453 205.4V202.76C182.216 202.775 182.817 202.628 183.257 202.32C183.697 202.027 184.042 201.528 184.291 200.824L180.089 190H183.125L185.787 197.238L187.965 190ZM194.464 196.666C194.64 197.414 194.992 197.986 195.52 198.382C196.063 198.763 196.701 198.954 197.434 198.954C197.933 198.954 198.387 198.851 198.798 198.646C199.209 198.441 199.509 198.177 199.7 197.854L202.494 197.832C202.157 198.932 201.533 199.79 200.624 200.406C199.729 201.007 198.659 201.308 197.412 201.308C195.652 201.308 194.229 200.758 193.144 199.658C192.059 198.558 191.516 197.172 191.516 195.5C191.516 193.843 192.059 192.464 193.144 191.364C194.229 190.249 195.63 189.692 197.346 189.692C198.945 189.692 200.257 190.249 201.284 191.364C202.311 192.479 202.824 193.857 202.824 195.5C202.824 195.969 202.787 196.358 202.714 196.666H194.464ZM194.442 194.444H199.986C199.825 193.696 199.502 193.146 199.018 192.794C198.534 192.427 197.969 192.244 197.324 192.244C196.576 192.244 195.953 192.435 195.454 192.816C194.955 193.197 194.618 193.74 194.442 194.444ZM212.208 190V192.662H209.216V201H206.378V192.662H203.342V190H209.216H212.208Z" fill="#273940"/>
<path d="M88.2656 25.4916C88.2656 24.0958 87.1301 22.9603 85.7344 22.9603C84.3386 22.9603 83.2031 24.0958 83.2031 25.4916C83.2031 26.8873 84.3386 28.0228 85.7344 28.0228C87.1301 28.0228 88.2656 26.8873 88.2656 25.4916ZM84.1406 25.4916C84.1406 24.6128 84.8556 23.8978 85.7344 23.8978C86.6132 23.8978 87.3281 24.6128 87.3281 25.4916C87.3281 26.3704 86.6132 27.0853 85.7344 27.0853C84.8556 27.0853 84.1406 26.3704 84.1406 25.4916Z" fill="#273940"/>
<path d="M81.6457 31.5527C82.248 31.2458 82.6947 30.7227 82.9036 30.0799C83.1125 29.437 83.0585 28.7512 82.7516 28.1489C82.4448 27.5467 81.9217 27.0999 81.2788 26.891C80.6359 26.6821 79.9502 26.7361 79.3479 27.043C78.7456 27.3499 78.2989 27.873 78.09 28.5158C77.8811 29.1587 77.935 29.8445 78.2419 30.4467C78.5488 31.049 79.0719 31.4957 79.7148 31.7046C79.9722 31.7883 80.2364 31.8298 80.4994 31.8298C80.8933 31.8298 81.2845 31.7367 81.6457 31.5527V31.5527ZM80.0044 30.813C79.5997 30.6816 79.2704 30.4003 79.0772 30.0211C78.884 29.642 78.85 29.2102 78.9815 28.8055C79.113 28.4008 79.3943 28.0715 79.7734 27.8783C80.0008 27.7624 80.2471 27.7038 80.4951 27.7038C80.6606 27.7038 80.827 27.73 80.9891 27.7826C81.3938 27.9141 81.7231 28.1954 81.9163 28.5745C82.1095 28.9537 82.1435 29.3854 82.012 29.7901C81.8805 30.1949 81.5993 30.5241 81.2201 30.7174C80.8409 30.9105 80.4092 30.9445 80.0044 30.813Z" fill="#273940"/>
<path d="M81.0073 37.5042C81.4556 37.8299 81.9759 37.9867 82.4917 37.9867C83.2751 37.9867 84.0481 37.625 84.5427 36.9442C84.9401 36.3972 85.1007 35.7283 84.9949 35.0605C84.8891 34.3927 84.5297 33.8061 83.9827 33.4088C83.4357 33.0114 82.7669 32.8507 82.099 32.9566C81.4312 33.0623 80.8446 33.4218 80.4473 33.9687C79.627 35.0978 79.8782 36.6838 81.0073 37.5042V37.5042ZM81.2058 34.5198C81.456 34.1754 81.8253 33.9491 82.2457 33.8825C82.3301 33.8691 82.4146 33.8625 82.4984 33.8625C82.8322 33.8625 83.1566 33.9673 83.4318 34.1673C84.1427 34.6838 84.3008 35.6823 83.7843 36.3932C83.2678 37.1041 82.2693 37.2623 81.5584 36.7458C80.8474 36.2292 80.6893 35.2307 81.2058 34.5198Z" fill="#273940"/>
<path d="M88.9764 37.9866C89.4922 37.9866 90.0126 37.8298 90.4609 37.5042C91.5899 36.6838 91.8411 35.0978 91.0208 33.9687C90.6234 33.4218 90.0368 33.0623 89.3691 32.9565C88.7013 32.8508 88.0324 33.0114 87.4854 33.4087C86.9384 33.8061 86.5789 34.3927 86.4732 35.0605C86.3674 35.7282 86.528 36.3972 86.9254 36.9442C87.4201 37.6251 88.1929 37.9866 88.9764 37.9866V37.9866ZM88.0364 34.1672C88.3807 33.917 88.8018 33.8158 89.2224 33.8825C89.6428 33.9491 90.0121 34.1754 90.2623 34.5198C90.7788 35.2307 90.6207 36.2292 89.9097 36.7457C89.1988 37.2622 88.2003 37.1041 87.6838 36.3932C87.1673 35.6823 87.3255 34.6837 88.0364 34.1672V34.1672Z" fill="#273940"/>
<path d="M90.1913 26.8909C89.5484 27.0999 89.0253 27.5466 88.7185 28.1489C88.4116 28.7512 88.3577 29.4369 88.5665 30.0798C88.7755 30.7227 89.2222 31.2458 89.8245 31.5526C90.1856 31.7366 90.5768 31.8297 90.9707 31.8297C91.2337 31.8297 91.4981 31.7882 91.7554 31.7046C92.3983 31.4957 92.9214 31.049 93.2282 30.4467C93.5351 29.8444 93.5891 29.1587 93.3802 28.5158C93.1713 27.8729 92.7245 27.3498 92.1222 27.043C91.52 26.7361 90.8342 26.6822 90.1913 26.8909V26.8909ZM91.6967 27.8783C92.0758 28.0715 92.3571 28.4007 92.4886 28.8055C92.6201 29.2102 92.5861 29.6419 92.3929 30.0211C92.1997 30.4003 91.8704 30.6815 91.4657 30.813C91.0609 30.9445 90.6292 30.9106 90.2501 30.7173C89.8709 30.5241 89.5896 30.1949 89.4581 29.7901C89.3266 29.3854 89.3606 28.9537 89.5538 28.5745C89.747 28.1953 90.0763 27.9141 90.4811 27.7826C90.6431 27.7299 90.8095 27.7038 90.9751 27.7038C91.223 27.7038 91.4693 27.7624 91.6967 27.8783Z" fill="#273940"/>
<path d="M87.3399 31C87.3399 30.1137 86.6188 29.3926 85.7324 29.3926C84.8461 29.3926 84.125 30.1137 84.125 31C84.125 31.8864 84.8461 32.6075 85.7324 32.6075C86.6188 32.6075 87.3399 31.8864 87.3399 31ZM85.0625 31C85.0625 30.6306 85.363 30.3301 85.7324 30.3301C86.1019 30.3301 86.4024 30.6306 86.4024 31C86.4024 31.3694 86.1019 31.67 85.7324 31.67C85.363 31.67 85.0625 31.3694 85.0625 31V31Z" fill="#273940"/>
<path d="M98.8627 39.7073C98.3326 39.1772 97.6279 38.8853 96.8783 38.8853C96.1287 38.8853 95.424 39.1773 94.8939 39.7073C94.1913 40.4099 93.2571 40.7969 92.2634 40.7969H90.1344C91.3078 40.2693 92.3877 39.5273 93.3247 38.5903C95.3522 36.5629 96.4688 33.8672 96.4688 31C96.4688 28.9028 95.8638 26.871 94.7192 25.1243C94.5774 24.9077 94.2868 24.8472 94.0703 24.9891C93.8537 25.131 93.7932 25.4215 93.9351 25.6381C94.9793 27.2317 95.5312 29.0859 95.5312 31C95.5312 36.402 91.1364 40.7969 85.7344 40.7969C80.3324 40.7969 75.9375 36.402 75.9375 31C75.9375 25.598 80.3324 21.2031 85.7344 21.2031C87.6517 21.2031 89.5086 21.7568 91.104 22.8044C91.3204 22.9465 91.611 22.8863 91.7531 22.6698C91.8952 22.4534 91.835 22.1628 91.6185 22.0207C89.8698 20.8725 87.8351 20.2656 85.7344 20.2656C82.8671 20.2656 80.1715 21.3822 78.144 23.4097C76.1166 25.4372 75 28.1328 75 31C75 33.8672 76.1166 36.5629 78.144 38.5904C80.1715 40.6178 82.8671 41.7344 85.7344 41.7344H92.2634C93.5075 41.7344 94.6771 41.2499 95.5568 40.3702C95.9098 40.0172 96.3791 39.8228 96.8783 39.8228C97.3775 39.8228 97.8468 40.0172 98.1998 40.3702C98.3828 40.5532 98.6796 40.5532 98.8627 40.3702C99.0458 40.1871 99.0458 39.8903 98.8627 39.7073Z" fill="#273940"/>
<path d="M92.9961 24.2129C93.1194 24.2129 93.2403 24.1632 93.3275 24.076C93.4147 23.9884 93.4648 23.8679 93.4648 23.7446C93.4648 23.6209 93.4147 23.5004 93.3275 23.4128C93.2403 23.3256 93.1194 23.2759 92.9961 23.2759C92.8728 23.2759 92.7519 23.3256 92.6647 23.4128C92.5775 23.5004 92.5273 23.6209 92.5273 23.7446C92.5273 23.8679 92.5775 23.9888 92.6647 24.076C92.7519 24.1632 92.8728 24.2129 92.9961 24.2129Z" fill="#273940"/>
<path d="M152.971 119.48C151.753 118.204 150.071 117.451 148.158 117.451H138.532V117.335C138.532 115.885 137.952 114.493 136.967 113.566C135.981 112.58 134.647 112 133.198 112H115.802C114.295 112 112.961 112.58 111.975 113.566C110.99 114.551 110.41 115.885 110.41 117.335V117.451H100.842C98.9287 117.451 97.2471 118.204 96.0295 119.48C94.8118 120.698 94 122.437 94 124.293V153.169C94 155.083 94.7538 156.764 96.0295 157.982C97.2471 159.2 98.9867 160.011 100.842 160.011H148.158C150.071 160.011 151.753 159.258 152.971 157.982C154.188 156.764 155 155.025 155 153.169V124.293C155 122.379 154.246 120.698 152.971 119.48ZM151.985 153.169H151.927C151.927 154.213 151.521 155.141 150.825 155.837C150.129 156.532 149.202 156.938 148.158 156.938H100.842C99.7985 156.938 98.8707 156.532 98.1749 155.837C97.4791 155.141 97.0732 154.213 97.0732 153.169V124.293C97.0732 123.249 97.4791 122.321 98.1749 121.625C98.8707 120.93 99.7985 120.524 100.842 120.524H112.033C112.903 120.524 113.599 119.828 113.599 118.958V117.277C113.599 116.639 113.831 116.059 114.237 115.653C114.643 115.247 115.222 115.015 115.86 115.015H133.198C133.836 115.015 134.415 115.247 134.821 115.653C135.227 116.059 135.459 116.639 135.459 117.277V118.958C135.459 119.828 136.155 120.524 137.025 120.524H148.216C149.26 120.524 150.187 120.93 150.883 121.625C151.579 122.321 151.985 123.249 151.985 124.293V153.169Z" fill="#273940"/>
<path d="M124.499 124.467C120.556 124.467 116.961 126.09 114.409 128.642C111.8 131.251 110.234 134.788 110.234 138.731C110.234 142.674 111.858 146.269 114.409 148.82C117.019 151.43 120.556 152.995 124.499 152.995C128.442 152.995 132.037 151.372 134.588 148.82C137.197 146.211 138.763 142.674 138.763 138.731C138.763 134.788 137.139 131.193 134.588 128.642C132.037 126.09 128.442 124.467 124.499 124.467ZM132.385 146.675C130.355 148.646 127.572 149.922 124.499 149.922C121.425 149.922 118.642 148.646 116.613 146.675C114.583 144.646 113.366 141.862 113.366 138.789C113.366 135.716 114.641 132.933 116.613 130.903C118.642 128.874 121.425 127.656 124.499 127.656C127.572 127.656 130.355 128.932 132.385 130.903C134.414 132.933 135.632 135.716 135.632 138.789C135.69 141.862 134.414 144.646 132.385 146.675Z" fill="#273940"/>
<path d="M145.142 130.091C146.711 130.091 147.983 128.819 147.983 127.25C147.983 125.681 146.711 124.409 145.142 124.409C143.573 124.409 142.301 125.681 142.301 127.25C142.301 128.819 143.573 130.091 145.142 130.091Z" fill="#273940"/>
</svg>
