<svg xmlns="http://www.w3.org/2000/svg" version="1.1" xmlns:xlink="http://www.w3.org/1999/xlink" width="48" height="48"><svg width="48" height="48" viewBox="0 0 48 48" fill="none" xmlns="http://www.w3.org/2000/svg">
<rect width="48" height="48" rx="4" fill="#0B3747"></rect>
<path d="M29.775 36.05C29.6417 36.5333 29.4333 36.9083 29.15 37.175C28.8667 37.425 28.5583 37.6167 28.225 37.75C27.8917 37.8667 27.55 37.9417 27.2 37.975C26.8667 37.9917 26.5917 38 26.375 38H22C21.4167 38 20.975 37.9417 20.675 37.825C20.375 37.7083 20.1667 37.55 20.05 37.35C19.95 37.1333 19.9167 36.8917 19.95 36.625C20 36.3417 20.0833 36.0417 20.2 35.725L22.225 30.45L16.175 37.1C15.7417 37.5667 15.325 37.875 14.925 38.025C14.5417 38.175 14.0917 38.2167 13.575 38.15C13.1917 38.1 12.8917 38 12.675 37.85C12.475 37.7 12.3333 37.5167 12.25 37.3C12.1833 37.0667 12.1667 36.8167 12.2 36.55C12.2333 36.2667 12.3 35.9917 12.4 35.725L15.4 27.975L7.875 37.075C7.85833 37.0917 7.78333 37.175 7.65 37.325C7.51667 37.4583 7.275 37.6083 6.925 37.775C6.575 37.925 6.15 38 5.65 38H3.175L8.1 23.9H1.325L3.175 20.825H11.325C11.625 20.825 11.9 20.8583 12.15 20.925C12.4 20.975 12.6 21.0917 12.75 21.275C12.9 21.4417 12.9833 21.6833 13 22C13.0167 22.3 12.9417 22.7 12.775 23.2L10.15 30.775L15.4 24.825C15.6667 24.525 15.9167 24.25 16.15 24C16.4 23.7333 16.6667 23.5167 16.95 23.35C17.2333 23.1667 17.55 23.025 17.9 22.925C18.2667 22.825 18.7167 22.775 19.25 22.775C19.3167 22.775 19.4583 22.8083 19.675 22.875C19.9083 22.925 20.125 23.05 20.325 23.25C20.525 23.45 20.6583 23.7333 20.725 24.1C20.8083 24.4667 20.7333 24.9583 20.5 25.575L18.125 31.725L22.825 27C23.1083 26.7167 23.35 26.475 23.55 26.275C23.75 26.075 23.95 25.9167 24.15 25.8C24.3667 25.6833 24.6 25.6 24.85 25.55C25.1 25.5 25.4167 25.475 25.8 25.475C25.8667 25.475 26.0167 25.5083 26.25 25.575C26.5 25.6417 26.7333 25.7833 26.95 26C27.1667 26.2 27.3167 26.4917 27.4 26.875C27.5 27.2417 27.4333 27.7333 27.2 28.35L24.275 36.05H29.775Z" fill="#F3BF0B"></path>
<path d="M43.1031 36.05C42.9198 36.6833 42.5615 37.1667 42.0281 37.5C41.5115 37.8333 40.9281 38 40.2781 38H32.3031C32.0865 38 31.8448 37.9917 31.5781 37.975C31.3115 37.9583 31.0615 37.9083 30.8281 37.825C30.5948 37.7417 30.3948 37.625 30.2281 37.475C30.0781 37.3083 30.0031 37.0833 30.0031 36.8C30.0031 36.5833 30.0365 36.3667 30.1031 36.15C30.1698 35.9333 30.3448 35.675 30.6281 35.375L34.2531 31.65H30.1031L30.7781 29.7H41.1031L35.3031 36.05H43.1031Z" fill="white"></path>
<path d="M37.1602 13.7905C37.1602 12.5111 36.1193 11.4702 34.8398 11.4702C33.5604 11.4702 32.5195 12.5111 32.5195 13.7905C32.5195 15.07 33.5604 16.1108 34.8398 16.1108C36.1193 16.1108 37.1602 15.07 37.1602 13.7905ZM33.3789 13.7905C33.3789 12.9849 34.0343 12.3296 34.8398 12.3296C35.6454 12.3296 36.3008 12.9849 36.3008 13.7905C36.3008 14.5961 35.6454 15.2515 34.8398 15.2515C34.0343 15.2515 33.3789 14.5961 33.3789 13.7905Z" fill="white"></path>
<path d="M31.0889 19.3464C31.641 19.0651 32.0505 18.5856 32.242 17.9963C32.4335 17.407 32.3841 16.7784 32.1027 16.2263C31.8214 15.6742 31.3419 15.2647 30.7527 15.0732C30.1633 14.8817 29.5347 14.9312 28.9827 15.2125C28.4305 15.4938 28.0211 15.9733 27.8295 16.5626C27.6381 17.1519 27.6875 17.7805 27.9688 18.3326C28.2502 18.8847 28.7297 19.2942 29.3189 19.4857C29.5549 19.5624 29.7971 19.6004 30.0382 19.6004C30.3993 19.6004 30.7579 19.5151 31.0889 19.3464V19.3464ZM29.5845 18.6684C29.2135 18.5479 28.9116 18.2901 28.7345 17.9425C28.5574 17.5949 28.5262 17.1992 28.6468 16.8282C28.7673 16.4572 29.0251 16.1553 29.3727 15.9782C29.5812 15.872 29.8069 15.8183 30.0342 15.8183C30.186 15.8183 30.3385 15.8423 30.4871 15.8905C30.8581 16.011 31.1599 16.2689 31.337 16.6164C31.5142 16.964 31.5453 17.3597 31.4247 17.7307C31.3042 18.1017 31.0464 18.4036 30.6988 18.5807C30.3512 18.7578 29.9555 18.7889 29.5845 18.6684Z" fill="white"></path>
<path d="M30.5064 24.8018C30.9173 25.1003 31.3943 25.2441 31.867 25.2441C32.5851 25.2441 33.2938 24.9126 33.7472 24.2885C34.1115 23.7871 34.2587 23.1739 34.1617 22.5617C34.0647 21.9496 33.7352 21.4119 33.2338 21.0476C32.7324 20.6834 32.1193 20.5361 31.5071 20.6331C30.895 20.7301 30.3573 21.0596 29.993 21.5609C29.2411 22.5959 29.4714 24.0498 30.5064 24.8018V24.8018ZM30.6883 22.0661C30.9177 21.7504 31.2562 21.5429 31.6416 21.4819C31.719 21.4696 31.7964 21.4636 31.8732 21.4636C32.1792 21.4636 32.4765 21.5596 32.7288 21.7429C33.3805 22.2164 33.5254 23.1317 33.052 23.7834C32.5785 24.435 31.6632 24.58 31.0115 24.1065C30.3598 23.6331 30.2149 22.7177 30.6883 22.0661Z" fill="white"></path>
<path d="M37.812 25.244C38.2848 25.244 38.7619 25.1002 39.1728 24.8017C40.2078 24.0497 40.438 22.5959 39.6861 21.5609C39.3218 21.0596 38.7841 20.73 38.172 20.6331C37.5599 20.5361 36.9466 20.6834 36.4452 21.0476C35.9438 21.4119 35.6144 21.9496 35.5174 22.5617C35.4204 23.1738 35.5677 23.787 35.9319 24.2884C36.3854 24.9126 37.0939 25.244 37.812 25.244V25.244ZM36.9503 21.7429C37.266 21.5135 37.6519 21.4207 38.0375 21.4818C38.4229 21.5429 38.7614 21.7504 38.9908 22.0661C39.4642 22.7177 39.3193 23.633 38.6676 24.1065C38.0159 24.58 37.1006 24.435 36.6271 23.7833C36.1537 23.1317 36.2987 22.2163 36.9503 21.7429V21.7429Z" fill="white"></path>
<path d="M38.9244 15.0731C38.3351 15.2647 37.8556 15.6741 37.5743 16.2263C37.293 16.7784 37.2435 17.4069 37.435 17.9963C37.6265 18.5856 38.036 19.0651 38.5881 19.3463C38.9192 19.515 39.2777 19.6004 39.6388 19.6004C39.8799 19.6004 40.1222 19.5623 40.3581 19.4857C40.9475 19.2942 41.4269 18.8847 41.7082 18.3326C41.9895 17.7805 42.039 17.1519 41.8475 16.5626C41.656 15.9733 41.2465 15.4938 40.6944 15.2125C40.1423 14.9312 39.5137 14.8818 38.9244 15.0731V15.0731ZM40.3043 15.9782C40.6519 16.1553 40.9097 16.4571 41.0302 16.8282C41.1508 17.1992 41.1196 17.5949 40.9425 17.9425C40.7654 18.29 40.4636 18.5479 40.0925 18.6684C39.7215 18.7889 39.3258 18.7578 38.9782 18.5807C38.6307 18.4036 38.3728 18.1018 38.2523 17.7307C38.1317 17.3597 38.1629 16.964 38.34 16.6164C38.5171 16.2688 38.819 16.011 39.19 15.8905C39.3385 15.8422 39.491 15.8183 39.6428 15.8183C39.8701 15.8183 40.0959 15.872 40.3043 15.9782Z" fill="white"></path>
<path d="M36.3142 18.8397C36.3142 18.0272 35.6532 17.3662 34.8407 17.3662C34.0282 17.3662 33.3672 18.0272 33.3672 18.8397C33.3672 19.6522 34.0282 20.3132 34.8407 20.3132C35.6532 20.3132 36.3142 19.6522 36.3142 18.8397ZM34.2266 18.8397C34.2266 18.5011 34.502 18.2256 34.8407 18.2256C35.1793 18.2256 35.4548 18.5011 35.4548 18.8397C35.4548 19.1783 35.1793 19.4538 34.8407 19.4538C34.502 19.4538 34.2266 19.1783 34.2266 18.8397V18.8397Z" fill="white"></path>
<path d="M46.8741 26.8215C46.3883 26.3356 45.7423 26.068 45.0551 26.068C44.368 26.068 43.722 26.3357 43.2361 26.8215C42.592 27.4656 41.7356 27.8203 40.8248 27.8203H38.8732C39.9488 27.3367 40.9387 26.6565 41.7976 25.7976C43.6562 23.9392 44.6797 21.4682 44.6797 18.8398C44.6797 16.9174 44.1251 15.0549 43.076 13.4538C42.9459 13.2552 42.6795 13.1998 42.4811 13.3298C42.2825 13.4599 42.2271 13.7263 42.3571 13.9247C43.3144 15.3856 43.8203 17.0852 43.8203 18.8398C43.8203 23.7917 39.7917 27.8203 34.8398 27.8203C29.888 27.8203 25.8594 23.7917 25.8594 18.8398C25.8594 13.888 29.888 9.85938 34.8398 9.85938C36.5974 9.85938 38.2995 10.3669 39.762 11.3272C39.9603 11.4575 40.2268 11.4023 40.357 11.2038C40.4873 11.0054 40.4321 10.7391 40.2337 10.6088C38.6307 9.55632 36.7655 9 34.8398 9C32.2115 9 29.7405 10.0235 27.882 11.882C26.0236 13.7406 25 16.2115 25 18.8398C25 21.4682 26.0235 23.9392 27.882 25.7977C29.7405 27.6562 32.2115 28.6797 34.8398 28.6797H40.8248C41.9652 28.6797 43.0374 28.2356 43.8438 27.4292C44.1673 27.1056 44.5975 26.9274 45.0551 26.9274C45.5127 26.9274 45.9429 27.1056 46.2664 27.4292C46.4342 27.597 46.7063 27.597 46.8741 27.4292C47.0419 27.2614 47.0419 26.9893 46.8741 26.8215Z" fill="white"></path>
<path d="M41.4961 12.6182C41.6091 12.6182 41.72 12.5727 41.7999 12.4928C41.8798 12.4124 41.9258 12.302 41.9258 12.189C41.9258 12.0755 41.8798 11.9651 41.7999 11.8847C41.72 11.8048 41.6091 11.7593 41.4961 11.7593C41.3831 11.7593 41.2722 11.8048 41.1923 11.8847C41.1124 11.9651 41.0664 12.0755 41.0664 12.189C41.0664 12.302 41.1124 12.4128 41.1923 12.4928C41.2722 12.5727 41.3831 12.6182 41.4961 12.6182Z" fill="white"></path>
</svg><style>@media (prefers-color-scheme: light) { :root { filter: none; } }
@media (prefers-color-scheme: dark) { :root { filter: none; } }
</style></svg>