<svg width="52" height="52" viewBox="0 0 52 52" fill="none" xmlns="http://www.w3.org/2000/svg">
<circle cx="26" cy="26" r="26" fill="#42C92B" fill-opacity="0.7"/>
<path d="M26 0C31.1423 6.13215e-08 36.1691 1.52487 40.4448 4.38179C44.7205 7.23871 48.053 11.2994 50.0209 16.0502C51.9887 20.8011 52.5036 26.0288 51.5004 31.0723C50.4972 36.1159 48.0209 40.7486 44.3848 44.3848C40.7486 48.0209 36.1159 50.4972 31.0723 51.5004C26.0288 52.5036 20.8011 51.9887 16.0502 50.0209C11.2994 48.053 7.23871 44.7205 4.38179 40.4448C1.52487 36.1691 -1.22643e-07 31.1423 0 26L7.91077 26C7.91077 29.5777 8.97169 33.0751 10.9594 36.0498C12.947 39.0246 15.7722 41.3431 19.0776 42.7123C22.3829 44.0814 26.0201 44.4396 29.529 43.7417C33.038 43.0437 36.2612 41.3208 38.791 38.791C41.3208 36.2612 43.0437 33.038 43.7417 29.529C44.4396 26.0201 44.0814 22.3829 42.7123 19.0776C41.3431 15.7722 39.0246 12.947 36.0498 10.9594C33.0751 8.97169 29.5777 7.91077 26 7.91077L26 0Z" fill="#45E02C"/>
</svg>
