<svg width="478" height="478" viewBox="0 0 478 478" fill="none" xmlns="http://www.w3.org/2000/svg">
<rect width="477.35" height="477.35" rx="10" fill="#051B24"/>
<path d="M194.793 421.196C194.793 419.219 193.184 417.61 191.207 417.61C189.23 417.61 187.621 419.219 187.621 421.196C187.621 423.174 189.23 424.782 191.207 424.782C193.184 424.782 194.793 423.174 194.793 421.196ZM188.949 421.196C188.949 419.951 189.962 418.938 191.207 418.938C192.452 418.938 193.465 419.951 193.465 421.196C193.465 422.441 192.452 423.454 191.207 423.454C189.962 423.454 188.949 422.441 188.949 421.196Z" fill="#273940"/>
<path d="M185.413 429.783C186.266 429.348 186.899 428.607 187.195 427.696C187.491 426.786 187.414 425.814 186.98 424.961C186.545 424.108 185.804 423.475 184.893 423.179C183.982 422.883 183.011 422.959 182.158 423.394C181.304 423.829 180.671 424.57 180.376 425.481C180.08 426.391 180.156 427.363 180.591 428.216C181.026 429.069 181.767 429.702 182.677 429.998C183.042 430.117 183.416 430.175 183.789 430.175C184.347 430.175 184.901 430.043 185.413 429.783ZM183.088 428.735C182.514 428.549 182.048 428.15 181.774 427.613C181.5 427.076 181.452 426.464 181.639 425.891C181.825 425.318 182.223 424.851 182.76 424.577C183.083 424.413 183.431 424.33 183.783 424.33C184.017 424.33 184.253 424.367 184.483 424.442C185.056 424.628 185.522 425.027 185.796 425.564C186.07 426.101 186.118 426.712 185.932 427.286C185.745 427.859 185.347 428.326 184.81 428.599C184.273 428.873 183.661 428.921 183.088 428.735Z" fill="#273940"/>
<path d="M184.513 438.214C185.148 438.675 185.885 438.898 186.616 438.898C187.726 438.898 188.821 438.385 189.521 437.421C190.084 436.646 190.312 435.698 190.162 434.752C190.012 433.806 189.503 432.975 188.728 432.412C187.953 431.849 187.006 431.622 186.06 431.772C185.114 431.921 184.283 432.431 183.72 433.205C182.558 434.805 182.913 437.052 184.513 438.214ZM184.794 433.986C185.149 433.498 185.672 433.178 186.267 433.083C186.387 433.064 186.507 433.055 186.625 433.055C187.098 433.055 187.558 433.203 187.948 433.487C188.955 434.218 189.179 435.633 188.447 436.64C187.715 437.647 186.301 437.871 185.294 437.14C184.286 436.408 184.062 434.993 184.794 433.986Z" fill="#273940"/>
<path d="M195.798 438.897C196.529 438.897 197.266 438.675 197.901 438.214C199.501 437.052 199.857 434.805 198.695 433.205C198.132 432.431 197.301 431.921 196.355 431.772C195.409 431.622 194.461 431.849 193.686 432.412C192.911 432.975 192.402 433.806 192.252 434.752C192.102 435.698 192.33 436.646 192.893 437.421C193.593 438.385 194.688 438.897 195.798 438.897ZM194.467 433.487C194.954 433.132 195.551 432.989 196.147 433.083C196.742 433.178 197.266 433.498 197.62 433.986C198.352 434.993 198.128 436.408 197.121 437.14C196.113 437.871 194.699 437.647 193.967 436.64C193.235 435.633 193.459 434.218 194.467 433.487Z" fill="#273940"/>
<path d="M197.521 423.179C196.61 423.475 195.869 424.107 195.435 424.961C195 425.814 194.923 426.785 195.219 427.696C195.515 428.607 196.148 429.348 197.001 429.783C197.513 430.043 198.067 430.175 198.625 430.175C198.998 430.175 199.372 430.116 199.737 429.998C200.648 429.702 201.389 429.069 201.823 428.216C202.258 427.363 202.334 426.391 202.039 425.48C201.743 424.57 201.11 423.829 200.257 423.394C199.403 422.959 198.432 422.883 197.521 423.179ZM199.654 424.577C200.191 424.851 200.589 425.318 200.775 425.891C200.962 426.464 200.914 427.076 200.64 427.613C200.366 428.15 199.9 428.549 199.326 428.735C198.753 428.921 198.141 428.873 197.604 428.599C197.067 428.326 196.669 427.859 196.482 427.286C196.296 426.712 196.344 426.101 196.618 425.564C196.892 425.027 197.358 424.628 197.931 424.442C198.161 424.367 198.397 424.33 198.631 424.33C198.983 424.33 199.331 424.413 199.654 424.577Z" fill="#273940"/>
<path d="M193.484 429C193.484 427.744 192.463 426.723 191.207 426.723C189.951 426.723 188.93 427.744 188.93 429C188.93 430.256 189.951 431.277 191.207 431.277C192.463 431.277 193.484 430.256 193.484 429ZM190.258 429C190.258 428.477 190.684 428.051 191.207 428.051C191.73 428.051 192.156 428.477 192.156 429C192.156 429.523 191.73 429.949 191.207 429.949C190.684 429.949 190.258 429.523 190.258 429Z" fill="#273940"/>
<path d="M209.805 441.335C209.055 440.584 208.056 440.171 206.994 440.171C205.932 440.171 204.934 440.584 204.183 441.335C203.188 442.331 201.864 442.879 200.456 442.879H197.44C199.103 442.132 200.633 441.08 201.96 439.753C204.832 436.881 206.414 433.062 206.414 429C206.414 426.029 205.557 423.151 203.936 420.676C203.735 420.369 203.323 420.284 203.016 420.485C202.709 420.686 202.624 421.097 202.825 421.404C204.304 423.662 205.086 426.288 205.086 429C205.086 436.653 198.86 442.879 191.207 442.879C183.554 442.879 177.328 436.653 177.328 429C177.328 421.347 183.554 415.121 191.207 415.121C193.923 415.121 196.554 415.905 198.814 417.39C199.121 417.591 199.532 417.506 199.734 417.199C199.935 416.892 199.85 416.481 199.543 416.279C197.066 414.653 194.183 413.793 191.207 413.793C187.145 413.793 183.326 415.375 180.454 418.247C177.582 421.119 176 424.938 176 429C176 433.062 177.582 436.881 180.454 439.753C183.326 442.625 187.145 444.207 191.207 444.207H200.456C202.219 444.207 203.876 443.521 205.122 442.274C205.622 441.774 206.287 441.499 206.994 441.499C207.701 441.499 208.366 441.774 208.866 442.274C209.126 442.534 209.546 442.534 209.805 442.274C210.065 442.015 210.065 441.595 209.805 441.335Z" fill="#273940"/>
<path d="M201.495 419.385C201.67 419.385 201.841 419.315 201.965 419.191C202.088 419.067 202.159 418.896 202.159 418.722C202.159 418.546 202.088 418.376 201.965 418.252C201.841 418.128 201.67 418.058 201.495 418.058C201.32 418.058 201.149 418.128 201.026 418.252C200.902 418.376 200.831 418.546 200.831 418.722C200.831 418.896 200.902 419.068 201.026 419.191C201.149 419.315 201.32 419.385 201.495 419.385Z" fill="#273940"/>
<path d="M181.775 452.05C181.642 452.533 181.433 452.908 181.15 453.175C180.867 453.425 180.558 453.617 180.225 453.75C179.892 453.867 179.55 453.942 179.2 453.975C178.867 453.992 178.592 454 178.375 454H174C173.417 454 172.975 453.942 172.675 453.825C172.375 453.708 172.167 453.55 172.05 453.35C171.95 453.133 171.917 452.892 171.95 452.625C172 452.342 172.083 452.042 172.2 451.725L174.225 446.45L168.175 453.1C167.742 453.567 167.325 453.875 166.925 454.025C166.542 454.175 166.092 454.217 165.575 454.15C165.192 454.1 164.892 454 164.675 453.85C164.475 453.7 164.333 453.517 164.25 453.3C164.183 453.067 164.167 452.817 164.2 452.55C164.233 452.267 164.3 451.992 164.4 451.725L167.4 443.975L159.875 453.075C159.858 453.092 159.783 453.175 159.65 453.325C159.517 453.458 159.275 453.608 158.925 453.775C158.575 453.925 158.15 454 157.65 454H155.175L160.1 439.9H153.325L155.175 436.825H163.325C163.625 436.825 163.9 436.858 164.15 436.925C164.4 436.975 164.6 437.092 164.75 437.275C164.9 437.442 164.983 437.683 165 438C165.017 438.3 164.942 438.7 164.775 439.2L162.15 446.775L167.4 440.825C167.667 440.525 167.917 440.25 168.15 440C168.4 439.733 168.667 439.517 168.95 439.35C169.233 439.167 169.55 439.025 169.9 438.925C170.267 438.825 170.717 438.775 171.25 438.775C171.317 438.775 171.458 438.808 171.675 438.875C171.908 438.925 172.125 439.05 172.325 439.25C172.525 439.45 172.658 439.733 172.725 440.1C172.808 440.467 172.733 440.958 172.5 441.575L170.125 447.725L174.825 443C175.108 442.717 175.35 442.475 175.55 442.275C175.75 442.075 175.95 441.917 176.15 441.8C176.367 441.683 176.6 441.6 176.85 441.55C177.1 441.5 177.417 441.475 177.8 441.475C177.867 441.475 178.017 441.508 178.25 441.575C178.5 441.642 178.733 441.783 178.95 442C179.167 442.2 179.317 442.492 179.4 442.875C179.5 443.242 179.433 443.733 179.2 444.35L176.275 452.05H181.775ZM202.578 445.7C202.578 445.7 202.545 445.8 202.478 446C202.428 446.2 202.303 446.425 202.103 446.675C201.903 446.925 201.603 447.15 201.203 447.35C200.82 447.55 200.303 447.65 199.653 447.65H192.003C192.153 447.75 192.286 447.892 192.403 448.075C192.52 448.258 192.611 448.458 192.678 448.675C192.761 448.875 192.82 449.083 192.853 449.3C192.886 449.517 192.895 449.708 192.878 449.875C192.828 450.575 192.645 451.192 192.328 451.725C192.011 452.258 191.595 452.708 191.078 453.075C190.578 453.442 189.978 453.725 189.278 453.925C188.595 454.108 187.853 454.2 187.053 454.2C185.92 454.2 184.961 454.075 184.178 453.825C183.411 453.575 182.795 453.242 182.328 452.825C181.878 452.408 181.57 451.933 181.403 451.4C181.236 450.85 181.203 450.283 181.303 449.7C181.503 448.5 182.103 447.533 183.103 446.8C184.12 446.067 185.561 445.7 187.428 445.7H202.578ZM189.278 447.65H186.478L185.378 450.775C185.228 451.225 185.261 451.558 185.478 451.775C185.695 451.975 185.961 452.117 186.278 452.2C186.611 452.267 186.92 452.3 187.203 452.3C187.503 452.283 187.653 452.275 187.653 452.275L189.278 447.65ZM221.866 445.7C221.749 446.1 221.558 446.433 221.291 446.7C221.041 446.95 220.766 447.15 220.466 447.3C220.166 447.433 219.866 447.525 219.566 447.575C219.266 447.625 219.016 447.65 218.816 447.65H213.691L208.516 454H203.641L203.116 445.7H207.541L207.616 451.7L212.191 445.7H221.866ZM228.581 440.7C228.581 441.1 228.498 441.483 228.331 441.85C228.165 442.2 227.931 442.508 227.631 442.775C227.348 443.042 227.006 443.25 226.606 443.4C226.223 443.55 225.806 443.625 225.356 443.625C224.906 443.625 224.481 443.55 224.081 443.4C223.698 443.25 223.356 443.042 223.056 442.775C222.756 442.508 222.523 442.2 222.356 441.85C222.19 441.483 222.106 441.1 222.106 440.7C222.106 440.3 222.19 439.925 222.356 439.575C222.523 439.208 222.756 438.892 223.056 438.625C223.356 438.358 223.698 438.15 224.081 438C224.481 437.85 224.906 437.775 225.356 437.775C225.806 437.775 226.223 437.85 226.606 438C227.006 438.15 227.348 438.358 227.631 438.625C227.931 438.892 228.165 439.208 228.331 439.575C228.498 439.925 228.581 440.3 228.581 440.7ZM229.456 452.05C229.34 452.45 229.156 452.783 228.906 453.05C228.673 453.3 228.415 453.5 228.131 453.65C227.865 453.783 227.59 453.875 227.306 453.925C227.023 453.975 226.781 454 226.581 454H221.756C221.09 454 220.598 453.8 220.281 453.4C219.948 452.983 219.915 452.4 220.181 451.65L222.306 445.7H226.731L224.481 452.05H229.456ZM244.609 452.05C244.509 452.383 244.35 452.675 244.134 452.925C243.934 453.158 243.692 453.358 243.409 453.525C243.142 453.692 242.842 453.817 242.509 453.9C242.192 453.967 241.875 454 241.559 454H234.759C234.159 454 233.509 453.958 232.809 453.875C232.125 453.792 231.484 453.625 230.884 453.375C230.3 453.125 229.817 452.767 229.434 452.3C229.034 451.833 228.834 451.208 228.834 450.425C228.834 449.608 229.025 448.9 229.409 448.3C229.775 447.7 230.259 447.208 230.859 446.825C231.459 446.442 232.125 446.158 232.859 445.975C233.592 445.792 234.309 445.7 235.009 445.7H236.784C237.167 445.7 237.6 445.733 238.084 445.8C238.584 445.867 239.05 445.992 239.484 446.175C239.934 446.358 240.309 446.608 240.609 446.925C240.925 447.225 241.1 447.617 241.134 448.1C241.167 448.6 241.059 449.033 240.809 449.4C240.559 449.75 240.25 450.042 239.884 450.275H235.834L237.159 447.65H234.584L233.584 450.6C233.484 450.9 233.467 451.15 233.534 451.35C233.617 451.533 233.742 451.683 233.909 451.8C234.075 451.9 234.267 451.967 234.484 452C234.7 452.033 234.9 452.05 235.084 452.05H244.609ZM273.734 445.7C273.551 446.283 273.293 446.758 272.959 447.125C272.626 447.475 272.126 447.65 271.459 447.65H263.934C263.951 447.7 263.959 447.792 263.959 447.925V448.175C263.959 449.408 263.618 450.575 262.934 451.675C262.268 452.775 261.409 453.742 260.359 454.575C259.309 455.408 258.159 456.067 256.909 456.55C255.659 457.05 254.459 457.3 253.309 457.3C252.743 457.3 252.226 457.217 251.759 457.05C251.293 456.883 250.901 456.642 250.584 456.325C250.251 456.025 250.001 455.65 249.834 455.2C249.668 454.767 249.601 454.267 249.634 453.7C249.701 452.533 250.018 451.492 250.584 450.575C251.151 449.642 251.851 448.85 252.684 448.2C253.534 447.533 254.468 447 255.484 446.6C256.518 446.2 257.534 445.933 258.534 445.8C258.301 445.317 258.001 444.883 257.634 444.5C257.284 444.117 256.893 443.758 256.459 443.425L263.209 439.9H254.034L255.884 436.825H268.584C268.601 437.725 268.484 438.483 268.234 439.1C267.984 439.717 267.451 440.242 266.634 440.675C265.001 441.575 263.359 442.458 261.709 443.325C262.109 443.642 262.459 444 262.759 444.4C263.076 444.783 263.318 445.217 263.484 445.7H273.734ZM259.584 448.075C259.568 448.025 259.551 447.967 259.534 447.9C259.518 447.817 259.468 447.733 259.384 447.65C259.018 447.7 258.626 447.817 258.209 448C257.793 448.167 257.384 448.383 256.984 448.65C256.584 448.9 256.209 449.175 255.859 449.475C255.509 449.775 255.226 450.075 255.009 450.375C254.826 450.625 254.618 450.908 254.384 451.225C254.168 451.542 253.968 451.875 253.784 452.225C253.601 452.575 253.443 452.933 253.309 453.3C253.193 453.65 253.134 453.983 253.134 454.3C253.134 454.617 253.209 454.875 253.359 455.075C253.509 455.275 253.751 455.375 254.084 455.375C254.501 455.375 254.934 455.267 255.384 455.05C255.834 454.833 256.276 454.533 256.709 454.15C257.159 453.783 257.576 453.358 257.959 452.875C258.343 452.392 258.668 451.883 258.934 451.35C259.201 450.8 259.393 450.25 259.509 449.7C259.643 449.133 259.668 448.592 259.584 448.075ZM292.861 445.7C292.861 445.7 292.828 445.8 292.761 446C292.711 446.2 292.586 446.425 292.386 446.675C292.186 446.925 291.886 447.15 291.486 447.35C291.103 447.55 290.586 447.65 289.936 447.65H282.286C282.436 447.75 282.57 447.892 282.686 448.075C282.803 448.258 282.895 448.458 282.961 448.675C283.045 448.875 283.103 449.083 283.136 449.3C283.17 449.517 283.178 449.708 283.161 449.875C283.111 450.575 282.928 451.192 282.611 451.725C282.295 452.258 281.878 452.708 281.361 453.075C280.861 453.442 280.261 453.725 279.561 453.925C278.878 454.108 278.136 454.2 277.336 454.2C276.203 454.2 275.245 454.075 274.461 453.825C273.695 453.575 273.078 453.242 272.611 452.825C272.161 452.408 271.853 451.933 271.686 451.4C271.52 450.85 271.486 450.283 271.586 449.7C271.786 448.5 272.386 447.533 273.386 446.8C274.403 446.067 275.845 445.7 277.711 445.7H292.861ZM279.561 447.65H276.761L275.661 450.775C275.511 451.225 275.545 451.558 275.761 451.775C275.978 451.975 276.245 452.117 276.561 452.2C276.895 452.267 277.203 452.3 277.486 452.3C277.786 452.283 277.936 452.275 277.936 452.275L279.561 447.65ZM307.853 452.05C307.736 452.45 307.544 452.783 307.278 453.05C307.028 453.3 306.753 453.5 306.453 453.65C306.153 453.783 305.853 453.875 305.553 453.925C305.253 453.975 305.003 454 304.803 454H299.928C299.161 454 298.661 453.842 298.428 453.525C298.194 453.192 298.194 452.7 298.428 452.05L299.353 449.425L295.153 452.975C295.153 452.975 295.069 453.033 294.903 453.15C294.753 453.25 294.561 453.367 294.328 453.5C294.094 453.617 293.828 453.733 293.528 453.85C293.244 453.95 292.978 454 292.728 454H290.478L293.403 445.7H297.803L296.428 449.6L300.153 446.55C300.586 446.2 301.053 445.908 301.553 445.675C302.053 445.442 302.678 445.342 303.428 445.375C303.628 445.375 303.819 445.425 304.003 445.525C304.186 445.608 304.336 445.742 304.453 445.925C304.569 446.108 304.628 446.342 304.628 446.625C304.644 446.908 304.578 447.25 304.428 447.65L302.853 452.05H307.853ZM323.198 452.05C323.098 452.383 322.939 452.675 322.723 452.925C322.523 453.158 322.281 453.358 321.998 453.525C321.731 453.692 321.431 453.817 321.098 453.9C320.781 453.967 320.464 454 320.148 454H313.348C312.748 454 312.098 453.958 311.398 453.875C310.714 453.792 310.073 453.625 309.473 453.375C308.889 453.125 308.406 452.767 308.023 452.3C307.623 451.833 307.423 451.208 307.423 450.425C307.423 449.608 307.614 448.9 307.998 448.3C308.364 447.7 308.848 447.208 309.448 446.825C310.048 446.442 310.714 446.158 311.448 445.975C312.181 445.792 312.898 445.7 313.598 445.7H315.373C315.756 445.7 316.189 445.733 316.673 445.8C317.173 445.867 317.639 445.992 318.073 446.175C318.523 446.358 318.898 446.608 319.198 446.925C319.514 447.225 319.689 447.617 319.723 448.1C319.756 448.6 319.648 449.033 319.398 449.4C319.148 449.75 318.839 450.042 318.473 450.275H314.423L315.748 447.65H313.173L312.173 450.6C312.073 450.9 312.056 451.15 312.123 451.35C312.206 451.533 312.331 451.683 312.498 451.8C312.664 451.9 312.856 451.967 313.073 452C313.289 452.033 313.489 452.05 313.673 452.05H323.198Z" fill="#273940"/>
<path d="M53.3984 280H57.5384V301H34.3484V280H38.4884V297.04H43.8884V280H47.9984V297.04H53.3984V280ZM71.198 286H74.078V301H70.298V292.3L64.148 301H61.268V286H65.048V294.7L71.198 286ZM86.3457 285.58C88.3657 285.58 90.0857 286.35 91.5057 287.89C92.9457 289.41 93.6657 291.28 93.6657 293.5C93.6657 295.72 92.9457 297.6 91.5057 299.14C90.0857 300.66 88.3657 301.42 86.3457 301.42C84.2657 301.42 82.6457 300.7 81.4857 299.26V307H77.6157V286H81.4857V287.74C82.6457 286.3 84.2657 285.58 86.3457 285.58ZM85.6257 297.73C86.8257 297.73 87.8157 297.34 88.5957 296.56C89.3957 295.76 89.7957 294.74 89.7957 293.5C89.7957 292.26 89.3957 291.25 88.5957 290.47C87.8157 289.67 86.8257 289.27 85.6257 289.27C84.4857 289.27 83.5257 289.64 82.7457 290.38C81.9657 291.1 81.5457 292.05 81.4857 293.23V293.77C81.5457 294.95 81.9657 295.91 82.7457 296.65C83.5257 297.37 84.4857 297.73 85.6257 297.73ZM106.325 286H109.205V301H105.425V292.3L99.275 301H96.395V286H100.175V294.7L106.325 286ZM121.683 286H125.553V301H121.683V295.3H116.613V301H112.743V286H116.613V291.67H121.683V286ZM135.09 285.58C136.85 285.58 138.31 286.1 139.47 287.14C140.63 288.16 141.21 289.6 141.21 291.46V301H137.43V299.71C136.49 300.85 135.13 301.42 133.35 301.42C131.93 301.42 130.73 301.01 129.75 300.19C128.79 299.35 128.31 298.18 128.31 296.68C128.31 295.18 128.79 294.02 129.75 293.2C130.73 292.38 131.93 291.97 133.35 291.97C135.05 291.97 136.41 292.41 137.43 293.29V291.7C137.43 290.02 136.65 289.18 135.09 289.18C134.39 289.18 133.83 289.36 133.41 289.72C132.99 290.06 132.78 290.52 132.78 291.1H129C129 289.4 129.58 288.06 130.74 287.08C131.92 286.08 133.37 285.58 135.09 285.58ZM134.67 298.54C135.51 298.54 136.18 298.37 136.68 298.03C137.18 297.67 137.43 297.22 137.43 296.68C137.43 296.1 137.18 295.65 136.68 295.33C136.2 294.99 135.53 294.82 134.67 294.82C133.85 294.82 133.23 294.99 132.81 295.33C132.39 295.67 132.18 296.12 132.18 296.68C132.18 297.24 132.39 297.69 132.81 298.03C133.23 298.37 133.85 298.54 134.67 298.54ZM161.784 286H164.664V301H160.884V292.3L154.734 301H151.854V286H155.634V294.7L161.784 286ZM176.992 292.45C178.332 293.31 179.002 294.6 179.002 296.32C179.002 297.76 178.472 298.97 177.412 299.95C176.352 300.93 174.872 301.42 172.972 301.42C171.052 301.42 169.562 300.93 168.502 299.95C167.442 298.97 166.912 297.71 166.912 296.17H170.752C170.752 297.35 171.492 297.94 172.972 297.94C174.432 297.94 175.162 297.34 175.162 296.14C175.162 295.6 174.962 295.18 174.562 294.88C174.182 294.56 173.652 294.4 172.972 294.4H171.562V291.46H173.122C173.162 291.46 173.222 291.47 173.302 291.49C173.382 291.49 173.442 291.49 173.482 291.49C173.962 291.13 174.202 290.71 174.202 290.23C174.202 289.37 173.702 288.94 172.702 288.94C171.682 288.94 171.172 289.41 171.172 290.35H167.452C167.452 288.87 167.922 287.71 168.862 286.87C169.802 286.01 171.122 285.58 172.822 285.58C174.402 285.58 175.652 285.99 176.572 286.81C177.492 287.63 177.952 288.65 177.952 289.87C177.952 290.85 177.632 291.71 176.992 292.45ZM194.019 299.14C192.479 300.66 190.599 301.42 188.379 301.42C186.159 301.42 184.279 300.66 182.739 299.14C181.219 297.6 180.459 295.72 180.459 293.5C180.459 291.28 181.219 289.41 182.739 287.89C184.279 286.35 186.159 285.58 188.379 285.58C190.599 285.58 192.479 286.35 194.019 287.89C195.559 289.41 196.329 291.28 196.329 293.5C196.329 295.72 195.559 297.6 194.019 299.14ZM185.469 296.47C186.249 297.25 187.219 297.64 188.379 297.64C189.539 297.64 190.509 297.25 191.289 296.47C192.069 295.69 192.459 294.7 192.459 293.5C192.459 292.3 192.069 291.31 191.289 290.53C190.509 289.75 189.539 289.36 188.379 289.36C187.219 289.36 186.249 289.75 185.469 290.53C184.709 291.31 184.329 292.3 184.329 293.5C184.329 294.7 184.709 295.69 185.469 296.47ZM206.041 301.42C203.761 301.42 201.891 300.7 200.431 299.26C198.991 297.82 198.271 295.99 198.271 293.77C198.271 292.61 198.441 291.54 198.781 290.56C199.121 289.56 199.561 288.71 200.101 288.01C200.661 287.29 201.271 286.63 201.931 286.03C202.611 285.43 203.281 284.89 203.941 284.41C204.621 283.91 205.231 283.44 205.771 283C206.331 282.54 206.781 282.06 207.121 281.56C207.461 281.04 207.631 280.52 207.631 280H211.741C211.741 281.04 211.521 281.95 211.081 282.73C210.641 283.51 210.071 284.15 209.371 284.65C208.691 285.15 207.981 285.6 207.241 286C206.501 286.4 205.761 286.86 205.021 287.38C204.281 287.88 203.731 288.4 203.371 288.94C204.431 288.14 205.691 287.74 207.151 287.74C208.791 287.74 210.281 288.36 211.621 289.6C212.961 290.84 213.631 292.43 213.631 294.37C213.631 296.41 212.921 298.1 211.501 299.44C210.081 300.76 208.261 301.42 206.041 301.42ZM206.011 297.88C207.111 297.88 208.011 297.55 208.711 296.89C209.411 296.21 209.761 295.37 209.761 294.37C209.761 293.35 209.391 292.51 208.651 291.85C207.931 291.17 207.021 290.83 205.921 290.83C204.941 290.83 204.071 291.14 203.311 291.76C202.571 292.38 202.201 293.21 202.201 294.25C202.201 295.31 202.561 296.18 203.281 296.86C204.021 297.54 204.931 297.88 206.011 297.88ZM224.686 285.58C226.706 285.58 228.426 286.35 229.846 287.89C231.286 289.41 232.006 291.28 232.006 293.5C232.006 295.72 231.286 297.6 229.846 299.14C228.426 300.66 226.706 301.42 224.686 301.42C222.606 301.42 220.986 300.7 219.826 299.26V307H215.956V286H219.826V287.74C220.986 286.3 222.606 285.58 224.686 285.58ZM223.966 297.73C225.166 297.73 226.156 297.34 226.936 296.56C227.736 295.76 228.136 294.74 228.136 293.5C228.136 292.26 227.736 291.25 226.936 290.47C226.156 289.67 225.166 289.27 223.966 289.27C222.826 289.27 221.866 289.64 221.086 290.38C220.306 291.1 219.886 292.05 219.826 293.23V293.77C219.886 294.95 220.306 295.91 221.086 296.65C221.866 297.37 222.826 297.73 223.966 297.73ZM240.413 285.58C242.173 285.58 243.633 286.1 244.793 287.14C245.953 288.16 246.533 289.6 246.533 291.46V301H242.753V299.71C241.813 300.85 240.453 301.42 238.673 301.42C237.253 301.42 236.053 301.01 235.073 300.19C234.113 299.35 233.633 298.18 233.633 296.68C233.633 295.18 234.113 294.02 235.073 293.2C236.053 292.38 237.253 291.97 238.673 291.97C240.373 291.97 241.733 292.41 242.753 293.29V291.7C242.753 290.02 241.973 289.18 240.413 289.18C239.713 289.18 239.153 289.36 238.733 289.72C238.313 290.06 238.103 290.52 238.103 291.1H234.323C234.323 289.4 234.903 288.06 236.063 287.08C237.243 286.08 238.693 285.58 240.413 285.58ZM239.993 298.54C240.833 298.54 241.503 298.37 242.003 298.03C242.503 297.67 242.753 297.22 242.753 296.68C242.753 296.1 242.503 295.65 242.003 295.33C241.523 294.99 240.853 294.82 239.993 294.82C239.173 294.82 238.553 294.99 238.133 295.33C237.713 295.67 237.503 296.12 237.503 296.68C237.503 297.24 237.713 297.69 238.133 298.03C238.553 298.37 239.173 298.54 239.993 298.54ZM269.516 301H265.166L260.576 294.28V301H256.796V294.28L252.206 301H247.886L253.286 293.41L248.186 286H252.506L256.796 292.51V286H260.576V292.51L264.866 286H269.216L264.086 293.41L269.516 301ZM273.805 295.09C274.045 296.11 274.525 296.89 275.245 297.43C275.985 297.95 276.855 298.21 277.855 298.21C278.535 298.21 279.155 298.07 279.715 297.79C280.275 297.51 280.685 297.15 280.945 296.71L284.755 296.68C284.295 298.18 283.445 299.35 282.205 300.19C280.985 301.01 279.525 301.42 277.825 301.42C275.425 301.42 273.485 300.67 272.005 299.17C270.525 297.67 269.785 295.78 269.785 293.5C269.785 291.24 270.525 289.36 272.005 287.86C273.485 286.34 275.395 285.58 277.735 285.58C279.915 285.58 281.705 286.34 283.105 287.86C284.505 289.38 285.205 291.26 285.205 293.5C285.205 294.14 285.155 294.67 285.055 295.09H273.805ZM273.775 292.06H281.335C281.115 291.04 280.675 290.29 280.015 289.81C279.355 289.31 278.585 289.06 277.705 289.06C276.685 289.06 275.835 289.32 275.155 289.84C274.475 290.36 274.015 291.1 273.775 292.06ZM296.79 286H300.66V301H296.79V295.3H291.72V301H287.85V286H291.72V291.67H296.79V286ZM314.128 286H317.008V301H313.228V292.3L307.078 301H304.198V286H307.978V294.7L314.128 286ZM332.575 286V301H328.795V296.32H327.235L323.395 301H318.925L323.185 295.84C322.245 295.42 321.495 294.78 320.935 293.92C320.395 293.06 320.125 292.14 320.125 291.16C320.125 289.76 320.625 288.55 321.625 287.53C322.625 286.51 323.935 286 325.555 286H332.575ZM325.855 289.45C325.295 289.45 324.825 289.62 324.445 289.96C324.085 290.28 323.905 290.72 323.905 291.28C323.905 291.82 324.085 292.25 324.445 292.57C324.825 292.89 325.295 293.05 325.855 293.05H328.795V289.45H325.855ZM356.502 297.49H358.482V301V305.32H354.702V301H346.002V305.32H342.222V299.92V297.49H343.962C344.882 296.23 345.342 294.42 345.342 292.06V286H349.122H355.092H356.502V297.49ZM348.132 297.49H352.722V289.48H349.122V292.06C349.122 294.24 348.792 296.05 348.132 297.49ZM373.257 299.14C371.717 300.66 369.837 301.42 367.617 301.42C365.397 301.42 363.517 300.66 361.977 299.14C360.457 297.6 359.697 295.72 359.697 293.5C359.697 291.28 360.457 289.41 361.977 287.89C363.517 286.35 365.397 285.58 367.617 285.58C369.837 285.58 371.717 286.35 373.257 287.89C374.797 289.41 375.567 291.28 375.567 293.5C375.567 295.72 374.797 297.6 373.257 299.14ZM364.707 296.47C365.487 297.25 366.457 297.64 367.617 297.64C368.777 297.64 369.747 297.25 370.527 296.47C371.307 295.69 371.697 294.7 371.697 293.5C371.697 292.3 371.307 291.31 370.527 290.53C369.747 289.75 368.777 289.36 367.617 289.36C366.457 289.36 365.487 289.75 364.707 290.53C363.947 291.31 363.567 292.3 363.567 293.5C363.567 294.7 363.947 295.69 364.707 296.47ZM389.851 286V301H385.981V289.72H382.681V294.73C382.681 299.31 380.571 301.46 376.351 301.18V297.55C377.991 297.77 378.811 296.76 378.811 294.52V286H382.681H389.851ZM413.627 301H409.277L404.687 294.28V301H400.907V294.28L396.317 301H391.997L397.397 293.41L392.297 286H396.617L400.907 292.51V286H404.687V292.51L408.977 286H413.327L408.197 293.41L413.627 301ZM424.7 286H428.57V301H424.7V295.3H419.63V301H415.76V286H419.63V291.67H424.7V286ZM438.108 285.58C439.868 285.58 441.328 286.1 442.488 287.14C443.648 288.16 444.228 289.6 444.228 291.46V301H440.448V299.71C439.508 300.85 438.148 301.42 436.368 301.42C434.948 301.42 433.748 301.01 432.768 300.19C431.808 299.35 431.328 298.18 431.328 296.68C431.328 295.18 431.808 294.02 432.768 293.2C433.748 292.38 434.948 291.97 436.368 291.97C438.068 291.97 439.428 292.41 440.448 293.29V291.7C440.448 290.02 439.668 289.18 438.108 289.18C437.408 289.18 436.848 289.36 436.428 289.72C436.008 290.06 435.798 290.52 435.798 291.1H432.018C432.018 289.4 432.598 288.06 433.758 287.08C434.938 286.08 436.388 285.58 438.108 285.58ZM437.688 298.54C438.528 298.54 439.198 298.37 439.698 298.03C440.198 297.67 440.448 297.22 440.448 296.68C440.448 296.1 440.198 295.65 439.698 295.33C439.218 294.99 438.548 294.82 437.688 294.82C436.868 294.82 436.248 294.99 435.828 295.33C435.408 295.67 435.198 296.12 435.198 296.68C435.198 297.24 435.408 297.69 435.828 298.03C436.248 298.37 436.868 298.54 437.688 298.54ZM89.3811 338.42C87.1011 338.42 85.2311 337.7 83.7711 336.26C82.3311 334.82 81.6111 332.99 81.6111 330.77C81.6111 329.61 81.7811 328.54 82.1211 327.56C82.4611 326.56 82.9011 325.71 83.4411 325.01C84.0011 324.29 84.6111 323.63 85.2711 323.03C85.9511 322.43 86.6211 321.89 87.2811 321.41C87.9611 320.91 88.5711 320.44 89.1111 320C89.6711 319.54 90.1211 319.06 90.4611 318.56C90.8011 318.04 90.9711 317.52 90.9711 317H95.0811C95.0811 318.04 94.8611 318.95 94.4211 319.73C93.9811 320.51 93.4111 321.15 92.7111 321.65C92.0311 322.15 91.3211 322.6 90.5811 323C89.8411 323.4 89.1011 323.86 88.3611 324.38C87.6211 324.88 87.0711 325.4 86.7111 325.94C87.7711 325.14 89.0311 324.74 90.4911 324.74C92.1311 324.74 93.6211 325.36 94.9611 326.6C96.3011 327.84 96.9711 329.43 96.9711 331.37C96.9711 333.41 96.2611 335.1 94.8411 336.44C93.4211 337.76 91.6011 338.42 89.3811 338.42ZM89.3511 334.88C90.4511 334.88 91.3511 334.55 92.0511 333.89C92.7511 333.21 93.1011 332.37 93.1011 331.37C93.1011 330.35 92.7311 329.51 91.9911 328.85C91.2711 328.17 90.3611 327.83 89.2611 327.83C88.2811 327.83 87.4111 328.14 86.6511 328.76C85.9111 329.38 85.5411 330.21 85.5411 331.25C85.5411 332.31 85.9011 333.18 86.6211 333.86C87.3611 334.54 88.2711 334.88 89.3511 334.88ZM106.075 327.8C107.775 327.8 109.145 328.27 110.185 329.21C111.225 330.13 111.745 331.36 111.745 332.9C111.745 334.44 111.225 335.68 110.185 336.62C109.145 337.54 107.775 338 106.075 338H100.225H99.2954V323H103.165V327.8H106.075ZM113.395 323H117.265V338H113.395V323ZM106.105 334.58C106.645 334.58 107.085 334.43 107.425 334.13C107.785 333.81 107.965 333.4 107.965 332.9C107.965 332.4 107.785 331.99 107.425 331.67C107.085 331.35 106.645 331.19 106.105 331.19H103.165V334.58H106.105ZM131.419 323V326.63H127.339V338H123.469V326.63H119.329V323H127.339H131.419ZM140.265 327.8C141.965 327.8 143.335 328.27 144.375 329.21C145.415 330.13 145.935 331.36 145.935 332.9C145.935 334.44 145.415 335.68 144.375 336.62C143.335 337.54 141.965 338 140.265 338H134.415H133.485V323H137.355V327.8H140.265ZM140.295 334.58C140.835 334.58 141.275 334.43 141.615 334.13C141.975 333.81 142.155 333.4 142.155 332.9C142.155 332.4 141.975 331.99 141.615 331.67C141.275 331.35 140.835 331.19 140.295 331.19H137.355V334.58H140.295ZM164.598 322.58C166.618 322.58 168.338 323.35 169.758 324.89C171.198 326.41 171.918 328.28 171.918 330.5C171.918 332.72 171.198 334.6 169.758 336.14C168.338 337.66 166.618 338.42 164.598 338.42C162.518 338.42 160.898 337.7 159.738 336.26V344H155.868V323H159.738V324.74C160.898 323.3 162.518 322.58 164.598 322.58ZM163.878 334.73C165.078 334.73 166.068 334.34 166.848 333.56C167.648 332.76 168.048 331.74 168.048 330.5C168.048 329.26 167.648 328.25 166.848 327.47C166.068 326.67 165.078 326.27 163.878 326.27C162.738 326.27 161.778 326.64 160.998 327.38C160.218 328.1 159.798 329.05 159.738 330.23V330.77C159.798 331.95 160.218 332.91 160.998 333.65C161.778 334.37 162.738 334.73 163.878 334.73ZM180.325 322.58C182.085 322.58 183.545 323.1 184.705 324.14C185.865 325.16 186.445 326.6 186.445 328.46V338H182.665V336.71C181.725 337.85 180.365 338.42 178.585 338.42C177.165 338.42 175.965 338.01 174.985 337.19C174.025 336.35 173.545 335.18 173.545 333.68C173.545 332.18 174.025 331.02 174.985 330.2C175.965 329.38 177.165 328.97 178.585 328.97C180.285 328.97 181.645 329.41 182.665 330.29V328.7C182.665 327.02 181.885 326.18 180.325 326.18C179.625 326.18 179.065 326.36 178.645 326.72C178.225 327.06 178.015 327.52 178.015 328.1H174.235C174.235 326.4 174.815 325.06 175.975 324.08C177.155 323.08 178.605 322.58 180.325 322.58ZM179.905 335.54C180.745 335.54 181.415 335.37 181.915 335.03C182.415 334.67 182.665 334.22 182.665 333.68C182.665 333.1 182.415 332.65 181.915 332.33C181.435 331.99 180.765 331.82 179.905 331.82C179.085 331.82 178.465 331.99 178.045 332.33C177.625 332.67 177.415 333.12 177.415 333.68C177.415 334.24 177.625 334.69 178.045 335.03C178.465 335.37 179.085 335.54 179.905 335.54ZM200.568 329.12C201.388 329.5 202.018 330.05 202.458 330.77C202.918 331.49 203.148 332.31 203.148 333.23C203.148 334.63 202.678 335.78 201.738 336.68C200.818 337.56 199.488 338 197.748 338H189.588V331.49V323H193.218H196.488C197.928 323 199.088 323.39 199.968 324.17C200.848 324.95 201.288 325.91 201.288 327.05C201.288 327.75 201.048 328.44 200.568 329.12ZM193.218 326.12V328.55H197.388C197.548 328.27 197.628 327.97 197.628 327.65C197.628 327.19 197.468 326.82 197.148 326.54C196.848 326.24 196.438 326.1 195.918 326.12H193.218ZM197.418 334.79C198.718 334.79 199.368 334.23 199.368 333.11C199.368 332.03 198.718 331.49 197.418 331.49H193.218V334.79H197.418ZM214.29 323H218.16V338H214.29V332.3H209.22V338H205.35V323H209.22V328.67H214.29V323ZM227.698 322.58C229.458 322.58 230.918 323.1 232.078 324.14C233.238 325.16 233.818 326.6 233.818 328.46V338H230.038V336.71C229.098 337.85 227.738 338.42 225.958 338.42C224.538 338.42 223.338 338.01 222.358 337.19C221.398 336.35 220.918 335.18 220.918 333.68C220.918 332.18 221.398 331.02 222.358 330.2C223.338 329.38 224.538 328.97 225.958 328.97C227.658 328.97 229.018 329.41 230.038 330.29V328.7C230.038 327.02 229.258 326.18 227.698 326.18C226.998 326.18 226.438 326.36 226.018 326.72C225.598 327.06 225.388 327.52 225.388 328.1H221.608C221.608 326.4 222.188 325.06 223.348 324.08C224.528 323.08 225.978 322.58 227.698 322.58ZM227.278 335.54C228.118 335.54 228.788 335.37 229.288 335.03C229.788 334.67 230.038 334.22 230.038 333.68C230.038 333.1 229.788 332.65 229.288 332.33C228.808 331.99 228.138 331.82 227.278 331.82C226.458 331.82 225.838 331.99 225.418 332.33C224.998 332.67 224.788 333.12 224.788 333.68C224.788 334.24 224.998 334.69 225.418 335.03C225.838 335.37 226.458 335.54 227.278 335.54ZM247.701 332.09C247.941 333.11 248.421 333.89 249.141 334.43C249.881 334.95 250.751 335.21 251.751 335.21C252.431 335.21 253.051 335.07 253.611 334.79C254.171 334.51 254.581 334.15 254.841 333.71L258.651 333.68C258.191 335.18 257.341 336.35 256.101 337.19C254.881 338.01 253.421 338.42 251.721 338.42C249.321 338.42 247.381 337.67 245.901 336.17C244.421 334.67 243.681 332.78 243.681 330.5C243.681 328.24 244.421 326.36 245.901 324.86C247.381 323.34 249.291 322.58 251.631 322.58C253.811 322.58 255.601 323.34 257.001 324.86C258.401 326.38 259.101 328.26 259.101 330.5C259.101 331.14 259.051 331.67 258.951 332.09H247.701ZM247.671 329.06H255.231C255.011 328.04 254.571 327.29 253.911 326.81C253.251 326.31 252.481 326.06 251.601 326.06C250.581 326.06 249.731 326.32 249.051 326.84C248.371 327.36 247.911 328.1 247.671 329.06ZM271.407 323V326.72H265.617V338H261.747V323H271.407ZM285.63 336.14C284.09 337.66 282.21 338.42 279.99 338.42C277.77 338.42 275.89 337.66 274.35 336.14C272.83 334.6 272.07 332.72 272.07 330.5C272.07 328.28 272.83 326.41 274.35 324.89C275.89 323.35 277.77 322.58 279.99 322.58C282.21 322.58 284.09 323.35 285.63 324.89C287.17 326.41 287.94 328.28 287.94 330.5C287.94 332.72 287.17 334.6 285.63 336.14ZM277.08 333.47C277.86 334.25 278.83 334.64 279.99 334.64C281.15 334.64 282.12 334.25 282.9 333.47C283.68 332.69 284.07 331.7 284.07 330.5C284.07 329.3 283.68 328.31 282.9 327.53C282.12 326.75 281.15 326.36 279.99 326.36C278.83 326.36 277.86 326.75 277.08 327.53C276.32 328.31 275.94 329.3 275.94 330.5C275.94 331.7 276.32 332.69 277.08 333.47ZM309.143 329.12C309.963 329.5 310.593 330.05 311.033 330.77C311.493 331.49 311.723 332.31 311.723 333.23C311.723 334.63 311.253 335.78 310.313 336.68C309.393 337.56 308.063 338 306.323 338H298.163V331.49V323H301.793H305.063C306.503 323 307.663 323.39 308.543 324.17C309.423 324.95 309.863 325.91 309.863 327.05C309.863 327.75 309.623 328.44 309.143 329.12ZM301.793 326.12V328.55H305.963C306.123 328.27 306.203 327.97 306.203 327.65C306.203 327.19 306.043 326.82 305.723 326.54C305.423 326.24 305.013 326.1 304.493 326.12H301.793ZM305.993 334.79C307.293 334.79 307.943 334.23 307.943 333.11C307.943 332.03 307.293 331.49 305.993 331.49H301.793V334.79H305.993ZM320.704 327.8C322.404 327.8 323.774 328.27 324.814 329.21C325.854 330.13 326.374 331.36 326.374 332.9C326.374 334.44 325.854 335.68 324.814 336.62C323.774 337.54 322.404 338 320.704 338H314.854H313.924V323H317.794V327.8H320.704ZM328.024 323H331.894V338H328.024V323ZM320.734 334.58C321.274 334.58 321.714 334.43 322.054 334.13C322.414 333.81 322.594 333.4 322.594 332.9C322.594 332.4 322.414 331.99 322.054 331.67C321.714 331.35 321.274 331.19 320.734 331.19H317.794V334.58H320.734ZM350.068 332.51C349.728 334.23 348.858 335.65 347.458 336.77C346.058 337.87 344.428 338.42 342.568 338.42C340.308 338.42 338.418 337.66 336.898 336.14C335.398 334.62 334.648 332.74 334.648 330.5C334.648 328.26 335.398 326.38 336.898 324.86C338.418 323.34 340.308 322.58 342.568 322.58C344.428 322.58 346.058 323.13 347.458 324.23C348.858 325.33 349.728 326.74 350.068 328.46H345.988C345.708 327.82 345.258 327.32 344.638 326.96C344.038 326.58 343.348 326.39 342.568 326.39C341.428 326.39 340.468 326.78 339.688 327.56C338.908 328.32 338.518 329.3 338.518 330.5C338.518 331.68 338.908 332.66 339.688 333.44C340.468 334.2 341.428 334.58 342.568 334.58C343.368 334.58 344.068 334.4 344.668 334.04C345.288 333.66 345.728 333.15 345.988 332.51H350.068ZM365.2 336.14C363.66 337.66 361.78 338.42 359.56 338.42C357.34 338.42 355.46 337.66 353.92 336.14C352.4 334.6 351.64 332.72 351.64 330.5C351.64 328.28 352.4 326.41 353.92 324.89C355.46 323.35 357.34 322.58 359.56 322.58C361.78 322.58 363.66 323.35 365.2 324.89C366.74 326.41 367.51 328.28 367.51 330.5C367.51 332.72 366.74 334.6 365.2 336.14ZM356.65 333.47C357.43 334.25 358.4 334.64 359.56 334.64C360.72 334.64 361.69 334.25 362.47 333.47C363.25 332.69 363.64 331.7 363.64 330.5C363.64 329.3 363.25 328.31 362.47 327.53C361.69 326.75 360.72 326.36 359.56 326.36C358.4 326.36 357.43 326.75 356.65 327.53C355.89 328.31 355.51 329.3 355.51 330.5C355.51 331.7 355.89 332.69 356.65 333.47ZM380.267 323V326.63H376.187V338H372.317V326.63H368.177V323H376.187H380.267ZM385.104 332.09C385.344 333.11 385.824 333.89 386.544 334.43C387.284 334.95 388.154 335.21 389.154 335.21C389.834 335.21 390.454 335.07 391.014 334.79C391.574 334.51 391.984 334.15 392.244 333.71L396.054 333.68C395.594 335.18 394.744 336.35 393.504 337.19C392.284 338.01 390.824 338.42 389.124 338.42C386.724 338.42 384.784 337.67 383.304 336.17C381.824 334.67 381.084 332.78 381.084 330.5C381.084 328.24 381.824 326.36 383.304 324.86C384.784 323.34 386.694 322.58 389.034 322.58C391.214 322.58 393.004 323.34 394.404 324.86C395.804 326.38 396.504 328.26 396.504 330.5C396.504 331.14 396.454 331.67 396.354 332.09H385.104ZM385.074 329.06H392.634C392.414 328.04 391.974 327.29 391.314 326.81C390.654 326.31 389.884 326.06 389.004 326.06C387.984 326.06 387.134 326.32 386.454 326.84C385.774 327.36 385.314 328.1 385.074 329.06Z" fill="#273940"/>
<path d="M77.2082 145.67C79.1682 146.97 80.1482 148.87 80.1482 151.37C80.1482 153.45 79.4382 155.15 78.0182 156.47C76.5982 157.77 74.7082 158.42 72.3482 158.42C69.9882 158.42 68.0982 157.74 66.6782 156.38C65.2582 155 64.5482 153.25 64.5482 151.13H68.6582C68.6582 152.09 68.9782 152.9 69.6182 153.56C70.2582 154.2 71.1682 154.52 72.3482 154.52C73.5282 154.52 74.4282 154.23 75.0482 153.65C75.6882 153.07 76.0082 152.31 76.0082 151.37C76.0082 150.43 75.6982 149.67 75.0782 149.09C74.4582 148.49 73.5782 148.19 72.4382 148.19H70.8482V144.35H72.4382C72.6582 144.35 72.9682 144.37 73.3682 144.41C74.0882 143.93 74.4482 143.29 74.4482 142.49C74.4482 141.89 74.2382 141.4 73.8182 141.02C73.4182 140.64 72.8382 140.45 72.0782 140.45C71.3182 140.45 70.7282 140.64 70.3082 141.02C69.9082 141.4 69.7082 141.89 69.7082 142.49H65.5682C65.5682 140.75 66.1682 139.33 67.3682 138.23C68.5682 137.13 70.1382 136.58 72.0782 136.58C73.9982 136.58 75.5582 137.12 76.7582 138.2C77.9582 139.26 78.5582 140.61 78.5582 142.25C78.5582 143.53 78.1082 144.67 77.2082 145.67ZM88.2759 142.58C90.0359 142.58 91.4959 143.1 92.6559 144.14C93.8159 145.16 94.3959 146.6 94.3959 148.46V158H90.6159V156.71C89.6759 157.85 88.3159 158.42 86.5359 158.42C85.1159 158.42 83.9159 158.01 82.9359 157.19C81.9759 156.35 81.4959 155.18 81.4959 153.68C81.4959 152.18 81.9759 151.02 82.9359 150.2C83.9159 149.38 85.1159 148.97 86.5359 148.97C88.2359 148.97 89.5959 149.41 90.6159 150.29V148.7C90.6159 147.02 89.8359 146.18 88.2759 146.18C87.5759 146.18 87.0159 146.36 86.5959 146.72C86.1759 147.06 85.9659 147.52 85.9659 148.1H82.1859C82.1859 146.4 82.7659 145.06 83.9259 144.08C85.1059 143.08 86.5559 142.58 88.2759 142.58ZM87.8559 155.54C88.6959 155.54 89.3659 155.37 89.8659 155.03C90.3659 154.67 90.6159 154.22 90.6159 153.68C90.6159 153.1 90.3659 152.65 89.8659 152.33C89.3859 151.99 88.7159 151.82 87.8559 151.82C87.0359 151.82 86.4159 151.99 85.9959 152.33C85.5759 152.67 85.3659 153.12 85.3659 153.68C85.3659 154.24 85.5759 154.69 85.9959 155.03C86.4159 155.37 87.0359 155.54 87.8559 155.54ZM107.2 143V146.72H101.41V158H97.5395V143H107.2ZM117.754 142.58C119.774 142.58 121.494 143.35 122.914 144.89C124.354 146.41 125.074 148.28 125.074 150.5C125.074 152.72 124.354 154.6 122.914 156.14C121.494 157.66 119.774 158.42 117.754 158.42C115.674 158.42 114.054 157.7 112.894 156.26V164H109.024V143H112.894V144.74C114.054 143.3 115.674 142.58 117.754 142.58ZM117.034 154.73C118.234 154.73 119.224 154.34 120.004 153.56C120.804 152.76 121.204 151.74 121.204 150.5C121.204 149.26 120.804 148.25 120.004 147.47C119.224 146.67 118.234 146.27 117.034 146.27C115.894 146.27 114.934 146.64 114.154 147.38C113.374 148.1 112.954 149.05 112.894 150.23V150.77C112.954 151.95 113.374 152.91 114.154 153.65C114.934 154.37 115.894 154.73 117.034 154.73ZM135.541 143H139.681L134.581 158C133.881 160.12 132.851 161.67 131.491 162.65C130.131 163.65 128.521 164.1 126.661 164V160.4C127.701 160.42 128.521 160.22 129.121 159.8C129.721 159.4 130.191 158.72 130.531 157.76L124.801 143H128.941L132.571 152.87L135.541 143ZM149.777 149.45C151.117 150.31 151.787 151.6 151.787 153.32C151.787 154.76 151.257 155.97 150.197 156.95C149.137 157.93 147.657 158.42 145.757 158.42C143.837 158.42 142.347 157.93 141.287 156.95C140.227 155.97 139.697 154.71 139.697 153.17H143.537C143.537 154.35 144.277 154.94 145.757 154.94C147.217 154.94 147.947 154.34 147.947 153.14C147.947 152.6 147.747 152.18 147.347 151.88C146.967 151.56 146.437 151.4 145.757 151.4H144.347V148.46H145.907C145.947 148.46 146.007 148.47 146.087 148.49C146.167 148.49 146.227 148.49 146.267 148.49C146.747 148.13 146.987 147.71 146.987 147.23C146.987 146.37 146.487 145.94 145.487 145.94C144.467 145.94 143.957 146.41 143.957 147.35H140.237C140.237 145.87 140.707 144.71 141.647 143.87C142.587 143.01 143.907 142.58 145.607 142.58C147.187 142.58 148.437 142.99 149.357 143.81C150.277 144.63 150.737 145.65 150.737 146.87C150.737 147.85 150.417 148.71 149.777 149.45ZM163.954 143H166.834V158H163.054V149.3L156.904 158H154.024V143H157.804V151.7L163.954 143ZM180.992 143V146.63H176.912V158H173.042V146.63H168.902V143H176.912H180.992ZM185.828 152.09C186.068 153.11 186.548 153.89 187.268 154.43C188.008 154.95 188.878 155.21 189.878 155.21C190.558 155.21 191.178 155.07 191.738 154.79C192.298 154.51 192.708 154.15 192.968 153.71L196.778 153.68C196.318 155.18 195.468 156.35 194.228 157.19C193.008 158.01 191.548 158.42 189.848 158.42C187.448 158.42 185.508 157.67 184.028 156.17C182.548 154.67 181.808 152.78 181.808 150.5C181.808 148.24 182.548 146.36 184.028 144.86C185.508 143.34 187.418 142.58 189.758 142.58C191.938 142.58 193.728 143.34 195.128 144.86C196.528 146.38 197.228 148.26 197.228 150.5C197.228 151.14 197.178 151.67 197.078 152.09H185.828ZM185.798 149.06H193.358C193.138 148.04 192.698 147.29 192.038 146.81C191.378 146.31 190.608 146.06 189.728 146.06C188.708 146.06 187.858 146.32 187.178 146.84C186.498 147.36 186.038 148.1 185.798 149.06ZM217.304 143H220.184V158H216.404V149.3L210.254 158H207.374V143H211.154V151.7L217.304 143ZM232.511 149.45C233.851 150.31 234.521 151.6 234.521 153.32C234.521 154.76 233.991 155.97 232.931 156.95C231.871 157.93 230.391 158.42 228.491 158.42C226.571 158.42 225.081 157.93 224.021 156.95C222.961 155.97 222.431 154.71 222.431 153.17H226.271C226.271 154.35 227.011 154.94 228.491 154.94C229.951 154.94 230.681 154.34 230.681 153.14C230.681 152.6 230.481 152.18 230.081 151.88C229.701 151.56 229.171 151.4 228.491 151.4H227.081V148.46H228.641C228.681 148.46 228.741 148.47 228.821 148.49C228.901 148.49 228.961 148.49 229.001 148.49C229.481 148.13 229.721 147.71 229.721 147.23C229.721 146.37 229.221 145.94 228.221 145.94C227.201 145.94 226.691 146.41 226.691 147.35H222.971C222.971 145.87 223.441 144.71 224.381 143.87C225.321 143.01 226.641 142.58 228.341 142.58C229.921 142.58 231.171 142.99 232.091 143.81C233.011 144.63 233.471 145.65 233.471 146.87C233.471 147.85 233.151 148.71 232.511 149.45ZM249.538 156.14C247.998 157.66 246.118 158.42 243.898 158.42C241.678 158.42 239.798 157.66 238.258 156.14C236.738 154.6 235.978 152.72 235.978 150.5C235.978 148.28 236.738 146.41 238.258 144.89C239.798 143.35 241.678 142.58 243.898 142.58C246.118 142.58 247.998 143.35 249.538 144.89C251.078 146.41 251.848 148.28 251.848 150.5C251.848 152.72 251.078 154.6 249.538 156.14ZM240.988 153.47C241.768 154.25 242.738 154.64 243.898 154.64C245.058 154.64 246.028 154.25 246.808 153.47C247.588 152.69 247.978 151.7 247.978 150.5C247.978 149.3 247.588 148.31 246.808 147.53C246.028 146.75 245.058 146.36 243.898 146.36C242.738 146.36 241.768 146.75 240.988 147.53C240.228 148.31 239.848 149.3 239.848 150.5C239.848 151.7 240.228 152.69 240.988 153.47ZM261.561 158.42C259.281 158.42 257.411 157.7 255.951 156.26C254.511 154.82 253.791 152.99 253.791 150.77C253.791 149.61 253.961 148.54 254.301 147.56C254.641 146.56 255.081 145.71 255.621 145.01C256.181 144.29 256.791 143.63 257.451 143.03C258.131 142.43 258.801 141.89 259.461 141.41C260.141 140.91 260.751 140.44 261.291 140C261.851 139.54 262.301 139.06 262.641 138.56C262.981 138.04 263.151 137.52 263.151 137H267.261C267.261 138.04 267.041 138.95 266.601 139.73C266.161 140.51 265.591 141.15 264.891 141.65C264.211 142.15 263.501 142.6 262.761 143C262.021 143.4 261.281 143.86 260.541 144.38C259.801 144.88 259.251 145.4 258.891 145.94C259.951 145.14 261.211 144.74 262.671 144.74C264.311 144.74 265.801 145.36 267.141 146.6C268.481 147.84 269.151 149.43 269.151 151.37C269.151 153.41 268.441 155.1 267.021 156.44C265.601 157.76 263.781 158.42 261.561 158.42ZM261.531 154.88C262.631 154.88 263.531 154.55 264.231 153.89C264.931 153.21 265.281 152.37 265.281 151.37C265.281 150.35 264.911 149.51 264.171 148.85C263.451 148.17 262.541 147.83 261.441 147.83C260.461 147.83 259.591 148.14 258.831 148.76C258.091 149.38 257.721 150.21 257.721 151.25C257.721 152.31 258.081 153.18 258.801 153.86C259.541 154.54 260.451 154.88 261.531 154.88ZM280.205 142.58C282.225 142.58 283.945 143.35 285.365 144.89C286.805 146.41 287.525 148.28 287.525 150.5C287.525 152.72 286.805 154.6 285.365 156.14C283.945 157.66 282.225 158.42 280.205 158.42C278.125 158.42 276.505 157.7 275.345 156.26V164H271.475V143H275.345V144.74C276.505 143.3 278.125 142.58 280.205 142.58ZM279.485 154.73C280.685 154.73 281.675 154.34 282.455 153.56C283.255 152.76 283.655 151.74 283.655 150.5C283.655 149.26 283.255 148.25 282.455 147.47C281.675 146.67 280.685 146.27 279.485 146.27C278.345 146.27 277.385 146.64 276.605 147.38C275.825 148.1 275.405 149.05 275.345 150.23V150.77C275.405 151.95 275.825 152.91 276.605 153.65C277.385 154.37 278.345 154.73 279.485 154.73ZM295.932 142.58C297.692 142.58 299.152 143.1 300.312 144.14C301.472 145.16 302.052 146.6 302.052 148.46V158H298.272V156.71C297.332 157.85 295.972 158.42 294.192 158.42C292.772 158.42 291.572 158.01 290.592 157.19C289.632 156.35 289.152 155.18 289.152 153.68C289.152 152.18 289.632 151.02 290.592 150.2C291.572 149.38 292.772 148.97 294.192 148.97C295.892 148.97 297.252 149.41 298.272 150.29V148.7C298.272 147.02 297.492 146.18 295.932 146.18C295.232 146.18 294.672 146.36 294.252 146.72C293.832 147.06 293.622 147.52 293.622 148.1H289.842C289.842 146.4 290.422 145.06 291.582 144.08C292.762 143.08 294.212 142.58 295.932 142.58ZM295.512 155.54C296.352 155.54 297.022 155.37 297.522 155.03C298.022 154.67 298.272 154.22 298.272 153.68C298.272 153.1 298.022 152.65 297.522 152.33C297.042 151.99 296.372 151.82 295.512 151.82C294.692 151.82 294.072 151.99 293.652 152.33C293.232 152.67 293.022 153.12 293.022 153.68C293.022 154.24 293.232 154.69 293.652 155.03C294.072 155.37 294.692 155.54 295.512 155.54ZM325.036 158H320.686L316.096 151.28V158H312.316V151.28L307.726 158H303.406L308.806 150.41L303.706 143H308.026L312.316 149.51V143H316.096V149.51L320.386 143H324.736L319.606 150.41L325.036 158ZM329.324 152.09C329.564 153.11 330.044 153.89 330.764 154.43C331.504 154.95 332.374 155.21 333.374 155.21C334.054 155.21 334.674 155.07 335.234 154.79C335.794 154.51 336.204 154.15 336.464 153.71L340.274 153.68C339.814 155.18 338.964 156.35 337.724 157.19C336.504 158.01 335.044 158.42 333.344 158.42C330.944 158.42 329.004 157.67 327.524 156.17C326.044 154.67 325.304 152.78 325.304 150.5C325.304 148.24 326.044 146.36 327.524 144.86C329.004 143.34 330.914 142.58 333.254 142.58C335.434 142.58 337.224 143.34 338.624 144.86C340.024 146.38 340.724 148.26 340.724 150.5C340.724 151.14 340.674 151.67 340.574 152.09H329.324ZM329.294 149.06H336.854C336.634 148.04 336.194 147.29 335.534 146.81C334.874 146.31 334.104 146.06 333.224 146.06C332.204 146.06 331.354 146.32 330.674 146.84C329.994 147.36 329.534 148.1 329.294 149.06ZM352.31 143H356.18V158H352.31V152.3H347.24V158H343.37V143H347.24V148.67H352.31V143ZM369.647 143H372.527V158H368.747V149.3L362.597 158H359.717V143H363.497V151.7L369.647 143ZM379.305 152.09C379.545 153.11 380.025 153.89 380.745 154.43C381.485 154.95 382.355 155.21 383.355 155.21C384.035 155.21 384.655 155.07 385.215 154.79C385.775 154.51 386.185 154.15 386.445 153.71L390.255 153.68C389.795 155.18 388.945 156.35 387.705 157.19C386.485 158.01 385.025 158.42 383.325 158.42C380.925 158.42 378.985 157.67 377.505 156.17C376.025 154.67 375.285 152.78 375.285 150.5C375.285 148.24 376.025 146.36 377.505 144.86C378.985 143.34 380.895 142.58 383.235 142.58C385.415 142.58 387.205 143.34 388.605 144.86C390.005 146.38 390.705 148.26 390.705 150.5C390.705 151.14 390.655 151.67 390.555 152.09H379.305ZM379.275 149.06H386.835C386.615 148.04 386.175 147.29 385.515 146.81C384.855 146.31 384.085 146.06 383.205 146.06C382.185 146.06 381.335 146.32 380.655 146.84C379.975 147.36 379.515 148.1 379.275 149.06ZM411.83 149.12C412.65 149.5 413.28 150.05 413.72 150.77C414.18 151.49 414.41 152.31 414.41 153.23C414.41 154.63 413.94 155.78 413 156.68C412.08 157.56 410.75 158 409.01 158H400.85V151.49V143H404.48H407.75C409.19 143 410.35 143.39 411.23 144.17C412.11 144.95 412.55 145.91 412.55 147.05C412.55 147.75 412.31 148.44 411.83 149.12ZM404.48 146.12V148.55H408.65C408.81 148.27 408.89 147.97 408.89 147.65C408.89 147.19 408.73 146.82 408.41 146.54C408.11 146.24 407.7 146.1 407.18 146.12H404.48ZM408.68 154.79C409.98 154.79 410.63 154.23 410.63 153.11C410.63 152.03 409.98 151.49 408.68 151.49H404.48V154.79H408.68ZM63.6334 182.37C64.9534 183.79 65.6134 185.5 65.6134 187.5C65.6134 189.5 64.9534 191.21 63.6334 192.63C62.3134 194.05 60.5034 194.92 58.2034 195.24V201H54.4234V195.24C52.1234 194.92 50.3134 194.05 48.9934 192.63C47.6734 191.21 47.0134 189.5 47.0134 187.5C47.0134 185.5 47.6734 183.79 48.9934 182.37C50.3134 180.95 52.1234 180.08 54.4234 179.76V174H58.2034V179.76C60.5034 180.08 62.3134 180.95 63.6334 182.37ZM51.7534 184.92C51.1334 185.64 50.8234 186.5 50.8234 187.5C50.8234 188.5 51.1334 189.36 51.7534 190.08C52.3734 190.8 53.2634 191.29 54.4234 191.55V183.45C53.2634 183.71 52.3734 184.2 51.7534 184.92ZM58.2034 191.55C59.3434 191.29 60.2234 190.8 60.8434 190.08C61.4634 189.36 61.7734 188.5 61.7734 187.5C61.7734 186.5 61.4634 185.64 60.8434 184.92C60.2234 184.2 59.3434 183.71 58.2034 183.45V191.55ZM81.1105 193.14C79.5705 194.66 77.6905 195.42 75.4705 195.42C73.2505 195.42 71.3705 194.66 69.8305 193.14C68.3105 191.6 67.5505 189.72 67.5505 187.5C67.5505 185.28 68.3105 183.41 69.8305 181.89C71.3705 180.35 73.2505 179.58 75.4705 179.58C77.6905 179.58 79.5705 180.35 81.1105 181.89C82.6505 183.41 83.4205 185.28 83.4205 187.5C83.4205 189.72 82.6505 191.6 81.1105 193.14ZM72.5605 190.47C73.3405 191.25 74.3105 191.64 75.4705 191.64C76.6305 191.64 77.6005 191.25 78.3805 190.47C79.1605 189.69 79.5505 188.7 79.5505 187.5C79.5505 186.3 79.1605 185.31 78.3805 184.53C77.6005 183.75 76.6305 183.36 75.4705 183.36C74.3105 183.36 73.3405 183.75 72.5605 184.53C71.8005 185.31 71.4205 186.3 71.4205 187.5C71.4205 188.7 71.8005 189.69 72.5605 190.47ZM94.873 179.58C96.893 179.58 98.613 180.35 100.033 181.89C101.473 183.41 102.193 185.28 102.193 187.5C102.193 189.72 101.473 191.6 100.033 193.14C98.613 194.66 96.893 195.42 94.873 195.42C92.793 195.42 91.173 194.7 90.013 193.26V201H86.143V180H90.013V181.74C91.173 180.3 92.793 179.58 94.873 179.58ZM94.153 191.73C95.353 191.73 96.343 191.34 97.123 190.56C97.923 189.76 98.323 188.74 98.323 187.5C98.323 186.26 97.923 185.25 97.123 184.47C96.343 183.67 95.353 183.27 94.153 183.27C93.013 183.27 92.053 183.64 91.273 184.38C90.493 185.1 90.073 186.05 90.013 187.23V187.77C90.073 188.95 90.493 189.91 91.273 190.65C92.053 191.37 93.013 191.73 94.153 191.73ZM120.972 180V195H117.222V185.73L113.982 192.18H111.882L108.642 185.73V195H104.922V180H108.642H109.002L112.932 187.83L116.892 180H120.972ZM130.522 179.58C132.282 179.58 133.742 180.1 134.902 181.14C136.062 182.16 136.642 183.6 136.642 185.46V195H132.862V193.71C131.922 194.85 130.562 195.42 128.782 195.42C127.362 195.42 126.162 195.01 125.182 194.19C124.222 193.35 123.742 192.18 123.742 190.68C123.742 189.18 124.222 188.02 125.182 187.2C126.162 186.38 127.362 185.97 128.782 185.97C130.482 185.97 131.842 186.41 132.862 187.29V185.7C132.862 184.02 132.082 183.18 130.522 183.18C129.822 183.18 129.262 183.36 128.842 183.72C128.422 184.06 128.212 184.52 128.212 185.1H124.432C124.432 183.4 125.012 182.06 126.172 181.08C127.352 180.08 128.802 179.58 130.522 179.58ZM130.102 192.54C130.942 192.54 131.612 192.37 132.112 192.03C132.612 191.67 132.862 191.22 132.862 190.68C132.862 190.1 132.612 189.65 132.112 189.33C131.632 188.99 130.962 188.82 130.102 188.82C129.282 188.82 128.662 188.99 128.242 189.33C127.822 189.67 127.612 190.12 127.612 190.68C127.612 191.24 127.822 191.69 128.242 192.03C128.662 192.37 129.282 192.54 130.102 192.54ZM150.406 180V183.63H146.326V195H142.456V183.63H138.316V180H146.326H150.406ZM155.242 189.09C155.482 190.11 155.962 190.89 156.682 191.43C157.422 191.95 158.292 192.21 159.292 192.21C159.972 192.21 160.592 192.07 161.152 191.79C161.712 191.51 162.122 191.15 162.382 190.71L166.192 190.68C165.732 192.18 164.882 193.35 163.642 194.19C162.422 195.01 160.962 195.42 159.262 195.42C156.862 195.42 154.922 194.67 153.442 193.17C151.962 191.67 151.222 189.78 151.222 187.5C151.222 185.24 151.962 183.36 153.442 181.86C154.922 180.34 156.832 179.58 159.172 179.58C161.352 179.58 163.142 180.34 164.542 181.86C165.942 183.38 166.642 185.26 166.642 187.5C166.642 188.14 166.592 188.67 166.492 189.09H155.242ZM155.212 186.06H162.772C162.552 185.04 162.112 184.29 161.452 183.81C160.792 183.31 160.022 183.06 159.142 183.06C158.122 183.06 157.272 183.32 156.592 183.84C155.912 184.36 155.452 185.1 155.212 186.06ZM238.372 190.71H242.632V195C242.632 196.26 242.252 197.26 241.492 198C240.752 198.76 239.712 199.15 238.372 199.17V197.43C239.072 197.39 239.572 197.19 239.872 196.83C240.192 196.47 240.352 195.86 240.352 195H238.372V190.71ZM262.51 179.58C264.53 179.58 266.25 180.35 267.67 181.89C269.11 183.41 269.83 185.28 269.83 187.5C269.83 189.72 269.11 191.6 267.67 193.14C266.25 194.66 264.53 195.42 262.51 195.42C260.43 195.42 258.81 194.7 257.65 193.26V201H253.78V180H257.65V181.74C258.81 180.3 260.43 179.58 262.51 179.58ZM261.79 191.73C262.99 191.73 263.98 191.34 264.76 190.56C265.56 189.76 265.96 188.74 265.96 187.5C265.96 186.26 265.56 185.25 264.76 184.47C263.98 183.67 262.99 183.27 261.79 183.27C260.65 183.27 259.69 183.64 258.91 184.38C258.13 185.1 257.71 186.05 257.65 187.23V187.77C257.71 188.95 258.13 189.91 258.91 190.65C259.69 191.37 260.65 191.73 261.79 191.73ZM278.237 179.58C279.997 179.58 281.457 180.1 282.617 181.14C283.777 182.16 284.357 183.6 284.357 185.46V195H280.577V193.71C279.637 194.85 278.277 195.42 276.497 195.42C275.077 195.42 273.877 195.01 272.897 194.19C271.937 193.35 271.457 192.18 271.457 190.68C271.457 189.18 271.937 188.02 272.897 187.2C273.877 186.38 275.077 185.97 276.497 185.97C278.197 185.97 279.557 186.41 280.577 187.29V185.7C280.577 184.02 279.797 183.18 278.237 183.18C277.537 183.18 276.977 183.36 276.557 183.72C276.137 184.06 275.927 184.52 275.927 185.1H272.147C272.147 183.4 272.727 182.06 273.887 181.08C275.067 180.08 276.517 179.58 278.237 179.58ZM277.817 192.54C278.657 192.54 279.327 192.37 279.827 192.03C280.327 191.67 280.577 191.22 280.577 190.68C280.577 190.1 280.327 189.65 279.827 189.33C279.347 188.99 278.677 188.82 277.817 188.82C276.997 188.82 276.377 188.99 275.957 189.33C275.537 189.67 275.327 190.12 275.327 190.68C275.327 191.24 275.537 191.69 275.957 192.03C276.377 192.37 276.997 192.54 277.817 192.54ZM296.29 186.45C297.63 187.31 298.3 188.6 298.3 190.32C298.3 191.76 297.77 192.97 296.71 193.95C295.65 194.93 294.17 195.42 292.27 195.42C290.35 195.42 288.86 194.93 287.8 193.95C286.74 192.97 286.21 191.71 286.21 190.17H290.05C290.05 191.35 290.79 191.94 292.27 191.94C293.73 191.94 294.46 191.34 294.46 190.14C294.46 189.6 294.26 189.18 293.86 188.88C293.48 188.56 292.95 188.4 292.27 188.4H290.86V185.46H292.42C292.46 185.46 292.52 185.47 292.6 185.49C292.68 185.49 292.74 185.49 292.78 185.49C293.26 185.13 293.5 184.71 293.5 184.23C293.5 183.37 293 182.94 292 182.94C290.98 182.94 290.47 183.41 290.47 184.35H286.75C286.75 182.87 287.22 181.71 288.16 180.87C289.1 180.01 290.42 179.58 292.12 179.58C293.7 179.58 294.95 179.99 295.87 180.81C296.79 181.63 297.25 182.65 297.25 183.87C297.25 184.85 296.93 185.71 296.29 186.45ZM316.588 180V195H312.838V185.73L309.598 192.18H307.498L304.258 185.73V195H300.538V180H304.258H304.618L308.548 187.83L312.508 180H316.588ZM323.377 189.09C323.617 190.11 324.097 190.89 324.817 191.43C325.557 191.95 326.427 192.21 327.427 192.21C328.107 192.21 328.727 192.07 329.287 191.79C329.847 191.51 330.257 191.15 330.517 190.71L334.327 190.68C333.867 192.18 333.017 193.35 331.777 194.19C330.557 195.01 329.097 195.42 327.397 195.42C324.997 195.42 323.057 194.67 321.577 193.17C320.097 191.67 319.357 189.78 319.357 187.5C319.357 185.24 320.097 183.36 321.577 181.86C323.057 180.34 324.967 179.58 327.307 179.58C329.487 179.58 331.277 180.34 332.677 181.86C334.077 183.38 334.777 185.26 334.777 187.5C334.777 188.14 334.727 188.67 334.627 189.09H323.377ZM323.347 186.06H330.907C330.687 185.04 330.247 184.29 329.587 183.81C328.927 183.31 328.157 183.06 327.277 183.06C326.257 183.06 325.407 183.32 324.727 183.84C324.047 184.36 323.587 185.1 323.347 186.06ZM346.152 179.58C348.172 179.58 349.892 180.35 351.312 181.89C352.752 183.41 353.472 185.28 353.472 187.5C353.472 189.72 352.752 191.6 351.312 193.14C349.892 194.66 348.172 195.42 346.152 195.42C344.072 195.42 342.452 194.7 341.292 193.26V201H337.422V180H341.292V181.74C342.452 180.3 344.072 179.58 346.152 179.58ZM345.432 191.73C346.632 191.73 347.622 191.34 348.402 190.56C349.202 189.76 349.602 188.74 349.602 187.5C349.602 186.26 349.202 185.25 348.402 184.47C347.622 183.67 346.632 183.27 345.432 183.27C344.292 183.27 343.332 183.64 342.552 184.38C341.772 185.1 341.352 186.05 341.292 187.23V187.77C341.352 188.95 341.772 189.91 342.552 190.65C343.332 191.37 344.292 191.73 345.432 191.73ZM368.982 193.14C367.442 194.66 365.562 195.42 363.342 195.42C361.122 195.42 359.242 194.66 357.702 193.14C356.182 191.6 355.422 189.72 355.422 187.5C355.422 185.28 356.182 183.41 357.702 181.89C359.242 180.35 361.122 179.58 363.342 179.58C365.562 179.58 367.442 180.35 368.982 181.89C370.522 183.41 371.292 185.28 371.292 187.5C371.292 189.72 370.522 191.6 368.982 193.14ZM360.432 190.47C361.212 191.25 362.182 191.64 363.342 191.64C364.502 191.64 365.472 191.25 366.252 190.47C367.032 189.69 367.422 188.7 367.422 187.5C367.422 186.3 367.032 185.31 366.252 184.53C365.472 183.75 364.502 183.36 363.342 183.36C362.182 183.36 361.212 183.75 360.432 184.53C359.672 185.31 359.292 186.3 359.292 187.5C359.292 188.7 359.672 189.69 360.432 190.47ZM390.064 180V195H386.314V185.73L383.074 192.18H380.974L377.734 185.73V195H374.014V180H377.734H378.094L382.024 187.83L385.984 180H390.064ZM410.054 180H413.924V195H410.054V189.3H404.984V195H401.114V180H404.984V185.67H410.054V180ZM420.701 189.09C420.941 190.11 421.421 190.89 422.141 191.43C422.881 191.95 423.751 192.21 424.751 192.21C425.431 192.21 426.051 192.07 426.611 191.79C427.171 191.51 427.581 191.15 427.841 190.71L431.651 190.68C431.191 192.18 430.341 193.35 429.101 194.19C427.881 195.01 426.421 195.42 424.721 195.42C422.321 195.42 420.381 194.67 418.901 193.17C417.421 191.67 416.681 189.78 416.681 187.5C416.681 185.24 417.421 183.36 418.901 181.86C420.381 180.34 422.291 179.58 424.631 179.58C426.811 179.58 428.601 180.34 430.001 181.86C431.401 183.38 432.101 185.26 432.101 187.5C432.101 188.14 432.051 188.67 431.951 189.09H420.701ZM420.671 186.06H428.231C428.011 185.04 427.571 184.29 426.911 183.81C426.251 183.31 425.481 183.06 424.601 183.06C423.581 183.06 422.731 183.32 422.051 183.84C421.371 184.36 420.911 185.1 420.671 186.06ZM169.569 232.42C167.289 232.42 165.419 231.7 163.959 230.26C162.519 228.82 161.799 226.99 161.799 224.77C161.799 223.61 161.969 222.54 162.309 221.56C162.649 220.56 163.089 219.71 163.629 219.01C164.189 218.29 164.799 217.63 165.459 217.03C166.139 216.43 166.809 215.89 167.469 215.41C168.149 214.91 168.759 214.44 169.299 214C169.859 213.54 170.309 213.06 170.649 212.56C170.989 212.04 171.159 211.52 171.159 211H175.269C175.269 212.04 175.049 212.95 174.609 213.73C174.169 214.51 173.599 215.15 172.899 215.65C172.219 216.15 171.509 216.6 170.769 217C170.029 217.4 169.289 217.86 168.549 218.38C167.809 218.88 167.259 219.4 166.899 219.94C167.959 219.14 169.219 218.74 170.679 218.74C172.319 218.74 173.809 219.36 175.149 220.6C176.489 221.84 177.159 223.43 177.159 225.37C177.159 227.41 176.449 229.1 175.029 230.44C173.609 231.76 171.789 232.42 169.569 232.42ZM169.539 228.88C170.639 228.88 171.539 228.55 172.239 227.89C172.939 227.21 173.289 226.37 173.289 225.37C173.289 224.35 172.919 223.51 172.179 222.85C171.459 222.17 170.549 221.83 169.449 221.83C168.469 221.83 167.599 222.14 166.839 222.76C166.099 223.38 165.729 224.21 165.729 225.25C165.729 226.31 166.089 227.18 166.809 227.86C167.549 228.54 168.459 228.88 169.539 228.88ZM192.263 230.14C190.723 231.66 188.843 232.42 186.623 232.42C184.403 232.42 182.523 231.66 180.983 230.14C179.463 228.6 178.703 226.72 178.703 224.5C178.703 222.28 179.463 220.41 180.983 218.89C182.523 217.35 184.403 216.58 186.623 216.58C188.843 216.58 190.723 217.35 192.263 218.89C193.803 220.41 194.573 222.28 194.573 224.5C194.573 226.72 193.803 228.6 192.263 230.14ZM183.713 227.47C184.493 228.25 185.463 228.64 186.623 228.64C187.783 228.64 188.753 228.25 189.533 227.47C190.313 226.69 190.703 225.7 190.703 224.5C190.703 223.3 190.313 222.31 189.533 221.53C188.753 220.75 187.783 220.36 186.623 220.36C185.463 220.36 184.493 220.75 183.713 221.53C182.953 222.31 182.573 223.3 182.573 224.5C182.573 225.7 182.953 226.69 183.713 227.47ZM208.857 217V232H204.987V220.72H201.687V225.73C201.687 230.31 199.577 232.46 195.357 232.18V228.55C196.997 228.77 197.817 227.76 197.817 225.52V217H201.687H208.857ZM215.623 226.09C215.863 227.11 216.343 227.89 217.063 228.43C217.803 228.95 218.673 229.21 219.673 229.21C220.353 229.21 220.973 229.07 221.533 228.79C222.093 228.51 222.503 228.15 222.763 227.71L226.573 227.68C226.113 229.18 225.263 230.35 224.023 231.19C222.803 232.01 221.343 232.42 219.643 232.42C217.243 232.42 215.303 231.67 213.823 230.17C212.343 228.67 211.603 226.78 211.603 224.5C211.603 222.24 212.343 220.36 213.823 218.86C215.303 217.34 217.213 216.58 219.553 216.58C221.733 216.58 223.523 217.34 224.923 218.86C226.323 220.38 227.023 222.26 227.023 224.5C227.023 225.14 226.973 225.67 226.873 226.09H215.623ZM215.593 223.06H223.153C222.933 222.04 222.493 221.29 221.833 220.81C221.173 220.31 220.403 220.06 219.523 220.06C218.503 220.06 217.653 220.32 216.973 220.84C216.293 221.36 215.833 222.1 215.593 223.06ZM232.908 226.09C233.148 227.11 233.628 227.89 234.348 228.43C235.088 228.95 235.958 229.21 236.958 229.21C237.638 229.21 238.258 229.07 238.818 228.79C239.378 228.51 239.788 228.15 240.048 227.71L243.858 227.68C243.398 229.18 242.548 230.35 241.308 231.19C240.088 232.01 238.628 232.42 236.928 232.42C234.528 232.42 232.588 231.67 231.108 230.17C229.628 228.67 228.888 226.78 228.888 224.5C228.888 222.24 229.628 220.36 231.108 218.86C232.588 217.34 234.498 216.58 236.838 216.58C239.018 216.58 240.808 217.34 242.208 218.86C243.608 220.38 244.308 222.26 244.308 224.5C244.308 225.14 244.258 225.67 244.158 226.09H232.908ZM232.878 223.06H240.438C240.218 222.04 239.778 221.29 239.118 220.81C238.458 220.31 237.688 220.06 236.808 220.06C235.788 220.06 234.938 220.32 234.258 220.84C233.578 221.36 233.118 222.1 232.878 223.06Z" fill="#273940"/>
<path d="M176.908 195V190.71H181.168V195H176.908ZM193.545 179.58C195.565 179.58 197.285 180.35 198.705 181.89C200.145 183.41 200.865 185.28 200.865 187.5C200.865 189.72 200.145 191.6 198.705 193.14C197.285 194.66 195.565 195.42 193.545 195.42C191.465 195.42 189.845 194.7 188.685 193.26V201H184.815V180H188.685V181.74C189.845 180.3 191.465 179.58 193.545 179.58ZM192.825 191.73C194.025 191.73 195.015 191.34 195.795 190.56C196.595 189.76 196.995 188.74 196.995 187.5C196.995 186.26 196.595 185.25 195.795 184.47C195.015 183.67 194.025 183.27 192.825 183.27C191.685 183.27 190.725 183.64 189.945 184.38C189.165 185.1 188.745 186.05 188.685 187.23V187.77C188.745 188.95 189.165 189.91 189.945 190.65C190.725 191.37 191.685 191.73 192.825 191.73ZM211.544 179.58C212.964 179.58 214.124 180.1 215.024 181.14C215.944 182.18 216.404 183.6 216.404 185.4V195H212.534V185.7C212.534 184.88 212.314 184.26 211.874 183.84C211.434 183.4 210.864 183.18 210.164 183.18C209.344 183.18 208.684 183.44 208.184 183.96C207.704 184.46 207.464 185.24 207.464 186.3V195H203.594V180H207.464V181.53C208.324 180.23 209.684 179.58 211.544 179.58ZM231.051 180H234.831V194.28C234.831 196.58 234.071 198.34 232.551 199.56C231.031 200.8 229.231 201.42 227.151 201.42C225.091 201.42 223.331 200.88 221.871 199.8C220.411 198.74 219.681 197.28 219.681 195.42H223.551C223.551 196.12 223.871 196.72 224.511 197.22C225.151 197.72 226.031 197.97 227.151 197.97C228.371 197.97 229.321 197.65 230.001 197.01C230.701 196.37 231.051 195.46 231.051 194.28V192.69C229.911 194.19 228.251 194.94 226.071 194.94C224.071 194.94 222.351 194.19 220.911 192.69C219.491 191.19 218.781 189.38 218.781 187.26C218.781 185.14 219.491 183.33 220.911 181.83C222.351 180.33 224.071 179.58 226.071 179.58C228.231 179.58 229.891 180.34 231.051 181.86V180ZM223.821 190.23C224.621 190.99 225.631 191.37 226.851 191.37C228.071 191.37 229.071 190.99 229.851 190.23C230.651 189.45 231.051 188.46 231.051 187.26C231.051 186.08 230.651 185.11 229.851 184.35C229.071 183.57 228.071 183.18 226.851 183.18C225.631 183.18 224.621 183.57 223.821 184.35C223.041 185.11 222.651 186.08 222.651 187.26C222.651 188.46 223.041 189.45 223.821 190.23Z" fill="#344C55"/>
<path d="M253.674 232V228.91L260.784 221.71C262.424 220.07 263.244 218.61 263.244 217.33C263.244 216.47 263.004 215.8 262.524 215.32C262.064 214.84 261.434 214.6 260.634 214.6C259.754 214.6 259.054 214.84 258.534 215.32C258.034 215.78 257.784 216.48 257.784 217.42H253.674C253.674 215.2 254.344 213.51 255.684 212.35C257.024 211.17 258.644 210.58 260.544 210.58C262.404 210.58 264.004 211.16 265.344 212.32C266.704 213.48 267.384 215.15 267.384 217.33C267.384 219.53 266.274 221.72 264.054 223.9L259.824 228.01H267.714V232H253.674ZM298.68 211V232H294.57V217.9L289.92 228.64H286.92L282.27 217.9V232H278.13V211H282.27H282.84L288.42 223.84L293.97 211H298.68ZM310.633 218.95C312.673 218.95 314.343 219.56 315.643 220.78C316.943 221.98 317.593 223.54 317.593 225.46C317.593 227.4 316.943 228.98 315.643 230.2C314.343 231.4 312.673 232 310.633 232H303.943H302.593V211H306.733H315.793V214.96H306.733V218.95H310.633ZM310.633 228.13C311.453 228.13 312.133 227.9 312.673 227.44C313.213 226.96 313.483 226.3 313.483 225.46C313.483 224.62 313.213 223.97 312.673 223.51C312.133 223.05 311.453 222.82 310.633 222.82H306.733V228.13H310.633Z" fill="#344C55"/>
</svg>
