<svg width="478" height="478" viewBox="0 0 478 478" fill="none" xmlns="http://www.w3.org/2000/svg">
<rect width="477.35" height="477.35" rx="10" fill="#0F131D"/>
<path d="M219.65 439H215.1L209.5 430.9V439H205.5V421.5H209.5V429.1L214.85 421.5H219.4L213.5 430.025L219.65 439ZM221.024 425V421.5H224.774V425H221.024ZM221.024 439V426.5H224.774V439H221.024ZM234.519 426.15C235.702 426.15 236.66 426.592 237.394 427.475C238.144 428.342 238.519 429.542 238.519 431.075V439H234.769V431.4C234.769 430.8 234.61 430.35 234.294 430.05C233.994 429.75 233.594 429.6 233.094 429.6C231.877 429.6 231.269 430.3 231.269 431.7V439H227.519V426.5H231.269V427.65C231.919 426.65 233.002 426.15 234.519 426.15ZM251.646 437.45C250.363 438.717 248.796 439.35 246.946 439.35C245.096 439.35 243.53 438.717 242.246 437.45C240.963 436.167 240.321 434.6 240.321 432.75C240.321 430.9 240.963 429.342 242.246 428.075C243.53 426.792 245.096 426.15 246.946 426.15C248.796 426.15 250.363 426.792 251.646 428.075C252.93 429.342 253.571 430.9 253.571 432.75C253.571 434.6 252.93 436.167 251.646 437.45ZM244.896 434.875C245.446 435.425 246.13 435.7 246.946 435.7C247.763 435.7 248.446 435.425 248.996 434.875C249.546 434.325 249.821 433.617 249.821 432.75C249.821 431.883 249.546 431.175 248.996 430.625C248.446 430.075 247.763 429.8 246.946 429.8C246.13 429.8 245.446 430.075 244.896 430.625C244.346 431.175 244.071 431.883 244.071 432.75C244.071 433.617 244.346 434.325 244.896 434.875ZM257.167 427.4C258.167 426.567 259.401 426.15 260.867 426.15C262.334 426.15 263.567 426.583 264.567 427.45C265.567 428.3 266.067 429.525 266.067 431.125V439H262.417V438.025C261.651 438.908 260.576 439.35 259.192 439.35C258.026 439.35 257.042 439.008 256.242 438.325C255.459 437.642 255.067 436.683 255.067 435.45C255.067 434.217 255.459 433.258 256.242 432.575C257.042 431.892 258.026 431.55 259.192 431.55C260.492 431.55 261.567 431.867 262.417 432.5V431.375C262.417 430.192 261.901 429.6 260.867 429.6C260.367 429.6 259.984 429.717 259.717 429.95C259.451 430.183 259.317 430.492 259.317 430.875H255.667C255.667 429.392 256.167 428.233 257.167 427.4ZM260.517 436.7C261.117 436.7 261.584 436.583 261.917 436.35C262.251 436.117 262.417 435.817 262.417 435.45C262.417 435.067 262.251 434.767 261.917 434.55C261.584 434.317 261.117 434.2 260.517 434.2C259.967 434.2 259.542 434.317 259.242 434.55C258.959 434.767 258.817 435.067 258.817 435.45C258.817 435.833 258.959 436.142 259.242 436.375C259.542 436.592 259.967 436.7 260.517 436.7ZM272.235 428.475C272.435 427.758 272.827 427.208 273.41 426.825C273.994 426.442 274.685 426.25 275.485 426.25V430.5C274.619 430.367 273.86 430.508 273.21 430.925C272.56 431.342 272.235 432.067 272.235 433.1V439H268.485V426.5H272.235V428.475ZM280.159 434.25C280.576 435.633 281.551 436.325 283.084 436.325C283.534 436.325 283.959 436.242 284.359 436.075C284.759 435.892 285.051 435.658 285.234 435.375L288.884 435.35C288.484 436.65 287.768 437.642 286.734 438.325C285.701 439.008 284.468 439.35 283.034 439.35C281.001 439.35 279.359 438.725 278.109 437.475C276.859 436.225 276.234 434.65 276.234 432.75C276.234 430.867 276.859 429.3 278.109 428.05C279.376 426.783 280.984 426.15 282.934 426.15C284.751 426.15 286.251 426.775 287.434 428.025C288.634 429.275 289.234 430.85 289.234 432.75C289.234 433.283 289.184 433.783 289.084 434.25H280.159ZM280.134 431.4H285.509C285.143 430.117 284.276 429.475 282.909 429.475C281.476 429.475 280.551 430.117 280.134 431.4ZM292.788 427.4C293.788 426.567 295.021 426.15 296.488 426.15C297.954 426.15 299.188 426.583 300.188 427.45C301.188 428.3 301.688 429.525 301.688 431.125V439H298.038V438.025C297.271 438.908 296.196 439.35 294.813 439.35C293.646 439.35 292.663 439.008 291.863 438.325C291.079 437.642 290.688 436.683 290.688 435.45C290.688 434.217 291.079 433.258 291.863 432.575C292.663 431.892 293.646 431.55 294.813 431.55C296.113 431.55 297.188 431.867 298.038 432.5V431.375C298.038 430.192 297.521 429.6 296.488 429.6C295.988 429.6 295.604 429.717 295.338 429.95C295.071 430.183 294.938 430.492 294.938 430.875H291.288C291.288 429.392 291.788 428.233 292.788 427.4ZM296.138 436.7C296.738 436.7 297.204 436.583 297.538 436.35C297.871 436.117 298.038 435.817 298.038 435.45C298.038 435.067 297.871 434.767 297.538 434.55C297.204 434.317 296.738 434.2 296.138 434.2C295.588 434.2 295.163 434.317 294.863 434.55C294.579 434.767 294.438 435.067 294.438 435.45C294.438 435.833 294.579 436.142 294.863 436.375C295.163 436.592 295.588 436.7 296.138 436.7Z" fill="#404961"/>
<path d="M187.266 424.492C187.266 423.096 186.13 421.96 184.734 421.96C183.339 421.96 182.203 423.096 182.203 424.492C182.203 425.887 183.339 427.023 184.734 427.023C186.13 427.023 187.266 425.887 187.266 424.492ZM183.141 424.492C183.141 423.613 183.856 422.898 184.734 422.898C185.613 422.898 186.328 423.613 186.328 424.492C186.328 425.371 185.613 426.085 184.734 426.085C183.856 426.085 183.141 425.371 183.141 424.492Z" fill="#404961"/>
<path d="M180.645 430.552C181.247 430.246 181.694 429.722 181.903 429.08C182.112 428.437 182.058 427.751 181.751 427.149C181.444 426.546 180.921 426.1 180.278 425.891C179.635 425.682 178.949 425.736 178.347 426.043C177.745 426.35 177.298 426.873 177.089 427.516C176.88 428.158 176.934 428.844 177.241 429.446C177.548 430.049 178.071 430.495 178.714 430.704C178.971 430.788 179.235 430.83 179.498 430.83C179.892 430.83 180.284 430.736 180.645 430.552ZM179.003 429.813C178.599 429.681 178.269 429.4 178.076 429.021C177.883 428.642 177.849 428.21 177.981 427.805C178.112 427.401 178.393 427.071 178.772 426.878C179 426.762 179.246 426.704 179.494 426.704C179.66 426.704 179.826 426.73 179.988 426.782C180.393 426.914 180.722 427.195 180.915 427.574C181.109 427.953 181.143 428.385 181.011 428.79C180.88 429.195 180.598 429.524 180.219 429.717C179.84 429.91 179.408 429.944 179.003 429.813Z" fill="#404961"/>
<path d="M180.009 436.504C180.458 436.83 180.978 436.987 181.494 436.987C182.277 436.987 183.05 436.625 183.545 435.944C183.942 435.397 184.103 434.728 183.997 434.061C183.891 433.393 183.532 432.806 182.985 432.409C182.438 432.011 181.769 431.851 181.101 431.957C180.433 432.062 179.847 432.422 179.449 432.969C178.629 434.098 178.88 435.684 180.009 436.504ZM180.208 433.52C180.458 433.175 180.827 432.949 181.248 432.882C181.332 432.869 181.417 432.863 181.5 432.863C181.834 432.863 182.159 432.967 182.434 433.167C183.145 433.684 183.303 434.682 182.786 435.393C182.27 436.104 181.271 436.262 180.56 435.746C179.849 435.229 179.691 434.231 180.208 433.52Z" fill="#404961"/>
<path d="M187.975 436.987C188.491 436.987 189.012 436.83 189.46 436.504C190.589 435.684 190.84 434.098 190.02 432.969C189.622 432.422 189.036 432.062 188.368 431.957C187.7 431.851 187.031 432.011 186.484 432.409C185.937 432.806 185.578 433.393 185.472 434.06C185.366 434.728 185.527 435.397 185.924 435.944C186.419 436.625 187.192 436.987 187.975 436.987ZM187.035 433.167C187.38 432.917 187.801 432.816 188.221 432.882C188.642 432.949 189.011 433.175 189.261 433.52C189.778 434.231 189.62 435.229 188.909 435.746C188.198 436.262 187.199 436.104 186.683 435.393C186.166 434.682 186.325 433.684 187.035 433.167Z" fill="#404961"/>
<path d="M189.191 425.891C188.548 426.1 188.025 426.546 187.719 427.149C187.412 427.751 187.358 428.437 187.567 429.08C187.775 429.722 188.222 430.246 188.824 430.552C189.186 430.736 189.577 430.829 189.971 430.829C190.234 430.829 190.498 430.788 190.755 430.704C191.398 430.495 191.921 430.049 192.228 429.446C192.535 428.844 192.589 428.158 192.38 427.516C192.171 426.873 191.725 426.35 191.122 426.043C190.52 425.736 189.834 425.682 189.191 425.891ZM190.697 426.878C191.076 427.071 191.357 427.4 191.489 427.805C191.62 428.21 191.586 428.642 191.393 429.021C191.2 429.4 190.87 429.681 190.466 429.813C190.061 429.944 189.629 429.91 189.25 429.717C188.871 429.524 188.59 429.195 188.458 428.79C188.327 428.385 188.361 427.953 188.554 427.574C188.747 427.195 189.076 426.914 189.481 426.782C189.643 426.73 189.809 426.704 189.975 426.704C190.223 426.704 190.469 426.762 190.697 426.878Z" fill="#404961"/>
<path d="M186.342 430C186.342 429.114 185.621 428.393 184.734 428.393C183.848 428.393 183.127 429.114 183.127 430C183.127 430.886 183.848 431.607 184.734 431.607C185.621 431.607 186.342 430.886 186.342 430ZM184.064 430C184.064 429.631 184.365 429.33 184.734 429.33C185.104 429.33 185.404 429.631 185.404 430C185.404 430.369 185.104 430.67 184.734 430.67C184.365 430.67 184.064 430.369 184.064 430Z" fill="#404961"/>
<path d="M197.863 438.707C197.333 438.177 196.628 437.885 195.878 437.885C195.129 437.885 194.424 438.177 193.894 438.707C193.191 439.41 192.257 439.797 191.263 439.797H189.134C190.308 439.269 191.388 438.527 192.325 437.59C194.352 435.563 195.469 432.867 195.469 430C195.469 427.903 194.864 425.871 193.719 424.124C193.577 423.908 193.287 423.847 193.07 423.989C192.854 424.131 192.793 424.422 192.935 424.638C193.979 426.232 194.531 428.086 194.531 430C194.531 435.402 190.136 439.797 184.734 439.797C179.332 439.797 174.938 435.402 174.938 430C174.938 424.598 179.332 420.203 184.734 420.203C186.652 420.203 188.509 420.757 190.104 421.804C190.32 421.947 190.611 421.886 190.753 421.67C190.895 421.453 190.835 421.163 190.619 421.021C188.87 419.873 186.835 419.266 184.734 419.266C181.867 419.266 179.171 420.382 177.144 422.41C175.117 424.437 174 427.133 174 430C174 432.867 175.117 435.563 177.144 437.59C179.171 439.618 181.867 440.734 184.734 440.734H191.263C192.508 440.734 193.677 440.25 194.557 439.37C194.91 439.017 195.379 438.823 195.878 438.823C196.377 438.823 196.847 439.017 197.2 439.37C197.383 439.553 197.68 439.553 197.863 439.37C198.046 439.187 198.046 438.89 197.863 438.707Z" fill="#404961"/>
<path d="M191.997 423.213C192.12 423.213 192.241 423.163 192.328 423.076C192.416 422.988 192.466 422.868 192.466 422.745C192.466 422.621 192.416 422.5 192.328 422.413C192.241 422.326 192.12 422.276 191.997 422.276C191.874 422.276 191.753 422.326 191.666 422.413C191.578 422.5 191.528 422.621 191.528 422.745C191.528 422.868 191.578 422.989 191.666 423.076C191.753 423.163 191.874 423.213 191.997 423.213Z" fill="#404961"/>
<path d="M160.636 282H155.866L148.366 272.13V282H144.226V261H148.366V270.27L155.566 261H160.336L152.566 271.23L160.636 282ZM184.643 276.51C184.303 278.23 183.433 279.65 182.033 280.77C180.633 281.87 179.003 282.42 177.143 282.42C174.883 282.42 172.993 281.66 171.473 280.14C169.973 278.62 169.223 276.74 169.223 274.5C169.223 272.26 169.973 270.38 171.473 268.86C172.993 267.34 174.883 266.58 177.143 266.58C179.003 266.58 180.633 267.13 182.033 268.23C183.433 269.33 184.303 270.74 184.643 272.46H180.563C180.283 271.82 179.833 271.32 179.213 270.96C178.613 270.58 177.923 270.39 177.143 270.39C176.003 270.39 175.043 270.78 174.263 271.56C173.483 272.32 173.093 273.3 173.093 274.5C173.093 275.68 173.483 276.66 174.263 277.44C175.043 278.2 176.003 278.58 177.143 278.58C177.943 278.58 178.643 278.4 179.243 278.04C179.863 277.66 180.303 277.15 180.563 276.51H184.643ZM199.776 280.14C198.236 281.66 196.356 282.42 194.136 282.42C191.916 282.42 190.036 281.66 188.496 280.14C186.976 278.6 186.216 276.72 186.216 274.5C186.216 272.28 186.976 270.41 188.496 268.89C190.036 267.35 191.916 266.58 194.136 266.58C196.356 266.58 198.236 267.35 199.776 268.89C201.316 270.41 202.086 272.28 202.086 274.5C202.086 276.72 201.316 278.6 199.776 280.14ZM191.226 277.47C192.006 278.25 192.976 278.64 194.136 278.64C195.296 278.64 196.266 278.25 197.046 277.47C197.826 276.69 198.216 275.7 198.216 274.5C198.216 273.3 197.826 272.31 197.046 271.53C196.266 270.75 195.296 270.36 194.136 270.36C192.976 270.36 192.006 270.75 191.226 271.53C190.466 272.31 190.086 273.3 190.086 274.5C190.086 275.7 190.466 276.69 191.226 277.47ZM223.974 282H219.624L215.034 275.28V282H211.254V275.28L206.664 282H202.344L207.744 274.41L202.644 267H206.964L211.254 273.51V267H215.034V273.51L219.324 267H223.674L218.544 274.41L223.974 282ZM231.287 266.58C233.047 266.58 234.507 267.1 235.667 268.14C236.827 269.16 237.407 270.6 237.407 272.46V282H233.627V280.71C232.687 281.85 231.327 282.42 229.547 282.42C228.127 282.42 226.927 282.01 225.947 281.19C224.987 280.35 224.507 279.18 224.507 277.68C224.507 276.18 224.987 275.02 225.947 274.2C226.927 273.38 228.127 272.97 229.547 272.97C231.247 272.97 232.607 273.41 233.627 274.29V272.7C233.627 271.02 232.847 270.18 231.287 270.18C230.587 270.18 230.027 270.36 229.607 270.72C229.187 271.06 228.977 271.52 228.977 272.1H225.197C225.197 270.4 225.777 269.06 226.937 268.08C228.117 267.08 229.567 266.58 231.287 266.58ZM230.867 279.54C231.707 279.54 232.377 279.37 232.877 279.03C233.377 278.67 233.627 278.22 233.627 277.68C233.627 277.1 233.377 276.65 232.877 276.33C232.397 275.99 231.727 275.82 230.867 275.82C230.047 275.82 229.427 275.99 229.007 276.33C228.587 276.67 228.377 277.12 228.377 277.68C228.377 278.24 228.587 278.69 229.007 279.03C229.427 279.37 230.047 279.54 230.867 279.54ZM252.58 267V282H248.71V270.72H245.41V275.73C245.41 280.31 243.3 282.46 239.08 282.18V278.55C240.72 278.77 241.54 277.76 241.54 275.52V267H245.41H252.58ZM259.347 276.09C259.587 277.11 260.067 277.89 260.787 278.43C261.527 278.95 262.397 279.21 263.397 279.21C264.077 279.21 264.697 279.07 265.257 278.79C265.817 278.51 266.227 278.15 266.487 277.71L270.297 277.68C269.837 279.18 268.987 280.35 267.747 281.19C266.527 282.01 265.067 282.42 263.367 282.42C260.967 282.42 259.027 281.67 257.547 280.17C256.067 278.67 255.327 276.78 255.327 274.5C255.327 272.24 256.067 270.36 257.547 268.86C259.027 267.34 260.937 266.58 263.277 266.58C265.457 266.58 267.247 267.34 268.647 268.86C270.047 270.38 270.747 272.26 270.747 274.5C270.747 275.14 270.697 275.67 270.597 276.09H259.347ZM259.317 273.06H266.877C266.657 272.04 266.217 271.29 265.557 270.81C264.897 270.31 264.127 270.06 263.247 270.06C262.227 270.06 261.377 270.32 260.697 270.84C260.017 271.36 259.557 272.1 259.317 273.06ZM282.332 267H286.202V282H282.332V276.3H277.262V282H273.392V267H277.262V272.67H282.332V267ZM299.67 267H302.55V282H298.77V273.3L292.62 282H289.74V267H293.52V275.7L299.67 267ZM319.737 266.58C321.957 266.58 323.837 267.35 325.377 268.89C326.917 270.41 327.687 272.28 327.687 274.5C327.687 276.72 326.917 278.6 325.377 280.14C323.837 281.66 321.957 282.42 319.737 282.42C317.857 282.42 316.217 281.85 314.817 280.71C313.417 279.57 312.517 278.1 312.117 276.3H309.957V282H306.087V267H309.957V272.67H312.117C312.517 270.89 313.417 269.43 314.817 268.29C316.217 267.15 317.857 266.58 319.737 266.58ZM316.827 277.47C317.607 278.25 318.577 278.64 319.737 278.64C320.897 278.64 321.867 278.25 322.647 277.47C323.427 276.69 323.817 275.7 323.817 274.5C323.817 273.3 323.427 272.31 322.647 271.53C321.867 270.75 320.897 270.36 319.737 270.36C318.577 270.36 317.607 270.75 316.827 271.53C316.067 272.31 315.687 273.3 315.687 274.5C315.687 275.7 316.067 276.69 316.827 277.47ZM329.586 277.71H333.846V282C333.846 283.26 333.466 284.26 332.706 285C331.966 285.76 330.926 286.15 329.586 286.17V284.43C330.286 284.39 330.786 284.19 331.086 283.83C331.406 283.47 331.566 282.86 331.566 282H329.586V277.71ZM138.675 306.37C139.995 307.79 140.655 309.5 140.655 311.5C140.655 313.5 139.995 315.21 138.675 316.63C137.355 318.05 135.545 318.92 133.245 319.24V325H129.465V319.24C127.165 318.92 125.355 318.05 124.035 316.63C122.715 315.21 122.055 313.5 122.055 311.5C122.055 309.5 122.715 307.79 124.035 306.37C125.355 304.95 127.165 304.08 129.465 303.76V298H133.245V303.76C135.545 304.08 137.355 304.95 138.675 306.37ZM126.795 308.92C126.175 309.64 125.865 310.5 125.865 311.5C125.865 312.5 126.175 313.36 126.795 314.08C127.415 314.8 128.305 315.29 129.465 315.55V307.45C128.305 307.71 127.415 308.2 126.795 308.92ZM133.245 315.55C134.385 315.29 135.265 314.8 135.885 314.08C136.505 313.36 136.815 312.5 136.815 311.5C136.815 310.5 136.505 309.64 135.885 308.92C135.265 308.2 134.385 307.71 133.245 307.45V315.55ZM156.153 317.14C154.613 318.66 152.733 319.42 150.513 319.42C148.293 319.42 146.413 318.66 144.873 317.14C143.353 315.6 142.593 313.72 142.593 311.5C142.593 309.28 143.353 307.41 144.873 305.89C146.413 304.35 148.293 303.58 150.513 303.58C152.733 303.58 154.613 304.35 156.153 305.89C157.693 307.41 158.463 309.28 158.463 311.5C158.463 313.72 157.693 315.6 156.153 317.14ZM147.603 314.47C148.383 315.25 149.353 315.64 150.513 315.64C151.673 315.64 152.643 315.25 153.423 314.47C154.203 313.69 154.593 312.7 154.593 311.5C154.593 310.3 154.203 309.31 153.423 308.53C152.643 307.75 151.673 307.36 150.513 307.36C149.353 307.36 148.383 307.75 147.603 308.53C146.843 309.31 146.463 310.3 146.463 311.5C146.463 312.7 146.843 313.69 147.603 314.47ZM171.219 304V307.63H167.139V319H163.269V307.63H159.129V304H167.139H171.219ZM185.596 317.14C184.056 318.66 182.176 319.42 179.956 319.42C177.736 319.42 175.856 318.66 174.316 317.14C172.796 315.6 172.036 313.72 172.036 311.5C172.036 309.28 172.796 307.41 174.316 305.89C175.856 304.35 177.736 303.58 179.956 303.58C182.176 303.58 184.056 304.35 185.596 305.89C187.136 307.41 187.906 309.28 187.906 311.5C187.906 313.72 187.136 315.6 185.596 317.14ZM177.046 314.47C177.826 315.25 178.796 315.64 179.956 315.64C181.116 315.64 182.086 315.25 182.866 314.47C183.646 313.69 184.036 312.7 184.036 311.5C184.036 310.3 183.646 309.31 182.866 308.53C182.086 307.75 181.116 307.36 179.956 307.36C178.796 307.36 177.826 307.75 177.046 308.53C176.286 309.31 175.906 310.3 175.906 311.5C175.906 312.7 176.286 313.69 177.046 314.47ZM210.908 317.14C209.368 318.66 207.488 319.42 205.268 319.42C203.048 319.42 201.168 318.66 199.628 317.14C198.108 315.6 197.348 313.72 197.348 311.5C197.348 309.28 198.108 307.41 199.628 305.89C201.168 304.35 203.048 303.58 205.268 303.58C207.488 303.58 209.368 304.35 210.908 305.89C212.448 307.41 213.218 309.28 213.218 311.5C213.218 313.72 212.448 315.6 210.908 317.14ZM202.358 314.47C203.138 315.25 204.108 315.64 205.268 315.64C206.428 315.64 207.398 315.25 208.178 314.47C208.958 313.69 209.348 312.7 209.348 311.5C209.348 310.3 208.958 309.31 208.178 308.53C207.398 307.75 206.428 307.36 205.268 307.36C204.108 307.36 203.138 307.75 202.358 308.53C201.598 309.31 201.218 310.3 201.218 311.5C201.218 312.7 201.598 313.69 202.358 314.47ZM225.975 304V307.63H221.895V319H218.025V307.63H213.885V304H221.895H225.975ZM242.212 313.51C241.872 315.23 241.002 316.65 239.602 317.77C238.202 318.87 236.572 319.42 234.712 319.42C232.452 319.42 230.562 318.66 229.042 317.14C227.542 315.62 226.792 313.74 226.792 311.5C226.792 309.26 227.542 307.38 229.042 305.86C230.562 304.34 232.452 303.58 234.712 303.58C236.572 303.58 238.202 304.13 239.602 305.23C241.002 306.33 241.872 307.74 242.212 309.46H238.132C237.852 308.82 237.402 308.32 236.782 307.96C236.182 307.58 235.492 307.39 234.712 307.39C233.572 307.39 232.612 307.78 231.832 308.56C231.052 309.32 230.662 310.3 230.662 311.5C230.662 312.68 231.052 313.66 231.832 314.44C232.612 315.2 233.572 315.58 234.712 315.58C235.512 315.58 236.212 315.4 236.812 315.04C237.432 314.66 237.872 314.15 238.132 313.51H242.212ZM252.594 304H256.734L251.634 319C250.934 321.12 249.904 322.67 248.544 323.65C247.184 324.65 245.574 325.1 243.714 325V321.4C244.754 321.42 245.574 321.22 246.174 320.8C246.774 320.4 247.244 319.72 247.584 318.76L241.854 304H245.994L249.624 313.87L252.594 304ZM269.188 304V307.63H265.108V319H261.238V307.63H257.098V304H265.108H269.188ZM285.425 313.51C285.085 315.23 284.215 316.65 282.815 317.77C281.415 318.87 279.785 319.42 277.925 319.42C275.665 319.42 273.775 318.66 272.255 317.14C270.755 315.62 270.005 313.74 270.005 311.5C270.005 309.26 270.755 307.38 272.255 305.86C273.775 304.34 275.665 303.58 277.925 303.58C279.785 303.58 281.415 304.13 282.815 305.23C284.215 306.33 285.085 307.74 285.425 309.46H281.345C281.065 308.82 280.615 308.32 279.995 307.96C279.395 307.58 278.705 307.39 277.925 307.39C276.785 307.39 275.825 307.78 275.045 308.56C274.265 309.32 273.875 310.3 273.875 311.5C273.875 312.68 274.265 313.66 275.045 314.44C275.825 315.2 276.785 315.58 277.925 315.58C278.725 315.58 279.425 315.4 280.025 315.04C280.645 314.66 281.085 314.15 281.345 313.51H285.425ZM298.075 304V307.63H293.995V319H290.125V307.63H285.985V304H293.995H298.075ZM311.12 310.12C311.94 310.5 312.57 311.05 313.01 311.77C313.47 312.49 313.7 313.31 313.7 314.23C313.7 315.63 313.23 316.78 312.29 317.68C311.37 318.56 310.04 319 308.3 319H300.14V312.49V304H303.77H307.04C308.48 304 309.64 304.39 310.52 305.17C311.4 305.95 311.84 306.91 311.84 308.05C311.84 308.75 311.6 309.44 311.12 310.12ZM303.77 307.12V309.55H307.94C308.1 309.27 308.18 308.97 308.18 308.65C308.18 308.19 308.02 307.82 307.7 307.54C307.4 307.24 306.99 307.1 306.47 307.12H303.77ZM307.97 315.79C309.27 315.79 309.92 315.23 309.92 314.11C309.92 313.03 309.27 312.49 307.97 312.49H303.77V315.79H307.97ZM323.581 304H327.721L322.621 319C321.921 321.12 320.891 322.67 319.531 323.65C318.171 324.65 316.561 325.1 314.701 325V321.4C315.741 321.42 316.561 321.22 317.161 320.8C317.761 320.4 318.231 319.72 318.571 318.76L312.841 304H316.981L320.611 313.87L323.581 304ZM332.443 313.09C332.683 314.11 333.163 314.89 333.883 315.43C334.623 315.95 335.493 316.21 336.493 316.21C337.173 316.21 337.793 316.07 338.353 315.79C338.913 315.51 339.323 315.15 339.583 314.71L343.393 314.68C342.933 316.18 342.083 317.35 340.843 318.19C339.623 319.01 338.163 319.42 336.463 319.42C334.063 319.42 332.123 318.67 330.643 317.17C329.163 315.67 328.423 313.78 328.423 311.5C328.423 309.24 329.163 307.36 330.643 305.86C332.123 304.34 334.033 303.58 336.373 303.58C338.553 303.58 340.343 304.34 341.743 305.86C343.143 307.38 343.843 309.26 343.843 311.5C343.843 312.14 343.793 312.67 343.693 313.09H332.443ZM332.413 310.06H339.973C339.753 309.04 339.313 308.29 338.653 307.81C337.993 307.31 337.223 307.06 336.343 307.06C335.323 307.06 334.473 307.32 333.793 307.84C333.113 308.36 332.653 309.1 332.413 310.06ZM356.639 304V307.63H352.559V319H348.689V307.63H344.549V304H352.559H356.639Z" fill="#404961"/>
<path d="M279.106 163.931C277.369 162.112 274.971 161.036 272.241 161.036H258.513V160.871C258.513 158.804 257.686 156.819 256.28 155.496C254.875 154.09 252.972 153.263 250.905 153.263H226.095C223.945 153.263 222.043 154.09 220.637 155.496C219.231 156.901 218.404 158.804 218.404 160.871V161.036H204.759C202.029 161.036 199.631 162.112 197.894 163.931C196.158 165.668 195 168.149 195 170.795V211.979C195 214.709 196.075 217.107 197.894 218.844C199.631 220.58 202.112 221.738 204.759 221.738H272.241C274.971 221.738 277.369 220.663 279.106 218.844C280.842 217.107 282 214.626 282 211.979V170.795C282 168.066 280.925 165.668 279.106 163.931ZM277.7 211.979H277.617C277.617 213.468 277.038 214.791 276.046 215.784C275.053 216.776 273.73 217.355 272.241 217.355H204.759C203.27 217.355 201.947 216.776 200.954 215.784C199.962 214.791 199.383 213.468 199.383 211.979V170.795C199.383 169.306 199.962 167.983 200.954 166.991C201.947 165.998 203.27 165.42 204.759 165.42H220.72C221.96 165.42 222.952 164.427 222.952 163.187V160.788C222.952 159.879 223.283 159.052 223.862 158.473C224.441 157.894 225.268 157.563 226.178 157.563H250.905C251.815 157.563 252.642 157.894 253.221 158.473C253.799 159.052 254.13 159.879 254.13 160.788V163.187C254.13 164.427 255.123 165.42 256.363 165.42H272.324C273.813 165.42 275.136 165.998 276.128 166.991C277.121 167.983 277.7 169.306 277.7 170.795V211.979Z" fill="#404961"/>
<path d="M238.5 171.043C232.877 171.043 227.749 173.359 224.111 176.998C220.389 180.719 218.156 185.764 218.156 191.388C218.156 197.011 220.472 202.139 224.111 205.777C227.832 209.499 232.877 211.732 238.5 211.732C244.124 211.732 249.251 209.416 252.89 205.777C256.612 202.056 258.844 197.011 258.844 191.388C258.844 185.764 256.529 180.637 252.89 176.998C249.251 173.359 244.124 171.043 238.5 171.043ZM249.748 202.717C246.853 205.529 242.883 207.349 238.5 207.349C234.117 207.349 230.148 205.529 227.253 202.717C224.359 199.823 222.622 195.853 222.622 191.47C222.622 187.087 224.441 183.118 227.253 180.223C230.148 177.329 234.117 175.592 238.5 175.592C242.883 175.592 246.853 177.411 249.748 180.223C252.642 183.118 254.379 187.087 254.379 191.47C254.461 195.853 252.642 199.823 249.748 202.717Z" fill="#404961"/>
<path d="M267.941 179.065C270.179 179.065 271.993 177.251 271.993 175.013C271.993 172.775 270.179 170.96 267.941 170.96C265.703 170.96 263.889 172.775 263.889 175.013C263.889 177.251 265.703 179.065 267.941 179.065Z" fill="#404961"/>
</svg>
