<svg width="478" height="478" viewBox="0 0 478 478" fill="none" xmlns="http://www.w3.org/2000/svg">
<rect width="477.35" height="477.35" rx="10" fill="#051B24"/>
<path d="M194.793 421.196C194.793 419.219 193.184 417.61 191.207 417.61C189.23 417.61 187.621 419.219 187.621 421.196C187.621 423.174 189.23 424.782 191.207 424.782C193.184 424.782 194.793 423.174 194.793 421.196ZM188.949 421.196C188.949 419.951 189.962 418.938 191.207 418.938C192.452 418.938 193.465 419.951 193.465 421.196C193.465 422.441 192.452 423.454 191.207 423.454C189.962 423.454 188.949 422.441 188.949 421.196Z" fill="#273940"/>
<path d="M185.413 429.783C186.266 429.348 186.899 428.607 187.195 427.696C187.491 426.786 187.414 425.814 186.98 424.961C186.545 424.108 185.804 423.475 184.893 423.179C183.982 422.883 183.011 422.959 182.158 423.394C181.304 423.829 180.671 424.57 180.376 425.481C180.08 426.391 180.156 427.363 180.591 428.216C181.026 429.069 181.767 429.702 182.677 429.998C183.042 430.117 183.416 430.175 183.789 430.175C184.347 430.175 184.901 430.043 185.413 429.783V429.783ZM183.088 428.735C182.514 428.549 182.048 428.15 181.774 427.613C181.5 427.076 181.452 426.464 181.639 425.891C181.825 425.318 182.223 424.851 182.76 424.577C183.083 424.413 183.431 424.33 183.783 424.33C184.017 424.33 184.253 424.367 184.483 424.442C185.056 424.628 185.522 425.027 185.796 425.564C186.07 426.101 186.118 426.712 185.932 427.286C185.745 427.859 185.347 428.326 184.81 428.599C184.273 428.873 183.661 428.921 183.088 428.735Z" fill="#273940"/>
<path d="M184.513 438.214C185.148 438.675 185.885 438.898 186.616 438.898C187.726 438.898 188.821 438.385 189.521 437.421C190.084 436.646 190.312 435.698 190.162 434.752C190.012 433.806 189.503 432.975 188.728 432.412C187.953 431.849 187.006 431.622 186.06 431.772C185.114 431.921 184.283 432.431 183.72 433.205C182.558 434.805 182.913 437.052 184.513 438.214V438.214ZM184.794 433.986C185.149 433.498 185.672 433.178 186.267 433.083C186.387 433.064 186.507 433.055 186.625 433.055C187.098 433.055 187.558 433.203 187.948 433.487C188.955 434.218 189.179 435.633 188.447 436.64C187.715 437.647 186.301 437.871 185.294 437.14C184.286 436.408 184.062 434.993 184.794 433.986Z" fill="#273940"/>
<path d="M195.798 438.897C196.529 438.897 197.266 438.675 197.901 438.214C199.501 437.052 199.857 434.805 198.695 433.205C198.132 432.431 197.301 431.921 196.355 431.772C195.409 431.622 194.461 431.849 193.686 432.412C192.911 432.975 192.402 433.806 192.252 434.752C192.102 435.698 192.33 436.646 192.893 437.421C193.593 438.385 194.688 438.897 195.798 438.897V438.897ZM194.467 433.487C194.954 433.132 195.551 432.989 196.147 433.083C196.742 433.178 197.266 433.498 197.62 433.986C198.352 434.993 198.128 436.408 197.121 437.14C196.113 437.871 194.699 437.647 193.967 436.64C193.235 435.633 193.459 434.218 194.467 433.487V433.487Z" fill="#273940"/>
<path d="M197.521 423.179C196.61 423.475 195.869 424.107 195.435 424.961C195 425.814 194.923 426.785 195.219 427.696C195.515 428.607 196.148 429.348 197.001 429.783C197.513 430.043 198.067 430.175 198.625 430.175C198.998 430.175 199.372 430.116 199.737 429.998C200.648 429.702 201.389 429.069 201.823 428.216C202.258 427.363 202.334 426.391 202.039 425.48C201.743 424.57 201.11 423.829 200.257 423.394C199.403 422.959 198.432 422.883 197.521 423.179V423.179ZM199.654 424.577C200.191 424.851 200.589 425.318 200.775 425.891C200.962 426.464 200.914 427.076 200.64 427.613C200.366 428.15 199.9 428.549 199.326 428.735C198.753 428.921 198.141 428.873 197.604 428.599C197.067 428.326 196.669 427.859 196.482 427.286C196.296 426.712 196.344 426.101 196.618 425.564C196.892 425.027 197.358 424.628 197.931 424.442C198.161 424.367 198.397 424.33 198.631 424.33C198.983 424.33 199.331 424.413 199.654 424.577Z" fill="#273940"/>
<path d="M193.484 429C193.484 427.744 192.463 426.723 191.207 426.723C189.951 426.723 188.93 427.744 188.93 429C188.93 430.256 189.951 431.277 191.207 431.277C192.463 431.277 193.484 430.256 193.484 429ZM190.258 429C190.258 428.477 190.684 428.051 191.207 428.051C191.73 428.051 192.156 428.477 192.156 429C192.156 429.523 191.73 429.949 191.207 429.949C190.684 429.949 190.258 429.523 190.258 429V429Z" fill="#273940"/>
<path d="M209.805 441.335C209.055 440.584 208.056 440.171 206.994 440.171C205.932 440.171 204.934 440.584 204.183 441.335C203.188 442.331 201.864 442.879 200.456 442.879H197.44C199.103 442.132 200.633 441.08 201.96 439.753C204.832 436.881 206.414 433.062 206.414 429C206.414 426.029 205.557 423.151 203.936 420.676C203.735 420.369 203.323 420.284 203.016 420.485C202.709 420.686 202.624 421.097 202.825 421.404C204.304 423.662 205.086 426.288 205.086 429C205.086 436.653 198.86 442.879 191.207 442.879C183.554 442.879 177.328 436.653 177.328 429C177.328 421.347 183.554 415.121 191.207 415.121C193.923 415.121 196.554 415.905 198.814 417.39C199.121 417.591 199.532 417.506 199.734 417.199C199.935 416.892 199.85 416.481 199.543 416.279C197.066 414.653 194.183 413.793 191.207 413.793C187.145 413.793 183.326 415.375 180.454 418.247C177.582 421.119 176 424.938 176 429C176 433.062 177.582 436.881 180.454 439.753C183.326 442.625 187.145 444.207 191.207 444.207H200.456C202.219 444.207 203.876 443.521 205.122 442.274C205.622 441.774 206.287 441.499 206.994 441.499C207.701 441.499 208.366 441.774 208.866 442.274C209.126 442.534 209.546 442.534 209.805 442.274C210.065 442.015 210.065 441.595 209.805 441.335Z" fill="#273940"/>
<path d="M201.495 419.385C201.67 419.385 201.841 419.315 201.965 419.191C202.088 419.067 202.159 418.896 202.159 418.722C202.159 418.546 202.088 418.376 201.965 418.252C201.841 418.128 201.67 418.058 201.495 418.058C201.32 418.058 201.149 418.128 201.026 418.252C200.902 418.376 200.831 418.546 200.831 418.722C200.831 418.896 200.902 419.068 201.026 419.191C201.149 419.315 201.32 419.385 201.495 419.385Z" fill="#273940"/>
<path d="M181.775 452.05C181.642 452.533 181.433 452.908 181.15 453.175C180.867 453.425 180.558 453.617 180.225 453.75C179.892 453.867 179.55 453.942 179.2 453.975C178.867 453.992 178.592 454 178.375 454H174C173.417 454 172.975 453.942 172.675 453.825C172.375 453.708 172.167 453.55 172.05 453.35C171.95 453.133 171.917 452.892 171.95 452.625C172 452.342 172.083 452.042 172.2 451.725L174.225 446.45L168.175 453.1C167.742 453.567 167.325 453.875 166.925 454.025C166.542 454.175 166.092 454.217 165.575 454.15C165.192 454.1 164.892 454 164.675 453.85C164.475 453.7 164.333 453.517 164.25 453.3C164.183 453.067 164.167 452.817 164.2 452.55C164.233 452.267 164.3 451.992 164.4 451.725L167.4 443.975L159.875 453.075C159.858 453.092 159.783 453.175 159.65 453.325C159.517 453.458 159.275 453.608 158.925 453.775C158.575 453.925 158.15 454 157.65 454H155.175L160.1 439.9H153.325L155.175 436.825H163.325C163.625 436.825 163.9 436.858 164.15 436.925C164.4 436.975 164.6 437.092 164.75 437.275C164.9 437.442 164.983 437.683 165 438C165.017 438.3 164.942 438.7 164.775 439.2L162.15 446.775L167.4 440.825C167.667 440.525 167.917 440.25 168.15 440C168.4 439.733 168.667 439.517 168.95 439.35C169.233 439.167 169.55 439.025 169.9 438.925C170.267 438.825 170.717 438.775 171.25 438.775C171.317 438.775 171.458 438.808 171.675 438.875C171.908 438.925 172.125 439.05 172.325 439.25C172.525 439.45 172.658 439.733 172.725 440.1C172.808 440.467 172.733 440.958 172.5 441.575L170.125 447.725L174.825 443C175.108 442.717 175.35 442.475 175.55 442.275C175.75 442.075 175.95 441.917 176.15 441.8C176.367 441.683 176.6 441.6 176.85 441.55C177.1 441.5 177.417 441.475 177.8 441.475C177.867 441.475 178.017 441.508 178.25 441.575C178.5 441.642 178.733 441.783 178.95 442C179.167 442.2 179.317 442.492 179.4 442.875C179.5 443.242 179.433 443.733 179.2 444.35L176.275 452.05H181.775ZM202.578 445.7C202.578 445.7 202.545 445.8 202.478 446C202.428 446.2 202.303 446.425 202.103 446.675C201.903 446.925 201.603 447.15 201.203 447.35C200.82 447.55 200.303 447.65 199.653 447.65H192.003C192.153 447.75 192.286 447.892 192.403 448.075C192.52 448.258 192.611 448.458 192.678 448.675C192.761 448.875 192.82 449.083 192.853 449.3C192.886 449.517 192.895 449.708 192.878 449.875C192.828 450.575 192.645 451.192 192.328 451.725C192.011 452.258 191.595 452.708 191.078 453.075C190.578 453.442 189.978 453.725 189.278 453.925C188.595 454.108 187.853 454.2 187.053 454.2C185.92 454.2 184.961 454.075 184.178 453.825C183.411 453.575 182.795 453.242 182.328 452.825C181.878 452.408 181.57 451.933 181.403 451.4C181.236 450.85 181.203 450.283 181.303 449.7C181.503 448.5 182.103 447.533 183.103 446.8C184.12 446.067 185.561 445.7 187.428 445.7H202.578ZM189.278 447.65H186.478L185.378 450.775C185.228 451.225 185.261 451.558 185.478 451.775C185.695 451.975 185.961 452.117 186.278 452.2C186.611 452.267 186.92 452.3 187.203 452.3C187.503 452.283 187.653 452.275 187.653 452.275L189.278 447.65ZM221.866 445.7C221.749 446.1 221.558 446.433 221.291 446.7C221.041 446.95 220.766 447.15 220.466 447.3C220.166 447.433 219.866 447.525 219.566 447.575C219.266 447.625 219.016 447.65 218.816 447.65H213.691L208.516 454H203.641L203.116 445.7H207.541L207.616 451.7L212.191 445.7H221.866ZM228.581 440.7C228.581 441.1 228.498 441.483 228.331 441.85C228.165 442.2 227.931 442.508 227.631 442.775C227.348 443.042 227.006 443.25 226.606 443.4C226.223 443.55 225.806 443.625 225.356 443.625C224.906 443.625 224.481 443.55 224.081 443.4C223.698 443.25 223.356 443.042 223.056 442.775C222.756 442.508 222.523 442.2 222.356 441.85C222.19 441.483 222.106 441.1 222.106 440.7C222.106 440.3 222.19 439.925 222.356 439.575C222.523 439.208 222.756 438.892 223.056 438.625C223.356 438.358 223.698 438.15 224.081 438C224.481 437.85 224.906 437.775 225.356 437.775C225.806 437.775 226.223 437.85 226.606 438C227.006 438.15 227.348 438.358 227.631 438.625C227.931 438.892 228.165 439.208 228.331 439.575C228.498 439.925 228.581 440.3 228.581 440.7ZM229.456 452.05C229.34 452.45 229.156 452.783 228.906 453.05C228.673 453.3 228.415 453.5 228.131 453.65C227.865 453.783 227.59 453.875 227.306 453.925C227.023 453.975 226.781 454 226.581 454H221.756C221.09 454 220.598 453.8 220.281 453.4C219.948 452.983 219.915 452.4 220.181 451.65L222.306 445.7H226.731L224.481 452.05H229.456ZM244.609 452.05C244.509 452.383 244.35 452.675 244.134 452.925C243.934 453.158 243.692 453.358 243.409 453.525C243.142 453.692 242.842 453.817 242.509 453.9C242.192 453.967 241.875 454 241.559 454H234.759C234.159 454 233.509 453.958 232.809 453.875C232.125 453.792 231.484 453.625 230.884 453.375C230.3 453.125 229.817 452.767 229.434 452.3C229.034 451.833 228.834 451.208 228.834 450.425C228.834 449.608 229.025 448.9 229.409 448.3C229.775 447.7 230.259 447.208 230.859 446.825C231.459 446.442 232.125 446.158 232.859 445.975C233.592 445.792 234.309 445.7 235.009 445.7H236.784C237.167 445.7 237.6 445.733 238.084 445.8C238.584 445.867 239.05 445.992 239.484 446.175C239.934 446.358 240.309 446.608 240.609 446.925C240.925 447.225 241.1 447.617 241.134 448.1C241.167 448.6 241.059 449.033 240.809 449.4C240.559 449.75 240.25 450.042 239.884 450.275H235.834L237.159 447.65H234.584L233.584 450.6C233.484 450.9 233.467 451.15 233.534 451.35C233.617 451.533 233.742 451.683 233.909 451.8C234.075 451.9 234.267 451.967 234.484 452C234.7 452.033 234.9 452.05 235.084 452.05H244.609ZM273.734 445.7C273.551 446.283 273.293 446.758 272.959 447.125C272.626 447.475 272.126 447.65 271.459 447.65H263.934C263.951 447.7 263.959 447.792 263.959 447.925V448.175C263.959 449.408 263.618 450.575 262.934 451.675C262.268 452.775 261.409 453.742 260.359 454.575C259.309 455.408 258.159 456.067 256.909 456.55C255.659 457.05 254.459 457.3 253.309 457.3C252.743 457.3 252.226 457.217 251.759 457.05C251.293 456.883 250.901 456.642 250.584 456.325C250.251 456.025 250.001 455.65 249.834 455.2C249.668 454.767 249.601 454.267 249.634 453.7C249.701 452.533 250.018 451.492 250.584 450.575C251.151 449.642 251.851 448.85 252.684 448.2C253.534 447.533 254.468 447 255.484 446.6C256.518 446.2 257.534 445.933 258.534 445.8C258.301 445.317 258.001 444.883 257.634 444.5C257.284 444.117 256.893 443.758 256.459 443.425L263.209 439.9H254.034L255.884 436.825H268.584C268.601 437.725 268.484 438.483 268.234 439.1C267.984 439.717 267.451 440.242 266.634 440.675C265.001 441.575 263.359 442.458 261.709 443.325C262.109 443.642 262.459 444 262.759 444.4C263.076 444.783 263.318 445.217 263.484 445.7H273.734ZM259.584 448.075C259.568 448.025 259.551 447.967 259.534 447.9C259.518 447.817 259.468 447.733 259.384 447.65C259.018 447.7 258.626 447.817 258.209 448C257.793 448.167 257.384 448.383 256.984 448.65C256.584 448.9 256.209 449.175 255.859 449.475C255.509 449.775 255.226 450.075 255.009 450.375C254.826 450.625 254.618 450.908 254.384 451.225C254.168 451.542 253.968 451.875 253.784 452.225C253.601 452.575 253.443 452.933 253.309 453.3C253.193 453.65 253.134 453.983 253.134 454.3C253.134 454.617 253.209 454.875 253.359 455.075C253.509 455.275 253.751 455.375 254.084 455.375C254.501 455.375 254.934 455.267 255.384 455.05C255.834 454.833 256.276 454.533 256.709 454.15C257.159 453.783 257.576 453.358 257.959 452.875C258.343 452.392 258.668 451.883 258.934 451.35C259.201 450.8 259.393 450.25 259.509 449.7C259.643 449.133 259.668 448.592 259.584 448.075ZM292.861 445.7C292.861 445.7 292.828 445.8 292.761 446C292.711 446.2 292.586 446.425 292.386 446.675C292.186 446.925 291.886 447.15 291.486 447.35C291.103 447.55 290.586 447.65 289.936 447.65H282.286C282.436 447.75 282.57 447.892 282.686 448.075C282.803 448.258 282.895 448.458 282.961 448.675C283.045 448.875 283.103 449.083 283.136 449.3C283.17 449.517 283.178 449.708 283.161 449.875C283.111 450.575 282.928 451.192 282.611 451.725C282.295 452.258 281.878 452.708 281.361 453.075C280.861 453.442 280.261 453.725 279.561 453.925C278.878 454.108 278.136 454.2 277.336 454.2C276.203 454.2 275.245 454.075 274.461 453.825C273.695 453.575 273.078 453.242 272.611 452.825C272.161 452.408 271.853 451.933 271.686 451.4C271.52 450.85 271.486 450.283 271.586 449.7C271.786 448.5 272.386 447.533 273.386 446.8C274.403 446.067 275.845 445.7 277.711 445.7H292.861ZM279.561 447.65H276.761L275.661 450.775C275.511 451.225 275.545 451.558 275.761 451.775C275.978 451.975 276.245 452.117 276.561 452.2C276.895 452.267 277.203 452.3 277.486 452.3C277.786 452.283 277.936 452.275 277.936 452.275L279.561 447.65ZM307.853 452.05C307.736 452.45 307.544 452.783 307.278 453.05C307.028 453.3 306.753 453.5 306.453 453.65C306.153 453.783 305.853 453.875 305.553 453.925C305.253 453.975 305.003 454 304.803 454H299.928C299.161 454 298.661 453.842 298.428 453.525C298.194 453.192 298.194 452.7 298.428 452.05L299.353 449.425L295.153 452.975C295.153 452.975 295.069 453.033 294.903 453.15C294.753 453.25 294.561 453.367 294.328 453.5C294.094 453.617 293.828 453.733 293.528 453.85C293.244 453.95 292.978 454 292.728 454H290.478L293.403 445.7H297.803L296.428 449.6L300.153 446.55C300.586 446.2 301.053 445.908 301.553 445.675C302.053 445.442 302.678 445.342 303.428 445.375C303.628 445.375 303.819 445.425 304.003 445.525C304.186 445.608 304.336 445.742 304.453 445.925C304.569 446.108 304.628 446.342 304.628 446.625C304.644 446.908 304.578 447.25 304.428 447.65L302.853 452.05H307.853ZM323.198 452.05C323.098 452.383 322.939 452.675 322.723 452.925C322.523 453.158 322.281 453.358 321.998 453.525C321.731 453.692 321.431 453.817 321.098 453.9C320.781 453.967 320.464 454 320.148 454H313.348C312.748 454 312.098 453.958 311.398 453.875C310.714 453.792 310.073 453.625 309.473 453.375C308.889 453.125 308.406 452.767 308.023 452.3C307.623 451.833 307.423 451.208 307.423 450.425C307.423 449.608 307.614 448.9 307.998 448.3C308.364 447.7 308.848 447.208 309.448 446.825C310.048 446.442 310.714 446.158 311.448 445.975C312.181 445.792 312.898 445.7 313.598 445.7H315.373C315.756 445.7 316.189 445.733 316.673 445.8C317.173 445.867 317.639 445.992 318.073 446.175C318.523 446.358 318.898 446.608 319.198 446.925C319.514 447.225 319.689 447.617 319.723 448.1C319.756 448.6 319.648 449.033 319.398 449.4C319.148 449.75 318.839 450.042 318.473 450.275H314.423L315.748 447.65H313.173L312.173 450.6C312.073 450.9 312.056 451.15 312.123 451.35C312.206 451.533 312.331 451.683 312.498 451.8C312.664 451.9 312.856 451.967 313.073 452C313.289 452.033 313.489 452.05 313.673 452.05H323.198Z" fill="#273940"/>
<path d="M62.4072 263H66.5472V284H43.3572V263H47.4972V280.04H52.8972V263H57.0072V280.04H62.4072V263ZM80.2068 269H83.0868V284H79.3068V275.3L73.1568 284H70.2768V269H74.0568V277.7L80.2068 269ZM95.3545 268.58C97.3745 268.58 99.0945 269.35 100.514 270.89C101.954 272.41 102.674 274.28 102.674 276.5C102.674 278.72 101.954 280.6 100.514 282.14C99.0945 283.66 97.3745 284.42 95.3545 284.42C93.2745 284.42 91.6545 283.7 90.4945 282.26V290H86.6245V269H90.4945V270.74C91.6545 269.3 93.2745 268.58 95.3545 268.58ZM94.6345 280.73C95.8345 280.73 96.8245 280.34 97.6045 279.56C98.4045 278.76 98.8045 277.74 98.8045 276.5C98.8045 275.26 98.4045 274.25 97.6045 273.47C96.8245 272.67 95.8345 272.27 94.6345 272.27C93.4945 272.27 92.5345 272.64 91.7545 273.38C90.9745 274.1 90.5545 275.05 90.4945 276.23V276.77C90.5545 277.95 90.9745 278.91 91.7545 279.65C92.5345 280.37 93.4945 280.73 94.6345 280.73ZM115.334 269H118.214V284H114.434V275.3L108.284 284H105.404V269H109.184V277.7L115.334 269ZM130.691 269H134.561V284H130.691V278.3H125.621V284H121.751V269H125.621V274.67H130.691V269ZM144.099 268.58C145.859 268.58 147.319 269.1 148.479 270.14C149.639 271.16 150.219 272.6 150.219 274.46V284H146.439V282.71C145.499 283.85 144.139 284.42 142.359 284.42C140.939 284.42 139.739 284.01 138.759 283.19C137.799 282.35 137.319 281.18 137.319 279.68C137.319 278.18 137.799 277.02 138.759 276.2C139.739 275.38 140.939 274.97 142.359 274.97C144.059 274.97 145.419 275.41 146.439 276.29V274.7C146.439 273.02 145.659 272.18 144.099 272.18C143.399 272.18 142.839 272.36 142.419 272.72C141.999 273.06 141.789 273.52 141.789 274.1H138.009C138.009 272.4 138.589 271.06 139.749 270.08C140.929 269.08 142.379 268.58 144.099 268.58ZM143.679 281.54C144.519 281.54 145.189 281.37 145.689 281.03C146.189 280.67 146.439 280.22 146.439 279.68C146.439 279.1 146.189 278.65 145.689 278.33C145.209 277.99 144.539 277.82 143.679 277.82C142.859 277.82 142.239 277.99 141.819 278.33C141.399 278.67 141.189 279.12 141.189 279.68C141.189 280.24 141.399 280.69 141.819 281.03C142.239 281.37 142.859 281.54 143.679 281.54ZM176.703 271.37C178.023 272.79 178.683 274.5 178.683 276.5C178.683 278.5 178.023 280.21 176.703 281.63C175.383 283.05 173.573 283.92 171.273 284.24V290H167.493V284.24C165.193 283.92 163.383 283.05 162.063 281.63C160.743 280.21 160.083 278.5 160.083 276.5C160.083 274.5 160.743 272.79 162.063 271.37C163.383 269.95 165.193 269.08 167.493 268.76V263H171.273V268.76C173.573 269.08 175.383 269.95 176.703 271.37ZM164.823 273.92C164.203 274.64 163.893 275.5 163.893 276.5C163.893 277.5 164.203 278.36 164.823 279.08C165.443 279.8 166.333 280.29 167.493 280.55V272.45C166.333 272.71 165.443 273.2 164.823 273.92ZM171.273 280.55C172.413 280.29 173.293 279.8 173.913 279.08C174.533 278.36 174.843 277.5 174.843 276.5C174.843 275.5 174.533 274.64 173.913 273.92C173.293 273.2 172.413 272.71 171.273 272.45V280.55ZM194.18 282.14C192.64 283.66 190.76 284.42 188.54 284.42C186.32 284.42 184.44 283.66 182.9 282.14C181.38 280.6 180.62 278.72 180.62 276.5C180.62 274.28 181.38 272.41 182.9 270.89C184.44 269.35 186.32 268.58 188.54 268.58C190.76 268.58 192.64 269.35 194.18 270.89C195.72 272.41 196.49 274.28 196.49 276.5C196.49 278.72 195.72 280.6 194.18 282.14ZM185.63 279.47C186.41 280.25 187.38 280.64 188.54 280.64C189.7 280.64 190.67 280.25 191.45 279.47C192.23 278.69 192.62 277.7 192.62 276.5C192.62 275.3 192.23 274.31 191.45 273.53C190.67 272.75 189.7 272.36 188.54 272.36C187.38 272.36 186.41 272.75 185.63 273.53C184.87 274.31 184.49 275.3 184.49 276.5C184.49 277.7 184.87 278.69 185.63 279.47ZM209.246 269V272.63H205.166V284H201.296V272.63H197.156V269H205.166H209.246ZM223.623 282.14C222.083 283.66 220.203 284.42 217.983 284.42C215.763 284.42 213.883 283.66 212.343 282.14C210.823 280.6 210.063 278.72 210.063 276.5C210.063 274.28 210.823 272.41 212.343 270.89C213.883 269.35 215.763 268.58 217.983 268.58C220.203 268.58 222.083 269.35 223.623 270.89C225.163 272.41 225.933 274.28 225.933 276.5C225.933 278.72 225.163 280.6 223.623 282.14ZM215.073 279.47C215.853 280.25 216.823 280.64 217.983 280.64C219.143 280.64 220.113 280.25 220.893 279.47C221.673 278.69 222.063 277.7 222.063 276.5C222.063 275.3 221.673 274.31 220.893 273.53C220.113 272.75 219.143 272.36 217.983 272.36C216.823 272.36 215.853 272.75 215.073 273.53C214.313 274.31 213.933 275.3 213.933 276.5C213.933 277.7 214.313 278.69 215.073 279.47ZM238.316 269V272.72H232.526V284H228.656V269H238.316ZM248.87 268.58C250.89 268.58 252.61 269.35 254.03 270.89C255.47 272.41 256.19 274.28 256.19 276.5C256.19 278.72 255.47 280.6 254.03 282.14C252.61 283.66 250.89 284.42 248.87 284.42C246.79 284.42 245.17 283.7 244.01 282.26V290H240.14V269H244.01V270.74C245.17 269.3 246.79 268.58 248.87 268.58ZM248.15 280.73C249.35 280.73 250.34 280.34 251.12 279.56C251.92 278.76 252.32 277.74 252.32 276.5C252.32 275.26 251.92 274.25 251.12 273.47C250.34 272.67 249.35 272.27 248.15 272.27C247.01 272.27 246.05 272.64 245.27 273.38C244.49 274.1 244.07 275.05 244.01 276.23V276.77C244.07 277.95 244.49 278.91 245.27 279.65C246.05 280.37 247.01 280.73 248.15 280.73ZM264.597 268.58C266.357 268.58 267.817 269.1 268.977 270.14C270.137 271.16 270.717 272.6 270.717 274.46V284H266.937V282.71C265.997 283.85 264.637 284.42 262.857 284.42C261.437 284.42 260.237 284.01 259.257 283.19C258.297 282.35 257.817 281.18 257.817 279.68C257.817 278.18 258.297 277.02 259.257 276.2C260.237 275.38 261.437 274.97 262.857 274.97C264.557 274.97 265.917 275.41 266.937 276.29V274.7C266.937 273.02 266.157 272.18 264.597 272.18C263.897 272.18 263.337 272.36 262.917 272.72C262.497 273.06 262.287 273.52 262.287 274.1H258.507C258.507 272.4 259.087 271.06 260.247 270.08C261.427 269.08 262.877 268.58 264.597 268.58ZM264.177 281.54C265.017 281.54 265.687 281.37 266.187 281.03C266.687 280.67 266.937 280.22 266.937 279.68C266.937 279.1 266.687 278.65 266.187 278.33C265.707 277.99 265.037 277.82 264.177 277.82C263.357 277.82 262.737 277.99 262.317 278.33C261.897 278.67 261.687 279.12 261.687 279.68C261.687 280.24 261.897 280.69 262.317 281.03C262.737 281.37 263.357 281.54 264.177 281.54ZM289.701 271.37C291.021 272.79 291.681 274.5 291.681 276.5C291.681 278.5 291.021 280.21 289.701 281.63C288.381 283.05 286.571 283.92 284.271 284.24V290H280.491V284.24C278.191 283.92 276.381 283.05 275.061 281.63C273.741 280.21 273.081 278.5 273.081 276.5C273.081 274.5 273.741 272.79 275.061 271.37C276.381 269.95 278.191 269.08 280.491 268.76V263H284.271V268.76C286.571 269.08 288.381 269.95 289.701 271.37ZM277.821 273.92C277.201 274.64 276.891 275.5 276.891 276.5C276.891 277.5 277.201 278.36 277.821 279.08C278.441 279.8 279.331 280.29 280.491 280.55V272.45C279.331 272.71 278.441 273.2 277.821 273.92ZM284.271 280.55C285.411 280.29 286.291 279.8 286.911 279.08C287.531 278.36 287.841 277.5 287.841 276.5C287.841 275.5 287.531 274.64 286.911 273.92C286.291 273.2 285.411 272.71 284.271 272.45V280.55ZM304.328 269H307.208V284H303.428V275.3L297.278 284H294.398V269H298.178V277.7L304.328 269ZM320.676 269H323.556V284H319.776V275.3L313.626 284H310.746V269H314.526V277.7L320.676 269ZM347.493 280.49H349.473V284V288.32H345.693V284H336.993V288.32H333.213V282.92V280.49H334.953C335.873 279.23 336.333 277.42 336.333 275.06V269H340.113H346.083H347.493V280.49ZM339.123 280.49H343.713V272.48H340.113V275.06C340.113 277.24 339.783 279.05 339.123 280.49ZM364.248 282.14C362.708 283.66 360.828 284.42 358.608 284.42C356.388 284.42 354.508 283.66 352.968 282.14C351.448 280.6 350.688 278.72 350.688 276.5C350.688 274.28 351.448 272.41 352.968 270.89C354.508 269.35 356.388 268.58 358.608 268.58C360.828 268.58 362.708 269.35 364.248 270.89C365.788 272.41 366.558 274.28 366.558 276.5C366.558 278.72 365.788 280.6 364.248 282.14ZM355.698 279.47C356.478 280.25 357.448 280.64 358.608 280.64C359.768 280.64 360.738 280.25 361.518 279.47C362.298 278.69 362.688 277.7 362.688 276.5C362.688 275.3 362.298 274.31 361.518 273.53C360.738 272.75 359.768 272.36 358.608 272.36C357.448 272.36 356.478 272.75 355.698 273.53C354.938 274.31 354.558 275.3 354.558 276.5C354.558 277.7 354.938 278.69 355.698 279.47ZM380.842 269V284H376.972V272.72H373.672V277.73C373.672 282.31 371.562 284.46 367.342 284.18V280.55C368.982 280.77 369.802 279.76 369.802 277.52V269H373.672H380.842ZM404.619 284H400.269L395.679 277.28V284H391.899V277.28L387.309 284H382.989L388.389 276.41L383.289 269H387.609L391.899 275.51V269H395.679V275.51L399.969 269H404.319L399.189 276.41L404.619 284ZM415.691 269H419.561V284H415.691V278.3H410.621V284H406.751V269H410.621V274.67H415.691V269ZM429.099 268.58C430.859 268.58 432.319 269.1 433.479 270.14C434.639 271.16 435.219 272.6 435.219 274.46V284H431.439V282.71C430.499 283.85 429.139 284.42 427.359 284.42C425.939 284.42 424.739 284.01 423.759 283.19C422.799 282.35 422.319 281.18 422.319 279.68C422.319 278.18 422.799 277.02 423.759 276.2C424.739 275.38 425.939 274.97 427.359 274.97C429.059 274.97 430.419 275.41 431.439 276.29V274.7C431.439 273.02 430.659 272.18 429.099 272.18C428.399 272.18 427.839 272.36 427.419 272.72C426.999 273.06 426.789 273.52 426.789 274.1H423.009C423.009 272.4 423.589 271.06 424.749 270.08C425.929 269.08 427.379 268.58 429.099 268.58ZM428.679 281.54C429.519 281.54 430.189 281.37 430.689 281.03C431.189 280.67 431.439 280.22 431.439 279.68C431.439 279.1 431.189 278.65 430.689 278.33C430.209 277.99 429.539 277.82 428.679 277.82C427.859 277.82 427.239 277.99 426.819 278.33C426.399 278.67 426.189 279.12 426.189 279.68C426.189 280.24 426.399 280.69 426.819 281.03C427.239 281.37 427.859 281.54 428.679 281.54ZM95.1965 321.42C92.9165 321.42 91.0465 320.7 89.5865 319.26C88.1465 317.82 87.4265 315.99 87.4265 313.77C87.4265 312.61 87.5965 311.54 87.9365 310.56C88.2765 309.56 88.7165 308.71 89.2565 308.01C89.8165 307.29 90.4265 306.63 91.0865 306.03C91.7665 305.43 92.4365 304.89 93.0965 304.41C93.7765 303.91 94.3865 303.44 94.9265 303C95.4865 302.54 95.9365 302.06 96.2765 301.56C96.6165 301.04 96.7865 300.52 96.7865 300H100.897C100.897 301.04 100.677 301.95 100.237 302.73C99.7965 303.51 99.2265 304.15 98.5265 304.65C97.8465 305.15 97.1365 305.6 96.3965 306C95.6565 306.4 94.9165 306.86 94.1765 307.38C93.4365 307.88 92.8865 308.4 92.5265 308.94C93.5865 308.14 94.8465 307.74 96.3065 307.74C97.9465 307.74 99.4365 308.36 100.777 309.6C102.117 310.84 102.787 312.43 102.787 314.37C102.787 316.41 102.077 318.1 100.657 319.44C99.2365 320.76 97.4165 321.42 95.1965 321.42ZM95.1665 317.88C96.2665 317.88 97.1665 317.55 97.8665 316.89C98.5665 316.21 98.9165 315.37 98.9165 314.37C98.9165 313.35 98.5465 312.51 97.8065 311.85C97.0865 311.17 96.1765 310.83 95.0765 310.83C94.0965 310.83 93.2265 311.14 92.4665 311.76C91.7265 312.38 91.3565 313.21 91.3565 314.25C91.3565 315.31 91.7165 316.18 92.4365 316.86C93.1765 317.54 94.0865 317.88 95.1665 317.88ZM111.891 310.8C113.591 310.8 114.961 311.27 116.001 312.21C117.041 313.13 117.561 314.36 117.561 315.9C117.561 317.44 117.041 318.68 116.001 319.62C114.961 320.54 113.591 321 111.891 321H106.041H105.111V306H108.981V310.8H111.891ZM119.211 306H123.081V321H119.211V306ZM111.921 317.58C112.461 317.58 112.901 317.43 113.241 317.13C113.601 316.81 113.781 316.4 113.781 315.9C113.781 315.4 113.601 314.99 113.241 314.67C112.901 314.35 112.461 314.19 111.921 314.19H108.981V317.58H111.921ZM137.235 306V309.63H133.155V321H129.285V309.63H125.145V306H133.155H137.235ZM146.08 310.8C147.78 310.8 149.15 311.27 150.19 312.21C151.23 313.13 151.75 314.36 151.75 315.9C151.75 317.44 151.23 318.68 150.19 319.62C149.15 320.54 147.78 321 146.08 321H140.23H139.3V306H143.17V310.8H146.08ZM146.11 317.58C146.65 317.58 147.09 317.43 147.43 317.13C147.79 316.81 147.97 316.4 147.97 315.9C147.97 315.4 147.79 314.99 147.43 314.67C147.09 314.35 146.65 314.19 146.11 314.19H143.17V317.58H146.11ZM170.413 305.58C172.433 305.58 174.153 306.35 175.573 307.89C177.013 309.41 177.733 311.28 177.733 313.5C177.733 315.72 177.013 317.6 175.573 319.14C174.153 320.66 172.433 321.42 170.413 321.42C168.333 321.42 166.713 320.7 165.553 319.26V327H161.683V306H165.553V307.74C166.713 306.3 168.333 305.58 170.413 305.58ZM169.693 317.73C170.893 317.73 171.883 317.34 172.663 316.56C173.463 315.76 173.863 314.74 173.863 313.5C173.863 312.26 173.463 311.25 172.663 310.47C171.883 309.67 170.893 309.27 169.693 309.27C168.553 309.27 167.593 309.64 166.813 310.38C166.033 311.1 165.613 312.05 165.553 313.23V313.77C165.613 314.95 166.033 315.91 166.813 316.65C167.593 317.37 168.553 317.73 169.693 317.73ZM186.14 305.58C187.9 305.58 189.36 306.1 190.52 307.14C191.68 308.16 192.26 309.6 192.26 311.46V321H188.48V319.71C187.54 320.85 186.18 321.42 184.4 321.42C182.98 321.42 181.78 321.01 180.8 320.19C179.84 319.35 179.36 318.18 179.36 316.68C179.36 315.18 179.84 314.02 180.8 313.2C181.78 312.38 182.98 311.97 184.4 311.97C186.1 311.97 187.46 312.41 188.48 313.29V311.7C188.48 310.02 187.7 309.18 186.14 309.18C185.44 309.18 184.88 309.36 184.46 309.72C184.04 310.06 183.83 310.52 183.83 311.1H180.05C180.05 309.4 180.63 308.06 181.79 307.08C182.97 306.08 184.42 305.58 186.14 305.58ZM185.72 318.54C186.56 318.54 187.23 318.37 187.73 318.03C188.23 317.67 188.48 317.22 188.48 316.68C188.48 316.1 188.23 315.65 187.73 315.33C187.25 314.99 186.58 314.82 185.72 314.82C184.9 314.82 184.28 314.99 183.86 315.33C183.44 315.67 183.23 316.12 183.23 316.68C183.23 317.24 183.44 317.69 183.86 318.03C184.28 318.37 184.9 318.54 185.72 318.54ZM206.384 312.12C207.204 312.5 207.834 313.05 208.274 313.77C208.734 314.49 208.964 315.31 208.964 316.23C208.964 317.63 208.494 318.78 207.554 319.68C206.634 320.56 205.304 321 203.564 321H195.404V314.49V306H199.034H202.304C203.744 306 204.904 306.39 205.784 307.17C206.664 307.95 207.104 308.91 207.104 310.05C207.104 310.75 206.864 311.44 206.384 312.12ZM199.034 309.12V311.55H203.204C203.364 311.27 203.444 310.97 203.444 310.65C203.444 310.19 203.284 309.82 202.964 309.54C202.664 309.24 202.254 309.1 201.734 309.12H199.034ZM203.234 317.79C204.534 317.79 205.184 317.23 205.184 316.11C205.184 315.03 204.534 314.49 203.234 314.49H199.034V317.79H203.234ZM220.106 306H223.976V321H220.106V315.3H215.036V321H211.166V306H215.036V311.67H220.106V306ZM233.513 305.58C235.273 305.58 236.733 306.1 237.893 307.14C239.053 308.16 239.633 309.6 239.633 311.46V321H235.853V319.71C234.913 320.85 233.553 321.42 231.773 321.42C230.353 321.42 229.153 321.01 228.173 320.19C227.213 319.35 226.733 318.18 226.733 316.68C226.733 315.18 227.213 314.02 228.173 313.2C229.153 312.38 230.353 311.97 231.773 311.97C233.473 311.97 234.833 312.41 235.853 313.29V311.7C235.853 310.02 235.073 309.18 233.513 309.18C232.813 309.18 232.253 309.36 231.833 309.72C231.413 310.06 231.203 310.52 231.203 311.1H227.423C227.423 309.4 228.003 308.06 229.163 307.08C230.343 306.08 231.793 305.58 233.513 305.58ZM233.093 318.54C233.933 318.54 234.603 318.37 235.103 318.03C235.603 317.67 235.853 317.22 235.853 316.68C235.853 316.1 235.603 315.65 235.103 315.33C234.623 314.99 233.953 314.82 233.093 314.82C232.273 314.82 231.653 314.99 231.233 315.33C230.813 315.67 230.603 316.12 230.603 316.68C230.603 317.24 230.813 317.69 231.233 318.03C231.653 318.37 232.273 318.54 233.093 318.54ZM253.517 315.09C253.757 316.11 254.237 316.89 254.957 317.43C255.697 317.95 256.567 318.21 257.567 318.21C258.247 318.21 258.867 318.07 259.427 317.79C259.987 317.51 260.397 317.15 260.657 316.71L264.467 316.68C264.007 318.18 263.157 319.35 261.917 320.19C260.697 321.01 259.237 321.42 257.537 321.42C255.137 321.42 253.197 320.67 251.717 319.17C250.237 317.67 249.497 315.78 249.497 313.5C249.497 311.24 250.237 309.36 251.717 307.86C253.197 306.34 255.107 305.58 257.447 305.58C259.627 305.58 261.417 306.34 262.817 307.86C264.217 309.38 264.917 311.26 264.917 313.5C264.917 314.14 264.867 314.67 264.767 315.09H253.517ZM253.487 312.06H261.047C260.827 311.04 260.387 310.29 259.727 309.81C259.067 309.31 258.297 309.06 257.417 309.06C256.397 309.06 255.547 309.32 254.867 309.84C254.187 310.36 253.727 311.1 253.487 312.06ZM273.772 300.51V304.05H270.232V300.51H273.772ZM279.322 300.51V304.05H275.782V300.51H279.322ZM270.802 315.09C271.042 316.11 271.522 316.89 272.242 317.43C272.982 317.95 273.852 318.21 274.852 318.21C275.532 318.21 276.152 318.07 276.712 317.79C277.272 317.51 277.682 317.15 277.942 316.71L281.752 316.68C281.292 318.18 280.442 319.35 279.202 320.19C277.982 321.01 276.522 321.42 274.822 321.42C272.422 321.42 270.482 320.67 269.002 319.17C267.522 317.67 266.782 315.78 266.782 313.5C266.782 311.24 267.522 309.36 269.002 307.86C270.482 306.34 272.392 305.58 274.732 305.58C276.912 305.58 278.702 306.34 280.102 307.86C281.502 309.38 282.202 311.26 282.202 313.5C282.202 314.14 282.152 314.67 282.052 315.09H270.802ZM270.772 312.06H278.332C278.112 311.04 277.672 310.29 277.012 309.81C276.352 309.31 275.582 309.06 274.702 309.06C273.682 309.06 272.832 309.32 272.152 309.84C271.472 310.36 271.012 311.1 270.772 312.06ZM303.327 312.12C304.147 312.5 304.777 313.05 305.217 313.77C305.677 314.49 305.907 315.31 305.907 316.23C305.907 317.63 305.437 318.78 304.497 319.68C303.577 320.56 302.247 321 300.507 321H292.347V314.49V306H295.977H299.247C300.687 306 301.847 306.39 302.727 307.17C303.607 307.95 304.047 308.91 304.047 310.05C304.047 310.75 303.807 311.44 303.327 312.12ZM295.977 309.12V311.55H300.147C300.307 311.27 300.387 310.97 300.387 310.65C300.387 310.19 300.227 309.82 299.907 309.54C299.607 309.24 299.197 309.1 298.677 309.12H295.977ZM300.177 317.79C301.477 317.79 302.127 317.23 302.127 316.11C302.127 315.03 301.477 314.49 300.177 314.49H295.977V317.79H300.177ZM314.889 310.8C316.589 310.8 317.959 311.27 318.999 312.21C320.039 313.13 320.559 314.36 320.559 315.9C320.559 317.44 320.039 318.68 318.999 319.62C317.959 320.54 316.589 321 314.889 321H309.039H308.109V306H311.979V310.8H314.889ZM322.209 306H326.079V321H322.209V306ZM314.919 317.58C315.459 317.58 315.899 317.43 316.239 317.13C316.599 316.81 316.779 316.4 316.779 315.9C316.779 315.4 316.599 314.99 316.239 314.67C315.899 314.35 315.459 314.19 314.919 314.19H311.979V317.58H314.919ZM344.253 315.51C343.913 317.23 343.043 318.65 341.643 319.77C340.243 320.87 338.613 321.42 336.753 321.42C334.493 321.42 332.603 320.66 331.083 319.14C329.583 317.62 328.833 315.74 328.833 313.5C328.833 311.26 329.583 309.38 331.083 307.86C332.603 306.34 334.493 305.58 336.753 305.58C338.613 305.58 340.243 306.13 341.643 307.23C343.043 308.33 343.913 309.74 344.253 311.46H340.173C339.893 310.82 339.443 310.32 338.823 309.96C338.223 309.58 337.533 309.39 336.753 309.39C335.613 309.39 334.653 309.78 333.873 310.56C333.093 311.32 332.703 312.3 332.703 313.5C332.703 314.68 333.093 315.66 333.873 316.44C334.653 317.2 335.613 317.58 336.753 317.58C337.553 317.58 338.253 317.4 338.853 317.04C339.473 316.66 339.913 316.15 340.173 315.51H344.253ZM359.385 319.14C357.845 320.66 355.965 321.42 353.745 321.42C351.525 321.42 349.645 320.66 348.105 319.14C346.585 317.6 345.825 315.72 345.825 313.5C345.825 311.28 346.585 309.41 348.105 307.89C349.645 306.35 351.525 305.58 353.745 305.58C355.965 305.58 357.845 306.35 359.385 307.89C360.925 309.41 361.695 311.28 361.695 313.5C361.695 315.72 360.925 317.6 359.385 319.14ZM350.835 316.47C351.615 317.25 352.585 317.64 353.745 317.64C354.905 317.64 355.875 317.25 356.655 316.47C357.435 315.69 357.825 314.7 357.825 313.5C357.825 312.3 357.435 311.31 356.655 310.53C355.875 309.75 354.905 309.36 353.745 309.36C352.585 309.36 351.615 309.75 350.835 310.53C350.075 311.31 349.695 312.3 349.695 313.5C349.695 314.7 350.075 315.69 350.835 316.47ZM374.452 306V309.63H370.372V321H366.502V309.63H362.362V306H370.372H374.452ZM379.288 315.09C379.528 316.11 380.008 316.89 380.728 317.43C381.468 317.95 382.338 318.21 383.338 318.21C384.018 318.21 384.638 318.07 385.198 317.79C385.758 317.51 386.168 317.15 386.428 316.71L390.238 316.68C389.778 318.18 388.928 319.35 387.688 320.19C386.468 321.01 385.008 321.42 383.308 321.42C380.908 321.42 378.968 320.67 377.488 319.17C376.008 317.67 375.268 315.78 375.268 313.5C375.268 311.24 376.008 309.36 377.488 307.86C378.968 306.34 380.878 305.58 383.218 305.58C385.398 305.58 387.188 306.34 388.588 307.86C389.988 309.38 390.688 311.26 390.688 313.5C390.688 314.14 390.638 314.67 390.538 315.09H379.288ZM379.258 312.06H386.818C386.598 311.04 386.158 310.29 385.498 309.81C384.838 309.31 384.068 309.06 383.188 309.06C382.168 309.06 381.318 309.32 380.638 309.84C379.958 310.36 379.498 311.1 379.258 312.06Z" fill="#273940"/>
<path d="M140.403 107.65C142.143 109.15 143.013 111.1 143.013 113.5C143.013 115.9 142.143 117.85 140.403 119.35C138.663 120.85 136.333 121.74 133.413 122.02V124.45H129.363V122.02C126.443 121.74 124.113 120.85 122.373 119.35C120.653 117.85 119.793 115.9 119.793 113.5C119.793 111.1 120.653 109.15 122.373 107.65C124.113 106.15 126.443 105.26 129.363 104.98V102.55H133.413V104.98C136.333 105.26 138.663 106.15 140.403 107.65ZM129.363 108.76C125.723 109.16 123.903 110.74 123.903 113.5C123.903 116.26 125.723 117.84 129.363 118.24V108.76ZM133.413 118.24C137.053 117.84 138.873 116.26 138.873 113.5C138.873 110.74 137.053 109.16 133.413 108.76V118.24ZM158.115 122.14C156.575 123.66 154.695 124.42 152.475 124.42C150.255 124.42 148.375 123.66 146.835 122.14C145.315 120.6 144.555 118.72 144.555 116.5C144.555 114.28 145.315 112.41 146.835 110.89C148.375 109.35 150.255 108.58 152.475 108.58C154.695 108.58 156.575 109.35 158.115 110.89C159.655 112.41 160.425 114.28 160.425 116.5C160.425 118.72 159.655 120.6 158.115 122.14ZM149.565 119.47C150.345 120.25 151.315 120.64 152.475 120.64C153.635 120.64 154.605 120.25 155.385 119.47C156.165 118.69 156.555 117.7 156.555 116.5C156.555 115.3 156.165 114.31 155.385 113.53C154.605 112.75 153.635 112.36 152.475 112.36C151.315 112.36 150.345 112.75 149.565 113.53C148.805 114.31 148.425 115.3 148.425 116.5C148.425 117.7 148.805 118.69 149.565 119.47ZM173.182 109V112.63H169.102V124H165.232V112.63H161.092V109H169.102H173.182ZM187.559 122.14C186.019 123.66 184.139 124.42 181.919 124.42C179.699 124.42 177.819 123.66 176.279 122.14C174.759 120.6 173.999 118.72 173.999 116.5C173.999 114.28 174.759 112.41 176.279 110.89C177.819 109.35 179.699 108.58 181.919 108.58C184.139 108.58 186.019 109.35 187.559 110.89C189.099 112.41 189.869 114.28 189.869 116.5C189.869 118.72 189.099 120.6 187.559 122.14ZM179.009 119.47C179.789 120.25 180.759 120.64 181.919 120.64C183.079 120.64 184.049 120.25 184.829 119.47C185.609 118.69 185.999 117.7 185.999 116.5C185.999 115.3 185.609 114.31 184.829 113.53C184.049 112.75 183.079 112.36 181.919 112.36C180.759 112.36 179.789 112.75 179.009 113.53C178.249 114.31 177.869 115.3 177.869 116.5C177.869 117.7 178.249 118.69 179.009 119.47ZM212.871 122.14C211.331 123.66 209.451 124.42 207.231 124.42C205.011 124.42 203.131 123.66 201.591 122.14C200.071 120.6 199.311 118.72 199.311 116.5C199.311 114.28 200.071 112.41 201.591 110.89C203.131 109.35 205.011 108.58 207.231 108.58C209.451 108.58 211.331 109.35 212.871 110.89C214.411 112.41 215.181 114.28 215.181 116.5C215.181 118.72 214.411 120.6 212.871 122.14ZM204.321 119.47C205.101 120.25 206.071 120.64 207.231 120.64C208.391 120.64 209.361 120.25 210.141 119.47C210.921 118.69 211.311 117.7 211.311 116.5C211.311 115.3 210.921 114.31 210.141 113.53C209.361 112.75 208.391 112.36 207.231 112.36C206.071 112.36 205.101 112.75 204.321 113.53C203.561 114.31 203.181 115.3 203.181 116.5C203.181 117.7 203.561 118.69 204.321 119.47ZM227.938 109V112.63H223.858V124H219.988V112.63H215.848V109H223.858H227.938ZM244.175 118.51C243.835 120.23 242.965 121.65 241.565 122.77C240.165 123.87 238.535 124.42 236.675 124.42C234.415 124.42 232.525 123.66 231.005 122.14C229.505 120.62 228.755 118.74 228.755 116.5C228.755 114.26 229.505 112.38 231.005 110.86C232.525 109.34 234.415 108.58 236.675 108.58C238.535 108.58 240.165 109.13 241.565 110.23C242.965 111.33 243.835 112.74 244.175 114.46H240.095C239.815 113.82 239.365 113.32 238.745 112.96C238.145 112.58 237.455 112.39 236.675 112.39C235.535 112.39 234.575 112.78 233.795 113.56C233.015 114.32 232.625 115.3 232.625 116.5C232.625 117.68 233.015 118.66 233.795 119.44C234.575 120.2 235.535 120.58 236.675 120.58C237.475 120.58 238.175 120.4 238.775 120.04C239.395 119.66 239.835 119.15 240.095 118.51H244.175ZM254.557 109H258.697L253.597 124C252.897 126.12 251.867 127.67 250.507 128.65C249.147 129.65 247.537 130.1 245.677 130V126.4C246.717 126.42 247.537 126.22 248.137 125.8C248.737 125.4 249.207 124.72 249.547 123.76L243.817 109H247.957L251.587 118.87L254.557 109ZM271.151 109V112.63H267.071V124H263.201V112.63H259.061V109H267.071H271.151ZM287.388 118.51C287.048 120.23 286.178 121.65 284.778 122.77C283.378 123.87 281.748 124.42 279.888 124.42C277.628 124.42 275.738 123.66 274.218 122.14C272.718 120.62 271.968 118.74 271.968 116.5C271.968 114.26 272.718 112.38 274.218 110.86C275.738 109.34 277.628 108.58 279.888 108.58C281.748 108.58 283.378 109.13 284.778 110.23C286.178 111.33 287.048 112.74 287.388 114.46H283.308C283.028 113.82 282.578 113.32 281.958 112.96C281.358 112.58 280.668 112.39 279.888 112.39C278.748 112.39 277.788 112.78 277.008 113.56C276.228 114.32 275.838 115.3 275.838 116.5C275.838 117.68 276.228 118.66 277.008 119.44C277.788 120.2 278.748 120.58 279.888 120.58C280.688 120.58 281.388 120.4 281.988 120.04C282.608 119.66 283.048 119.15 283.308 118.51H287.388ZM300.037 109V112.63H295.957V124H292.087V112.63H287.947V109H295.957H300.037ZM313.083 115.12C313.903 115.5 314.533 116.05 314.973 116.77C315.433 117.49 315.663 118.31 315.663 119.23C315.663 120.63 315.193 121.78 314.253 122.68C313.333 123.56 312.003 124 310.263 124H302.103V117.49V109H305.733H309.003C310.443 109 311.603 109.39 312.483 110.17C313.363 110.95 313.803 111.91 313.803 113.05C313.803 113.75 313.563 114.44 313.083 115.12ZM305.733 112.12V114.55H309.903C310.063 114.27 310.143 113.97 310.143 113.65C310.143 113.19 309.983 112.82 309.663 112.54C309.363 112.24 308.953 112.1 308.433 112.12H305.733ZM309.933 120.79C311.233 120.79 311.883 120.23 311.883 119.11C311.883 118.03 311.233 117.49 309.933 117.49H305.733V120.79H309.933ZM325.544 109H329.684L324.584 124C323.884 126.12 322.854 127.67 321.494 128.65C320.134 129.65 318.524 130.1 316.664 130V126.4C317.704 126.42 318.524 126.22 319.124 125.8C319.724 125.4 320.194 124.72 320.534 123.76L314.804 109H318.944L322.574 118.87L325.544 109ZM334.406 118.09C334.646 119.11 335.126 119.89 335.846 120.43C336.586 120.95 337.456 121.21 338.456 121.21C339.136 121.21 339.756 121.07 340.316 120.79C340.876 120.51 341.286 120.15 341.546 119.71L345.356 119.68C344.896 121.18 344.046 122.35 342.806 123.19C341.586 124.01 340.126 124.42 338.426 124.42C336.026 124.42 334.086 123.67 332.606 122.17C331.126 120.67 330.386 118.78 330.386 116.5C330.386 114.24 331.126 112.36 332.606 110.86C334.086 109.34 335.996 108.58 338.336 108.58C340.516 108.58 342.306 109.34 343.706 110.86C345.106 112.38 345.806 114.26 345.806 116.5C345.806 117.14 345.756 117.67 345.656 118.09H334.406ZM334.376 115.06H341.936C341.716 114.04 341.276 113.29 340.616 112.81C339.956 112.31 339.186 112.06 338.306 112.06C337.286 112.06 336.436 112.32 335.756 112.84C335.076 113.36 334.616 114.1 334.376 115.06ZM358.602 109V112.63H354.522V124H350.652V112.63H346.512V109H354.522H358.602Z" fill="#273940"/>
<path d="M279.106 163.931C277.369 162.112 274.971 161.036 272.241 161.036H258.513V160.871C258.513 158.804 257.686 156.819 256.28 155.496C254.875 154.09 252.972 153.263 250.905 153.263H226.095C223.945 153.263 222.043 154.09 220.637 155.496C219.231 156.901 218.404 158.804 218.404 160.871V161.036H204.759C202.029 161.036 199.631 162.112 197.894 163.931C196.158 165.668 195 168.149 195 170.795V211.979C195 214.709 196.075 217.107 197.894 218.844C199.631 220.58 202.112 221.738 204.759 221.738H272.241C274.971 221.738 277.369 220.663 279.106 218.844C280.842 217.107 282 214.626 282 211.979V170.795C282 168.066 280.925 165.668 279.106 163.931ZM277.7 211.979H277.617C277.617 213.468 277.038 214.791 276.046 215.784C275.053 216.776 273.73 217.355 272.241 217.355H204.759C203.27 217.355 201.947 216.776 200.954 215.784C199.962 214.791 199.383 213.468 199.383 211.979V170.795C199.383 169.306 199.962 167.983 200.954 166.991C201.947 165.998 203.27 165.42 204.759 165.42H220.72C221.96 165.42 222.952 164.427 222.952 163.187V160.788C222.952 159.879 223.283 159.052 223.862 158.473C224.441 157.894 225.268 157.563 226.178 157.563H250.905C251.815 157.563 252.642 157.894 253.221 158.473C253.799 159.052 254.13 159.879 254.13 160.788V163.187C254.13 164.427 255.123 165.42 256.363 165.42H272.324C273.813 165.42 275.136 165.998 276.128 166.991C277.121 167.983 277.7 169.306 277.7 170.795V211.979Z" fill="#273940"/>
<path d="M238.5 171.043C232.877 171.043 227.749 173.359 224.111 176.998C220.389 180.719 218.156 185.764 218.156 191.388C218.156 197.011 220.472 202.139 224.111 205.777C227.832 209.499 232.877 211.732 238.5 211.732C244.124 211.732 249.251 209.416 252.89 205.777C256.612 202.056 258.844 197.011 258.844 191.388C258.844 185.764 256.529 180.637 252.89 176.998C249.251 173.359 244.124 171.043 238.5 171.043ZM249.748 202.717C246.853 205.529 242.883 207.349 238.5 207.349C234.117 207.349 230.148 205.529 227.253 202.717C224.359 199.823 222.622 195.853 222.622 191.47C222.622 187.087 224.441 183.118 227.253 180.223C230.148 177.329 234.117 175.592 238.5 175.592C242.883 175.592 246.853 177.411 249.748 180.223C252.642 183.118 254.379 187.087 254.379 191.47C254.461 195.853 252.642 199.823 249.748 202.717Z" fill="#273940"/>
<path d="M267.941 179.065C270.179 179.065 271.993 177.251 271.993 175.013C271.993 172.775 270.179 170.96 267.941 170.96C265.703 170.96 263.889 172.775 263.889 175.013C263.889 177.251 265.703 179.065 267.941 179.065Z" fill="#273940"/>
</svg>
