<svg width="478" height="478" viewBox="0 0 478 478" fill="none" xmlns="http://www.w3.org/2000/svg">
<rect width="477.35" height="477.35" rx="10" fill="#051B24"/>
<path d="M194.793 421.196C194.793 419.219 193.184 417.61 191.207 417.61C189.23 417.61 187.621 419.219 187.621 421.196C187.621 423.174 189.23 424.782 191.207 424.782C193.184 424.782 194.793 423.174 194.793 421.196ZM188.949 421.196C188.949 419.951 189.962 418.938 191.207 418.938C192.452 418.938 193.465 419.951 193.465 421.196C193.465 422.441 192.452 423.454 191.207 423.454C189.962 423.454 188.949 422.441 188.949 421.196Z" fill="#273940"/>
<path d="M185.413 429.783C186.266 429.348 186.899 428.607 187.195 427.696C187.491 426.786 187.414 425.814 186.98 424.961C186.545 424.108 185.804 423.475 184.893 423.179C183.982 422.883 183.011 422.959 182.158 423.394C181.304 423.829 180.671 424.57 180.376 425.481C180.08 426.391 180.156 427.363 180.591 428.216C181.026 429.069 181.767 429.702 182.677 429.998C183.042 430.117 183.416 430.175 183.789 430.175C184.347 430.175 184.901 430.043 185.413 429.783V429.783ZM183.088 428.735C182.514 428.549 182.048 428.15 181.774 427.613C181.5 427.076 181.452 426.464 181.639 425.891C181.825 425.318 182.223 424.851 182.76 424.577C183.083 424.413 183.431 424.33 183.783 424.33C184.017 424.33 184.253 424.367 184.483 424.442C185.056 424.628 185.522 425.027 185.796 425.564C186.07 426.101 186.118 426.712 185.932 427.286C185.745 427.859 185.347 428.326 184.81 428.599C184.273 428.873 183.661 428.921 183.088 428.735Z" fill="#273940"/>
<path d="M184.513 438.214C185.148 438.675 185.885 438.898 186.616 438.898C187.726 438.898 188.821 438.385 189.521 437.421C190.084 436.646 190.312 435.698 190.162 434.752C190.012 433.806 189.503 432.975 188.728 432.412C187.953 431.849 187.006 431.622 186.06 431.772C185.114 431.921 184.283 432.431 183.72 433.205C182.558 434.805 182.913 437.052 184.513 438.214V438.214ZM184.794 433.986C185.149 433.498 185.672 433.178 186.267 433.083C186.387 433.064 186.507 433.055 186.625 433.055C187.098 433.055 187.558 433.203 187.948 433.487C188.955 434.218 189.179 435.633 188.447 436.64C187.715 437.647 186.301 437.871 185.294 437.14C184.286 436.408 184.062 434.993 184.794 433.986Z" fill="#273940"/>
<path d="M195.798 438.897C196.529 438.897 197.266 438.675 197.901 438.214C199.501 437.052 199.857 434.805 198.695 433.205C198.132 432.431 197.301 431.921 196.355 431.772C195.409 431.622 194.461 431.849 193.686 432.412C192.911 432.975 192.402 433.806 192.252 434.752C192.102 435.698 192.33 436.646 192.893 437.421C193.593 438.385 194.688 438.897 195.798 438.897V438.897ZM194.467 433.487C194.954 433.132 195.551 432.989 196.147 433.083C196.742 433.178 197.266 433.498 197.62 433.986C198.352 434.993 198.128 436.408 197.121 437.14C196.113 437.871 194.699 437.647 193.967 436.64C193.235 435.633 193.459 434.218 194.467 433.487V433.487Z" fill="#273940"/>
<path d="M197.521 423.179C196.61 423.475 195.869 424.107 195.435 424.961C195 425.814 194.923 426.785 195.219 427.696C195.515 428.607 196.148 429.348 197.001 429.783C197.513 430.043 198.067 430.175 198.625 430.175C198.998 430.175 199.372 430.116 199.737 429.998C200.648 429.702 201.389 429.069 201.823 428.216C202.258 427.363 202.334 426.391 202.039 425.48C201.743 424.57 201.11 423.829 200.257 423.394C199.403 422.959 198.432 422.883 197.521 423.179V423.179ZM199.654 424.577C200.191 424.851 200.589 425.318 200.775 425.891C200.962 426.464 200.914 427.076 200.64 427.613C200.366 428.15 199.9 428.549 199.326 428.735C198.753 428.921 198.141 428.873 197.604 428.599C197.067 428.326 196.669 427.859 196.482 427.286C196.296 426.712 196.344 426.101 196.618 425.564C196.892 425.027 197.358 424.628 197.931 424.442C198.161 424.367 198.397 424.33 198.631 424.33C198.983 424.33 199.331 424.413 199.654 424.577Z" fill="#273940"/>
<path d="M193.484 429C193.484 427.744 192.463 426.723 191.207 426.723C189.951 426.723 188.93 427.744 188.93 429C188.93 430.256 189.951 431.277 191.207 431.277C192.463 431.277 193.484 430.256 193.484 429ZM190.258 429C190.258 428.477 190.684 428.051 191.207 428.051C191.73 428.051 192.156 428.477 192.156 429C192.156 429.523 191.73 429.949 191.207 429.949C190.684 429.949 190.258 429.523 190.258 429V429Z" fill="#273940"/>
<path d="M209.805 441.335C209.055 440.584 208.056 440.171 206.994 440.171C205.932 440.171 204.934 440.584 204.183 441.335C203.188 442.331 201.864 442.879 200.456 442.879H197.44C199.103 442.132 200.633 441.08 201.96 439.753C204.832 436.881 206.414 433.062 206.414 429C206.414 426.029 205.557 423.151 203.936 420.676C203.735 420.369 203.323 420.284 203.016 420.485C202.709 420.686 202.624 421.097 202.825 421.404C204.304 423.662 205.086 426.288 205.086 429C205.086 436.653 198.86 442.879 191.207 442.879C183.554 442.879 177.328 436.653 177.328 429C177.328 421.347 183.554 415.121 191.207 415.121C193.923 415.121 196.554 415.905 198.814 417.39C199.121 417.591 199.532 417.506 199.734 417.199C199.935 416.892 199.85 416.481 199.543 416.279C197.066 414.653 194.183 413.793 191.207 413.793C187.145 413.793 183.326 415.375 180.454 418.247C177.582 421.119 176 424.938 176 429C176 433.062 177.582 436.881 180.454 439.753C183.326 442.625 187.145 444.207 191.207 444.207H200.456C202.219 444.207 203.876 443.521 205.122 442.274C205.622 441.774 206.287 441.499 206.994 441.499C207.701 441.499 208.366 441.774 208.866 442.274C209.126 442.534 209.546 442.534 209.805 442.274C210.065 442.015 210.065 441.595 209.805 441.335Z" fill="#273940"/>
<path d="M201.495 419.385C201.67 419.385 201.841 419.315 201.965 419.191C202.088 419.067 202.159 418.896 202.159 418.722C202.159 418.546 202.088 418.376 201.965 418.252C201.841 418.128 201.67 418.058 201.495 418.058C201.32 418.058 201.149 418.128 201.026 418.252C200.902 418.376 200.831 418.546 200.831 418.722C200.831 418.896 200.902 419.068 201.026 419.191C201.149 419.315 201.32 419.385 201.495 419.385Z" fill="#273940"/>
<path d="M181.775 452.05C181.642 452.533 181.433 452.908 181.15 453.175C180.867 453.425 180.558 453.617 180.225 453.75C179.892 453.867 179.55 453.942 179.2 453.975C178.867 453.992 178.592 454 178.375 454H174C173.417 454 172.975 453.942 172.675 453.825C172.375 453.708 172.167 453.55 172.05 453.35C171.95 453.133 171.917 452.892 171.95 452.625C172 452.342 172.083 452.042 172.2 451.725L174.225 446.45L168.175 453.1C167.742 453.567 167.325 453.875 166.925 454.025C166.542 454.175 166.092 454.217 165.575 454.15C165.192 454.1 164.892 454 164.675 453.85C164.475 453.7 164.333 453.517 164.25 453.3C164.183 453.067 164.167 452.817 164.2 452.55C164.233 452.267 164.3 451.992 164.4 451.725L167.4 443.975L159.875 453.075C159.858 453.092 159.783 453.175 159.65 453.325C159.517 453.458 159.275 453.608 158.925 453.775C158.575 453.925 158.15 454 157.65 454H155.175L160.1 439.9H153.325L155.175 436.825H163.325C163.625 436.825 163.9 436.858 164.15 436.925C164.4 436.975 164.6 437.092 164.75 437.275C164.9 437.442 164.983 437.683 165 438C165.017 438.3 164.942 438.7 164.775 439.2L162.15 446.775L167.4 440.825C167.667 440.525 167.917 440.25 168.15 440C168.4 439.733 168.667 439.517 168.95 439.35C169.233 439.167 169.55 439.025 169.9 438.925C170.267 438.825 170.717 438.775 171.25 438.775C171.317 438.775 171.458 438.808 171.675 438.875C171.908 438.925 172.125 439.05 172.325 439.25C172.525 439.45 172.658 439.733 172.725 440.1C172.808 440.467 172.733 440.958 172.5 441.575L170.125 447.725L174.825 443C175.108 442.717 175.35 442.475 175.55 442.275C175.75 442.075 175.95 441.917 176.15 441.8C176.367 441.683 176.6 441.6 176.85 441.55C177.1 441.5 177.417 441.475 177.8 441.475C177.867 441.475 178.017 441.508 178.25 441.575C178.5 441.642 178.733 441.783 178.95 442C179.167 442.2 179.317 442.492 179.4 442.875C179.5 443.242 179.433 443.733 179.2 444.35L176.275 452.05H181.775ZM202.578 445.7C202.578 445.7 202.545 445.8 202.478 446C202.428 446.2 202.303 446.425 202.103 446.675C201.903 446.925 201.603 447.15 201.203 447.35C200.82 447.55 200.303 447.65 199.653 447.65H192.003C192.153 447.75 192.286 447.892 192.403 448.075C192.52 448.258 192.611 448.458 192.678 448.675C192.761 448.875 192.82 449.083 192.853 449.3C192.886 449.517 192.895 449.708 192.878 449.875C192.828 450.575 192.645 451.192 192.328 451.725C192.011 452.258 191.595 452.708 191.078 453.075C190.578 453.442 189.978 453.725 189.278 453.925C188.595 454.108 187.853 454.2 187.053 454.2C185.92 454.2 184.961 454.075 184.178 453.825C183.411 453.575 182.795 453.242 182.328 452.825C181.878 452.408 181.57 451.933 181.403 451.4C181.236 450.85 181.203 450.283 181.303 449.7C181.503 448.5 182.103 447.533 183.103 446.8C184.12 446.067 185.561 445.7 187.428 445.7H202.578ZM189.278 447.65H186.478L185.378 450.775C185.228 451.225 185.261 451.558 185.478 451.775C185.695 451.975 185.961 452.117 186.278 452.2C186.611 452.267 186.92 452.3 187.203 452.3C187.503 452.283 187.653 452.275 187.653 452.275L189.278 447.65ZM221.866 445.7C221.749 446.1 221.558 446.433 221.291 446.7C221.041 446.95 220.766 447.15 220.466 447.3C220.166 447.433 219.866 447.525 219.566 447.575C219.266 447.625 219.016 447.65 218.816 447.65H213.691L208.516 454H203.641L203.116 445.7H207.541L207.616 451.7L212.191 445.7H221.866ZM228.581 440.7C228.581 441.1 228.498 441.483 228.331 441.85C228.165 442.2 227.931 442.508 227.631 442.775C227.348 443.042 227.006 443.25 226.606 443.4C226.223 443.55 225.806 443.625 225.356 443.625C224.906 443.625 224.481 443.55 224.081 443.4C223.698 443.25 223.356 443.042 223.056 442.775C222.756 442.508 222.523 442.2 222.356 441.85C222.19 441.483 222.106 441.1 222.106 440.7C222.106 440.3 222.19 439.925 222.356 439.575C222.523 439.208 222.756 438.892 223.056 438.625C223.356 438.358 223.698 438.15 224.081 438C224.481 437.85 224.906 437.775 225.356 437.775C225.806 437.775 226.223 437.85 226.606 438C227.006 438.15 227.348 438.358 227.631 438.625C227.931 438.892 228.165 439.208 228.331 439.575C228.498 439.925 228.581 440.3 228.581 440.7ZM229.456 452.05C229.34 452.45 229.156 452.783 228.906 453.05C228.673 453.3 228.415 453.5 228.131 453.65C227.865 453.783 227.59 453.875 227.306 453.925C227.023 453.975 226.781 454 226.581 454H221.756C221.09 454 220.598 453.8 220.281 453.4C219.948 452.983 219.915 452.4 220.181 451.65L222.306 445.7H226.731L224.481 452.05H229.456ZM244.609 452.05C244.509 452.383 244.35 452.675 244.134 452.925C243.934 453.158 243.692 453.358 243.409 453.525C243.142 453.692 242.842 453.817 242.509 453.9C242.192 453.967 241.875 454 241.559 454H234.759C234.159 454 233.509 453.958 232.809 453.875C232.125 453.792 231.484 453.625 230.884 453.375C230.3 453.125 229.817 452.767 229.434 452.3C229.034 451.833 228.834 451.208 228.834 450.425C228.834 449.608 229.025 448.9 229.409 448.3C229.775 447.7 230.259 447.208 230.859 446.825C231.459 446.442 232.125 446.158 232.859 445.975C233.592 445.792 234.309 445.7 235.009 445.7H236.784C237.167 445.7 237.6 445.733 238.084 445.8C238.584 445.867 239.05 445.992 239.484 446.175C239.934 446.358 240.309 446.608 240.609 446.925C240.925 447.225 241.1 447.617 241.134 448.1C241.167 448.6 241.059 449.033 240.809 449.4C240.559 449.75 240.25 450.042 239.884 450.275H235.834L237.159 447.65H234.584L233.584 450.6C233.484 450.9 233.467 451.15 233.534 451.35C233.617 451.533 233.742 451.683 233.909 451.8C234.075 451.9 234.267 451.967 234.484 452C234.7 452.033 234.9 452.05 235.084 452.05H244.609ZM273.734 445.7C273.551 446.283 273.293 446.758 272.959 447.125C272.626 447.475 272.126 447.65 271.459 447.65H263.934C263.951 447.7 263.959 447.792 263.959 447.925V448.175C263.959 449.408 263.618 450.575 262.934 451.675C262.268 452.775 261.409 453.742 260.359 454.575C259.309 455.408 258.159 456.067 256.909 456.55C255.659 457.05 254.459 457.3 253.309 457.3C252.743 457.3 252.226 457.217 251.759 457.05C251.293 456.883 250.901 456.642 250.584 456.325C250.251 456.025 250.001 455.65 249.834 455.2C249.668 454.767 249.601 454.267 249.634 453.7C249.701 452.533 250.018 451.492 250.584 450.575C251.151 449.642 251.851 448.85 252.684 448.2C253.534 447.533 254.468 447 255.484 446.6C256.518 446.2 257.534 445.933 258.534 445.8C258.301 445.317 258.001 444.883 257.634 444.5C257.284 444.117 256.893 443.758 256.459 443.425L263.209 439.9H254.034L255.884 436.825H268.584C268.601 437.725 268.484 438.483 268.234 439.1C267.984 439.717 267.451 440.242 266.634 440.675C265.001 441.575 263.359 442.458 261.709 443.325C262.109 443.642 262.459 444 262.759 444.4C263.076 444.783 263.318 445.217 263.484 445.7H273.734ZM259.584 448.075C259.568 448.025 259.551 447.967 259.534 447.9C259.518 447.817 259.468 447.733 259.384 447.65C259.018 447.7 258.626 447.817 258.209 448C257.793 448.167 257.384 448.383 256.984 448.65C256.584 448.9 256.209 449.175 255.859 449.475C255.509 449.775 255.226 450.075 255.009 450.375C254.826 450.625 254.618 450.908 254.384 451.225C254.168 451.542 253.968 451.875 253.784 452.225C253.601 452.575 253.443 452.933 253.309 453.3C253.193 453.65 253.134 453.983 253.134 454.3C253.134 454.617 253.209 454.875 253.359 455.075C253.509 455.275 253.751 455.375 254.084 455.375C254.501 455.375 254.934 455.267 255.384 455.05C255.834 454.833 256.276 454.533 256.709 454.15C257.159 453.783 257.576 453.358 257.959 452.875C258.343 452.392 258.668 451.883 258.934 451.35C259.201 450.8 259.393 450.25 259.509 449.7C259.643 449.133 259.668 448.592 259.584 448.075ZM292.861 445.7C292.861 445.7 292.828 445.8 292.761 446C292.711 446.2 292.586 446.425 292.386 446.675C292.186 446.925 291.886 447.15 291.486 447.35C291.103 447.55 290.586 447.65 289.936 447.65H282.286C282.436 447.75 282.57 447.892 282.686 448.075C282.803 448.258 282.895 448.458 282.961 448.675C283.045 448.875 283.103 449.083 283.136 449.3C283.17 449.517 283.178 449.708 283.161 449.875C283.111 450.575 282.928 451.192 282.611 451.725C282.295 452.258 281.878 452.708 281.361 453.075C280.861 453.442 280.261 453.725 279.561 453.925C278.878 454.108 278.136 454.2 277.336 454.2C276.203 454.2 275.245 454.075 274.461 453.825C273.695 453.575 273.078 453.242 272.611 452.825C272.161 452.408 271.853 451.933 271.686 451.4C271.52 450.85 271.486 450.283 271.586 449.7C271.786 448.5 272.386 447.533 273.386 446.8C274.403 446.067 275.845 445.7 277.711 445.7H292.861ZM279.561 447.65H276.761L275.661 450.775C275.511 451.225 275.545 451.558 275.761 451.775C275.978 451.975 276.245 452.117 276.561 452.2C276.895 452.267 277.203 452.3 277.486 452.3C277.786 452.283 277.936 452.275 277.936 452.275L279.561 447.65ZM307.853 452.05C307.736 452.45 307.544 452.783 307.278 453.05C307.028 453.3 306.753 453.5 306.453 453.65C306.153 453.783 305.853 453.875 305.553 453.925C305.253 453.975 305.003 454 304.803 454H299.928C299.161 454 298.661 453.842 298.428 453.525C298.194 453.192 298.194 452.7 298.428 452.05L299.353 449.425L295.153 452.975C295.153 452.975 295.069 453.033 294.903 453.15C294.753 453.25 294.561 453.367 294.328 453.5C294.094 453.617 293.828 453.733 293.528 453.85C293.244 453.95 292.978 454 292.728 454H290.478L293.403 445.7H297.803L296.428 449.6L300.153 446.55C300.586 446.2 301.053 445.908 301.553 445.675C302.053 445.442 302.678 445.342 303.428 445.375C303.628 445.375 303.819 445.425 304.003 445.525C304.186 445.608 304.336 445.742 304.453 445.925C304.569 446.108 304.628 446.342 304.628 446.625C304.644 446.908 304.578 447.25 304.428 447.65L302.853 452.05H307.853ZM323.198 452.05C323.098 452.383 322.939 452.675 322.723 452.925C322.523 453.158 322.281 453.358 321.998 453.525C321.731 453.692 321.431 453.817 321.098 453.9C320.781 453.967 320.464 454 320.148 454H313.348C312.748 454 312.098 453.958 311.398 453.875C310.714 453.792 310.073 453.625 309.473 453.375C308.889 453.125 308.406 452.767 308.023 452.3C307.623 451.833 307.423 451.208 307.423 450.425C307.423 449.608 307.614 448.9 307.998 448.3C308.364 447.7 308.848 447.208 309.448 446.825C310.048 446.442 310.714 446.158 311.448 445.975C312.181 445.792 312.898 445.7 313.598 445.7H315.373C315.756 445.7 316.189 445.733 316.673 445.8C317.173 445.867 317.639 445.992 318.073 446.175C318.523 446.358 318.898 446.608 319.198 446.925C319.514 447.225 319.689 447.617 319.723 448.1C319.756 448.6 319.648 449.033 319.398 449.4C319.148 449.75 318.839 450.042 318.473 450.275H314.423L315.748 447.65H313.173L312.173 450.6C312.073 450.9 312.056 451.15 312.123 451.35C312.206 451.533 312.331 451.683 312.498 451.8C312.664 451.9 312.856 451.967 313.073 452C313.289 452.033 313.489 452.05 313.673 452.05H323.198Z" fill="#273940"/>
<path d="M140.403 281.65C142.143 283.15 143.013 285.1 143.013 287.5C143.013 289.9 142.143 291.85 140.403 293.35C138.663 294.85 136.333 295.74 133.413 296.02V298.45H129.363V296.02C126.443 295.74 124.113 294.85 122.373 293.35C120.653 291.85 119.793 289.9 119.793 287.5C119.793 285.1 120.653 283.15 122.373 281.65C124.113 280.15 126.443 279.26 129.363 278.98V276.55H133.413V278.98C136.333 279.26 138.663 280.15 140.403 281.65ZM129.363 282.76C125.723 283.16 123.903 284.74 123.903 287.5C123.903 290.26 125.723 291.84 129.363 292.24V282.76ZM133.413 292.24C137.053 291.84 138.873 290.26 138.873 287.5C138.873 284.74 137.053 283.16 133.413 282.76V292.24ZM158.115 296.14C156.575 297.66 154.695 298.42 152.475 298.42C150.255 298.42 148.375 297.66 146.835 296.14C145.315 294.6 144.555 292.72 144.555 290.5C144.555 288.28 145.315 286.41 146.835 284.89C148.375 283.35 150.255 282.58 152.475 282.58C154.695 282.58 156.575 283.35 158.115 284.89C159.655 286.41 160.425 288.28 160.425 290.5C160.425 292.72 159.655 294.6 158.115 296.14ZM149.565 293.47C150.345 294.25 151.315 294.64 152.475 294.64C153.635 294.64 154.605 294.25 155.385 293.47C156.165 292.69 156.555 291.7 156.555 290.5C156.555 289.3 156.165 288.31 155.385 287.53C154.605 286.75 153.635 286.36 152.475 286.36C151.315 286.36 150.345 286.75 149.565 287.53C148.805 288.31 148.425 289.3 148.425 290.5C148.425 291.7 148.805 292.69 149.565 293.47ZM173.182 283V286.63H169.102V298H165.232V286.63H161.092V283H169.102H173.182ZM187.559 296.14C186.019 297.66 184.139 298.42 181.919 298.42C179.699 298.42 177.819 297.66 176.279 296.14C174.759 294.6 173.999 292.72 173.999 290.5C173.999 288.28 174.759 286.41 176.279 284.89C177.819 283.35 179.699 282.58 181.919 282.58C184.139 282.58 186.019 283.35 187.559 284.89C189.099 286.41 189.869 288.28 189.869 290.5C189.869 292.72 189.099 294.6 187.559 296.14ZM179.009 293.47C179.789 294.25 180.759 294.64 181.919 294.64C183.079 294.64 184.049 294.25 184.829 293.47C185.609 292.69 185.999 291.7 185.999 290.5C185.999 289.3 185.609 288.31 184.829 287.53C184.049 286.75 183.079 286.36 181.919 286.36C180.759 286.36 179.789 286.75 179.009 287.53C178.249 288.31 177.869 289.3 177.869 290.5C177.869 291.7 178.249 292.69 179.009 293.47ZM212.871 296.14C211.331 297.66 209.451 298.42 207.231 298.42C205.011 298.42 203.131 297.66 201.591 296.14C200.071 294.6 199.311 292.72 199.311 290.5C199.311 288.28 200.071 286.41 201.591 284.89C203.131 283.35 205.011 282.58 207.231 282.58C209.451 282.58 211.331 283.35 212.871 284.89C214.411 286.41 215.181 288.28 215.181 290.5C215.181 292.72 214.411 294.6 212.871 296.14ZM204.321 293.47C205.101 294.25 206.071 294.64 207.231 294.64C208.391 294.64 209.361 294.25 210.141 293.47C210.921 292.69 211.311 291.7 211.311 290.5C211.311 289.3 210.921 288.31 210.141 287.53C209.361 286.75 208.391 286.36 207.231 286.36C206.071 286.36 205.101 286.75 204.321 287.53C203.561 288.31 203.181 289.3 203.181 290.5C203.181 291.7 203.561 292.69 204.321 293.47ZM227.938 283V286.63H223.858V298H219.988V286.63H215.848V283H223.858H227.938ZM244.175 292.51C243.835 294.23 242.965 295.65 241.565 296.77C240.165 297.87 238.535 298.42 236.675 298.42C234.415 298.42 232.525 297.66 231.005 296.14C229.505 294.62 228.755 292.74 228.755 290.5C228.755 288.26 229.505 286.38 231.005 284.86C232.525 283.34 234.415 282.58 236.675 282.58C238.535 282.58 240.165 283.13 241.565 284.23C242.965 285.33 243.835 286.74 244.175 288.46H240.095C239.815 287.82 239.365 287.32 238.745 286.96C238.145 286.58 237.455 286.39 236.675 286.39C235.535 286.39 234.575 286.78 233.795 287.56C233.015 288.32 232.625 289.3 232.625 290.5C232.625 291.68 233.015 292.66 233.795 293.44C234.575 294.2 235.535 294.58 236.675 294.58C237.475 294.58 238.175 294.4 238.775 294.04C239.395 293.66 239.835 293.15 240.095 292.51H244.175ZM254.557 283H258.697L253.597 298C252.897 300.12 251.867 301.67 250.507 302.65C249.147 303.65 247.537 304.1 245.677 304V300.4C246.717 300.42 247.537 300.22 248.137 299.8C248.737 299.4 249.207 298.72 249.547 297.76L243.817 283H247.957L251.587 292.87L254.557 283ZM271.151 283V286.63H267.071V298H263.201V286.63H259.061V283H267.071H271.151ZM287.388 292.51C287.048 294.23 286.178 295.65 284.778 296.77C283.378 297.87 281.748 298.42 279.888 298.42C277.628 298.42 275.738 297.66 274.218 296.14C272.718 294.62 271.968 292.74 271.968 290.5C271.968 288.26 272.718 286.38 274.218 284.86C275.738 283.34 277.628 282.58 279.888 282.58C281.748 282.58 283.378 283.13 284.778 284.23C286.178 285.33 287.048 286.74 287.388 288.46H283.308C283.028 287.82 282.578 287.32 281.958 286.96C281.358 286.58 280.668 286.39 279.888 286.39C278.748 286.39 277.788 286.78 277.008 287.56C276.228 288.32 275.838 289.3 275.838 290.5C275.838 291.68 276.228 292.66 277.008 293.44C277.788 294.2 278.748 294.58 279.888 294.58C280.688 294.58 281.388 294.4 281.988 294.04C282.608 293.66 283.048 293.15 283.308 292.51H287.388ZM300.037 283V286.63H295.957V298H292.087V286.63H287.947V283H295.957H300.037ZM313.083 289.12C313.903 289.5 314.533 290.05 314.973 290.77C315.433 291.49 315.663 292.31 315.663 293.23C315.663 294.63 315.193 295.78 314.253 296.68C313.333 297.56 312.003 298 310.263 298H302.103V291.49V283H305.733H309.003C310.443 283 311.603 283.39 312.483 284.17C313.363 284.95 313.803 285.91 313.803 287.05C313.803 287.75 313.563 288.44 313.083 289.12ZM305.733 286.12V288.55H309.903C310.063 288.27 310.143 287.97 310.143 287.65C310.143 287.19 309.983 286.82 309.663 286.54C309.363 286.24 308.953 286.1 308.433 286.12H305.733ZM309.933 294.79C311.233 294.79 311.883 294.23 311.883 293.11C311.883 292.03 311.233 291.49 309.933 291.49H305.733V294.79H309.933ZM325.544 283H329.684L324.584 298C323.884 300.12 322.854 301.67 321.494 302.65C320.134 303.65 318.524 304.1 316.664 304V300.4C317.704 300.42 318.524 300.22 319.124 299.8C319.724 299.4 320.194 298.72 320.534 297.76L314.804 283H318.944L322.574 292.87L325.544 283ZM334.406 292.09C334.646 293.11 335.126 293.89 335.846 294.43C336.586 294.95 337.456 295.21 338.456 295.21C339.136 295.21 339.756 295.07 340.316 294.79C340.876 294.51 341.286 294.15 341.546 293.71L345.356 293.68C344.896 295.18 344.046 296.35 342.806 297.19C341.586 298.01 340.126 298.42 338.426 298.42C336.026 298.42 334.086 297.67 332.606 296.17C331.126 294.67 330.386 292.78 330.386 290.5C330.386 288.24 331.126 286.36 332.606 284.86C334.086 283.34 335.996 282.58 338.336 282.58C340.516 282.58 342.306 283.34 343.706 284.86C345.106 286.38 345.806 288.26 345.806 290.5C345.806 291.14 345.756 291.67 345.656 292.09H334.406ZM334.376 289.06H341.936C341.716 288.04 341.276 287.29 340.616 286.81C339.956 286.31 339.186 286.06 338.306 286.06C337.286 286.06 336.436 286.32 335.756 286.84C335.076 287.36 334.616 288.1 334.376 289.06ZM358.602 283V286.63H354.522V298H350.652V286.63H346.512V283H354.522H358.602Z" fill="#273940"/>
<path d="M279.106 192.931C277.369 191.112 274.971 190.036 272.241 190.036H258.513V189.871C258.513 187.804 257.686 185.819 256.28 184.496C254.875 183.09 252.972 182.263 250.905 182.263H226.095C223.945 182.263 222.043 183.09 220.637 184.496C219.231 185.901 218.404 187.804 218.404 189.871V190.036H204.759C202.029 190.036 199.631 191.112 197.894 192.931C196.158 194.668 195 197.149 195 199.795V240.979C195 243.709 196.075 246.107 197.894 247.844C199.631 249.58 202.112 250.738 204.759 250.738H272.241C274.971 250.738 277.369 249.663 279.106 247.844C280.842 246.107 282 243.626 282 240.979V199.795C282 197.066 280.925 194.668 279.106 192.931ZM277.7 240.979H277.617C277.617 242.468 277.038 243.791 276.046 244.784C275.053 245.776 273.73 246.355 272.241 246.355H204.759C203.27 246.355 201.947 245.776 200.954 244.784C199.962 243.791 199.383 242.468 199.383 240.979V199.795C199.383 198.306 199.962 196.983 200.954 195.991C201.947 194.998 203.27 194.42 204.759 194.42H220.72C221.96 194.42 222.952 193.427 222.952 192.187V189.788C222.952 188.879 223.283 188.052 223.862 187.473C224.441 186.894 225.268 186.563 226.178 186.563H250.905C251.815 186.563 252.642 186.894 253.221 187.473C253.799 188.052 254.13 188.879 254.13 189.788V192.187C254.13 193.427 255.123 194.42 256.363 194.42H272.324C273.813 194.42 275.136 194.998 276.128 195.991C277.121 196.983 277.7 198.306 277.7 199.795V240.979Z" fill="#273940"/>
<path d="M238.5 200.043C232.877 200.043 227.749 202.359 224.111 205.998C220.389 209.719 218.156 214.764 218.156 220.388C218.156 226.011 220.472 231.139 224.111 234.777C227.832 238.499 232.877 240.732 238.5 240.732C244.124 240.732 249.251 238.416 252.89 234.777C256.612 231.056 258.844 226.011 258.844 220.388C258.844 214.764 256.529 209.637 252.89 205.998C249.251 202.359 244.124 200.043 238.5 200.043ZM249.748 231.717C246.853 234.529 242.883 236.349 238.5 236.349C234.117 236.349 230.148 234.529 227.253 231.717C224.359 228.823 222.622 224.853 222.622 220.47C222.622 216.087 224.441 212.118 227.253 209.223C230.148 206.329 234.117 204.592 238.5 204.592C242.883 204.592 246.853 206.411 249.748 209.223C252.642 212.118 254.379 216.087 254.379 220.47C254.461 224.853 252.642 228.823 249.748 231.717Z" fill="#273940"/>
<path d="M267.941 208.065C270.179 208.065 271.993 206.251 271.993 204.013C271.993 201.775 270.179 199.96 267.941 199.96C265.703 199.96 263.889 201.775 263.889 204.013C263.889 206.251 265.703 208.065 267.941 208.065Z" fill="#273940"/>
</svg>
